<?xml version="1.0" encoding="UTF-8"?>
<!DOCTYPE svg PUBLIC "-//W3C//DTD SVG 1.1//EN" "http://www.w3.org/Graphics/SVG/1.1/DTD/svg11.dtd">
<!-- Creator: CorelDRAW 2021 (64-Bit) -->
<svg xmlns="http://www.w3.org/2000/svg" xml:space="preserve" width="851px" height="444px" version="1.1" style="shape-rendering:geometricPrecision; text-rendering:geometricPrecision; image-rendering:optimizeQuality; fill-rule:evenodd; clip-rule:evenodd"
viewBox="0 0 4972.66 2595.85"
 xmlns:xlink="http://www.w3.org/1999/xlink"
 xmlns:xodm="http://www.corel.com/coreldraw/odm/2003">
 <defs>
  <style type="text/css">
   <![CDATA[
    .fil0 {fill:red;fill-rule:nonzero}
   ]]>
  </style>
 </defs>
 <g id="Capa_x0020_1">
  <metadata id="CorelCorpID_0Corel-Layer"/>
  <g id="_2398253973152">
   <g>
    <path class="fil0" d="M802.81 39.21c132.91,-31.05 270.14,-43.25 406.5,-38.05 199.06,6.76 402.06,37.29 581.85,127.09 98.87,49.12 188.54,118.39 256.06,206.07 58.33,75.65 101.13,163.45 124.28,256.13 1,-12.52 1.69,-25.03 1.88,-37.61 0.12,-165.02 -0.25,-330.1 0.12,-495.17 285.67,-0.51 571.4,-0.07 857.07,-0.19 59.44,1.19 119.15,-2.51 178.47,1.93 117.33,482.1 237.29,963.57 356,1445.29 4.94,-12.32 8.45,-25.21 11.45,-38.16 114.64,-469.21 231.6,-937.86 345.43,-1407.25 88.61,-4.25 177.59,-0.62 266.33,-1.81 261.33,0.19 522.65,-0.44 783.97,0.25 0.88,692.73 0.13,1385.4 0.38,2078.13 -0.38,135.29 0.69,270.65 -0.57,405.95 -236.16,-0.07 -472.33,-0.07 -708.56,0 -1,-358.51 -0.13,-717.02 -0.38,-1075.53 -0.87,-160.95 1.75,-321.96 -1.38,-482.85 -129.28,518.34 -256.5,1037.23 -384.34,1555.87 -206.95,2.06 -413.95,0 -620.9,1.06 -106.26,-422.2 -207.94,-845.61 -312.63,-1268.26 -25.1,-97.93 -46.12,-196.93 -73.66,-294.17 1.37,515.39 0.06,1030.77 0.69,1546.22 2.94,11.08 -4.69,19.15 -15.9,16.15 -226.53,-0.25 -453.06,-0.32 -679.59,0 -0.37,-130.66 -0.06,-261.26 -0.19,-391.92 -0.25,-25.97 1.19,-52 -1.56,-77.85 -14.77,24.85 -23.72,52.57 -38.61,77.35 -78.66,141.11 -210.38,245.74 -354,315.45 -207.95,100.75 -442.18,135.73 -671.58,132.29 -230.66,-0.81 -468.9,-39.74 -669.14,-160.14 -151.44,-89.67 -271.28,-228.78 -342.3,-389.36 -68.53,-152.87 -97.25,-321.21 -98,-488.04 240.36,-0.69 480.72,-0.75 721.02,0 0.25,119.65 26.53,246.93 108.19,338.55 72.78,82.35 185.48,118.46 293.06,118.52 73.09,-1.88 148.87,-19.71 207.25,-65.7 46.94,-36.11 77.41,-91.12 87.92,-149.07 12.27,-68.08 7.83,-143.73 -33.91,-201.56 -55.07,-76.47 -151.57,-112.2 -243.06,-115.89 -74.65,-0.75 -149.24,-0.44 -223.9,-0.07 -0.87,-160.5 0,-321.08 -0.38,-481.59 92.69,-1.94 185.42,1.13 278.04,-1.63 75.66,-4.69 158.13,-17.52 215.08,-72.02 77.16,-77.35 68.52,-216.15 -9.45,-289.86 -43.24,-41.06 -102.25,-60.77 -160.2,-69.34 -88.67,-11.95 -182.6,-8.51 -264.52,30.91 -75.4,34.8 -140.3,97.31 -167.64,176.85 -11.33,31.41 -15.46,64.77 -16.84,97.99 -194.11,1.26 -388.22,0.19 -582.34,0.51 -37.36,-0.44 -74.72,1.12 -112.02,-0.94 5.08,-182.48 56.01,-368.15 169.9,-513.39 130.61,-170.09 331.04,-272.84 536.61,-321.14zm1259.37 1059.43l0 0c-45.06,52.32 -105.38,87.67 -166.46,118.14 31.67,16.09 64.08,31.29 92.24,53.26 82.1,60.01 141.68,144.74 188.3,233.91 -1,-204.62 -0.5,-409.31 -0.19,-613.95 -29.16,73.72 -59.63,149.19 -113.89,208.64z"/>
   </g>
  </g>
 </g>
</svg>
