<?xml version="1.0" encoding="UTF-8"?>
<!DOCTYPE svg PUBLIC "-//W3C//DTD SVG 1.1//EN" "http://www.w3.org/Graphics/SVG/1.1/DTD/svg11.dtd">
<!-- Creator: CorelDRAW 2021 (64-Bit) -->
<svg xmlns="http://www.w3.org/2000/svg" xml:space="preserve" width="850px" height="472px" version="1.1" style="shape-rendering:geometricPrecision; text-rendering:geometricPrecision; image-rendering:optimizeQuality; fill-rule:evenodd; clip-rule:evenodd"
viewBox="0 0 318.89 177.27"
 xmlns:xlink="http://www.w3.org/1999/xlink"
 xmlns:xodm="http://www.corel.com/coreldraw/odm/2003">
 <defs>
  <style type="text/css">
   <![CDATA[
    .fil1 {fill:#B1B1B1;fill-rule:nonzero}
    .fil0 {fill:red;fill-rule:nonzero}
   ]]>
  </style>
 </defs>
 <g id="Capa_x0020_1">
  <metadata id="CorelCorpID_0Corel-Layer"/>
  <g id="_2398249713424">
   <g>
    <path class="fil0" d="M178.94 2.99c6.17,-1.43 12.44,-2.5 18.76,-2.96 3.63,-0.04 7.26,-0.03 10.89,0 -4.3,6.5 -5.19,14.84 -3.38,22.32 2.03,6.16 2.91,13.35 -0.38,19.25 -8.61,0.15 -17.12,2.2 -24.99,5.66 -2.81,1.13 -5.43,2.69 -8.21,3.91 -0.75,-4.86 -2.38,-9.68 -5.51,-13.54 -1.67,-2.46 -4.49,-3.84 -6.08,-6.37 -3.78,-5.65 -4.35,-12.64 -4.75,-19.24 7.28,-4.37 15.45,-7.01 23.65,-9.03z"/>
    <path class="fil0" d="M209.32 21.83c-2.22,-7.27 -0.32,-15.11 3.27,-21.61 8.2,-0.19 16.3,1.57 24.14,3.84 7.41,2.19 14.71,4.88 21.52,8.56 1.57,0.86 3.11,1.76 4.54,2.83 -5.59,2.6 -10.04,7.35 -12.57,12.95 -1.62,2.91 -1.84,6.31 -3.05,9.38 -1.69,4.69 -4.49,9.24 -8.88,11.84 -6.4,-3.2 -13.19,-5.76 -20.28,-6.89 -2.91,-0.46 -5.84,-0.81 -8.78,-0.99 1.64,-4.29 2.68,-8.99 1.84,-13.58 -0.29,-2.18 -0.96,-4.29 -1.75,-6.33z"/>
    <path class="fil0" d="M146.23 16.86c1.7,-1.05 3.46,-2.05 5.29,-2.87 -0.53,6.01 0.91,12.15 4.02,17.31 1.15,1.89 2.44,3.72 4.14,5.15 4.48,4.49 8.17,10.37 8.19,16.91 -5,3.48 -10.02,7.02 -14.31,11.4 -3.54,3.4 -6.58,7.29 -9.3,11.37 -1.45,-1.55 -2.9,-3.13 -4.66,-4.34 -3.9,-2.68 -8.48,-4.18 -13.08,-5.09 -7.21,-2.02 -13.15,-7.19 -17.29,-13.31 3.57,-6.35 8.31,-11.98 13.29,-17.28 7.08,-7.34 15.03,-13.86 23.71,-19.25z"/>
    <path class="fil0" d="M265.14 17.58c0.5,-0.54 1.17,-0.17 1.7,0.09 6.53,3.49 12.23,8.31 17.54,13.42 5.89,5.69 11.2,11.99 15.68,18.85 1.05,1.75 2.25,3.42 3.01,5.33 -4.24,-0.18 -8.42,1.21 -11.89,3.6 -2.96,2.08 -5.84,4.36 -8.08,7.23 -3.43,3.9 -7.46,7.79 -12.73,8.87 -0.75,0.06 -1.82,0.57 -2.29,-0.26 -6.66,-9.57 -15.86,-17.17 -25.91,-22.97 0.92,-1.48 2.58,-2.29 3.59,-3.71 3.62,-3.93 5.97,-8.96 6.66,-14.26 1.92,-6.8 6.96,-12.32 12.72,-16.19z"/>
    <path class="fil0" d="M175.63 53.47c9.48,-5.05 20.13,-8.24 30.93,-8.07 9.09,-0.14 18.08,2.19 26.34,5.88 10.88,5.08 20.72,12.52 28.27,21.89 3.52,4.71 7.18,9.95 7.36,16.05 -41.29,-0.01 -82.59,0.01 -123.88,-0.01 0.33,-4.85 2.57,-9.3 5.26,-13.25 6.62,-9.42 15.66,-16.98 25.72,-22.49z"/>
    <path class="fil0" d="M102.98 65.98c1.39,-2.98 2.78,-5.98 4.75,-8.62 2.64,3.37 5.28,6.86 8.74,9.46 2.36,1.82 5.15,3.07 8.09,3.58 5.95,1.23 12.24,2.96 16.56,7.5 0.51,0.61 1.51,1.35 0.87,2.21 -1.61,2.78 -2.34,5.92 -2.55,9.11 -8.71,0.01 -17.41,-0.01 -26.11,0 -5.74,-0.37 -11.51,-0.15 -17.27,-0.17 1.08,-8 3.75,-15.69 6.92,-23.07z"/>
    <path class="fil0" d="M298.18 59.46c2.3,-0.66 4.76,-1.29 7.15,-0.85 2.01,2.96 3.32,6.31 4.65,9.61 2.54,6.8 4.57,13.81 5.68,21 -13.87,0 -27.73,-0.01 -41.6,0.01 -0.24,-3.85 -1.73,-7.43 -3.56,-10.77 6.11,-1.11 11.35,-5.04 15.26,-9.73 3.08,-4.24 7.51,-7.48 12.42,-9.27z"/>
   </g>
   <g>
    <path class="fil1" d="M0 67.34c4.88,-0.04 9.77,-0.03 14.66,-0.01 0.01,32.06 0.05,64.13 -0.02,96.19 8.17,0.1 16.35,0.02 24.53,0.04 0.03,4.08 0.02,8.16 0,12.24 -13.06,0.03 -26.11,0.04 -39.17,0 0.01,-36.16 0.01,-72.31 0,-108.46z"/>
    <path class="fil1" d="M47.64 67.33c4.89,-0.02 9.77,-0.03 14.66,0.01 -0.02,32.07 0,64.15 -0.01,96.22 8.17,0 16.35,0.01 24.52,0 0,4.08 -0.01,8.16 0,12.24 -13.06,0.04 -26.11,0.03 -39.17,0 -0.03,-36.15 -0.03,-72.31 0,-108.47z"/>
    <path class="fil1" d="M171.73 103.4c2.04,-1.18 4.47,-0.94 6.73,-0.9 3.68,0.22 7.6,1.47 9.91,4.51 1.37,1.65 2,3.72 2.75,5.69 1.65,-3.9 4.43,-7.62 8.53,-9.13 4.14,-1.56 8.85,-1.66 13.06,-0.35 3.25,1.37 6.76,3.44 7.86,7.02 1.15,3.59 1.17,7.41 1.45,11.14 0.05,18.06 -0.04,36.13 0.05,54.2 -4.58,0.07 -9.16,0.07 -13.74,0 0.09,-15.8 0.01,-31.6 0.04,-47.4 0.22,-2.92 0.13,-5.92 -0.58,-8.77 -0.56,-2.33 -2.43,-4.39 -4.85,-4.75 -2.69,-0.37 -5.95,-0.14 -7.8,2.11 -1.98,2.24 -2.21,5.38 -2.44,8.22 0.02,16.87 -0.05,33.73 0.03,50.59 -4.57,0.07 -9.16,0.07 -13.73,0 0.08,-12.31 0.01,-24.62 0.03,-36.93 0.07,-4.02 -0.16,-8.05 0.18,-12.05 -0.23,-3.05 -0.13,-6.32 -1.78,-9.02 -2.31,-4.3 -9.29,-4.25 -11.94,-0.3 -1.61,2.5 -1.95,5.6 -2.13,8.52 0.03,16.59 -0.05,33.19 0.04,49.78 -4.58,0.07 -9.16,0.07 -13.74,0 0.06,-23.95 0.06,-47.9 0,-71.85 4.5,-0.1 9,-0.02 13.5,-0.04 0.01,3.03 -0.03,6.07 0.02,9.11 2.21,-3.62 4.6,-7.47 8.55,-9.4z"/>
    <g>
     <path class="fil1" d="M240.37 106.15c2.92,-3.08 7.45,-4.36 11.58,-3.56 4.89,0.96 9.35,4.04 11.88,8.34 0.25,-2.41 0.21,-4.83 0.2,-7.24 4.42,0 8.84,0 13.26,0 -0.03,24.05 0.05,48.11 -0.05,72.17 -4.52,-0.06 -9.05,-0.06 -13.57,0 -0.11,-3.07 0.02,-6.15 -0.07,-9.22 -1.82,3.78 -3.93,8.28 -8.41,9.39 -3.92,0.75 -8.34,0.82 -11.8,-1.47 -3.8,-2.49 -6.13,-6.61 -7.66,-10.78 -2.38,-6.77 -2.94,-14 -3.25,-21.11 -0.07,-7.67 0.15,-15.41 1.69,-22.95 1.07,-4.87 2.66,-9.91 6.2,-13.57zm13.77 8.65l0 0c-2.78,0.54 -4.71,2.94 -5.68,5.45 -1.6,4.2 -1.7,8.75 -1.92,13.17 0.06,3.35 -0.15,6.7 0.19,10.04 -0.03,4.19 0.31,8.39 1.07,12.52 0.52,2.73 1.41,5.53 3.31,7.64 1.74,1.69 4.66,2.39 6.8,1.08 2.06,-1.21 3.08,-3.52 3.96,-5.63 2.24,-6.4 2.56,-13.32 2.15,-20.03 -0.41,-5.6 -0.63,-11.23 -1.59,-16.78 -0.61,-2.54 -1.41,-5.33 -3.62,-6.96 -1.37,-0.92 -3.13,-0.93 -4.67,-0.5z"/>
    </g>
    <path class="fil1" d="M308.98 105.63c2.78,-2.21 6.3,-3.64 9.89,-3.34 0.02,4.41 0.02,8.83 0,13.24 -2.48,0.1 -5.04,-0.33 -7.41,0.56 -2.92,0.89 -5.6,3.12 -6.31,6.19 -1.6,6.53 -1.33,13.31 -1.34,19.99 0,11.11 0,22.23 0,33.35 -4.55,0 -9.11,0 -13.66,0 0,-23.98 0,-47.95 0,-71.93 4.28,0 8.57,0 12.86,0 -0.01,2.54 0,5.1 -0.01,7.65 -0.04,0.56 0.06,1.09 0.31,1.6 1.55,-2.67 3.21,-5.38 5.67,-7.31z"/>
    <path class="fil1" d="M92.83 103.69c4.77,0.02 9.54,-0.06 14.31,0.04 -0.09,16.59 0,33.19 -0.05,49.79 -0.01,3.36 0.81,6.96 3.25,9.42 2.49,2.63 7.09,3.11 9.88,0.68 2.11,-2.1 2.81,-5.23 2.96,-8.1 -0.04,-17.27 0.05,-34.53 -0.04,-51.79 4.76,-0.1 9.53,-0.02 14.3,-0.04 0,12.45 0,24.91 0,37.37 -0.06,2.82 0.15,5.65 -0.16,8.46 -0.1,5.93 -0.24,12.09 -2.69,17.6 -1.65,3.85 -4.85,7.03 -8.79,8.51 -4.08,1.63 -8.56,1.73 -12.89,1.6 -5.68,-0.18 -11.69,-2.21 -15.15,-6.95 -4.01,-5.51 -4.54,-12.59 -4.92,-19.17 -0.01,-15.81 0,-31.61 -0.01,-47.42z"/>
   </g>
  </g>
 </g>
</svg>
