<?xml version="1.0" encoding="UTF-8"?>
<!DOCTYPE svg PUBLIC "-//W3C//DTD SVG 1.1//EN" "http://www.w3.org/Graphics/SVG/1.1/DTD/svg11.dtd">
<!-- Creator: CorelDRAW 2021 (64-Bit) -->
<svg xmlns="http://www.w3.org/2000/svg" xml:space="preserve" width="506px" height="354px" version="1.1" style="shape-rendering:geometricPrecision; text-rendering:geometricPrecision; image-rendering:optimizeQuality; fill-rule:evenodd; clip-rule:evenodd"
viewBox="0 0 35.63 24.93"
 xmlns:xlink="http://www.w3.org/1999/xlink"
 xmlns:xodm="http://www.corel.com/coreldraw/odm/2003">
 <defs>
  <style type="text/css">
   <![CDATA[
    .fil57 {fill:#0B79B1;fill-rule:nonzero}
    .fil58 {fill:#0B7AB2;fill-rule:nonzero}
    .fil59 {fill:#0B7BB3;fill-rule:nonzero}
    .fil60 {fill:#0C7BB3;fill-rule:nonzero}
    .fil61 {fill:#0C7BB4;fill-rule:nonzero}
    .fil62 {fill:#0C7CB4;fill-rule:nonzero}
    .fil63 {fill:#0C7CB5;fill-rule:nonzero}
    .fil64 {fill:#0C7DB5;fill-rule:nonzero}
    .fil65 {fill:#0C7DB6;fill-rule:nonzero}
    .fil66 {fill:#0C7EB6;fill-rule:nonzero}
    .fil67 {fill:#0D7EB6;fill-rule:nonzero}
    .fil68 {fill:#0D7EB7;fill-rule:nonzero}
    .fil69 {fill:#0D7FB7;fill-rule:nonzero}
    .fil70 {fill:#0D7FB8;fill-rule:nonzero}
    .fil71 {fill:#0D80B8;fill-rule:nonzero}
    .fil72 {fill:#0D80B9;fill-rule:nonzero}
    .fil73 {fill:#0D81B9;fill-rule:nonzero}
    .fil74 {fill:#0E81B9;fill-rule:nonzero}
    .fil75 {fill:#0E81BA;fill-rule:nonzero}
    .fil76 {fill:#0E82BA;fill-rule:nonzero}
    .fil77 {fill:#0E82BB;fill-rule:nonzero}
    .fil78 {fill:#0E83BB;fill-rule:nonzero}
    .fil79 {fill:#0E83BC;fill-rule:nonzero}
    .fil80 {fill:#0E84BC;fill-rule:nonzero}
    .fil81 {fill:#0E84BD;fill-rule:nonzero}
    .fil82 {fill:#0F84BD;fill-rule:nonzero}
    .fil83 {fill:#0F85BD;fill-rule:nonzero}
    .fil84 {fill:#0F85BE;fill-rule:nonzero}
    .fil85 {fill:#0F86BE;fill-rule:nonzero}
    .fil86 {fill:#0F86BF;fill-rule:nonzero}
    .fil87 {fill:#0F87BF;fill-rule:nonzero}
    .fil88 {fill:#0F87C0;fill-rule:nonzero}
    .fil56 {fill:#107CB3;fill-rule:nonzero}
    .fil89 {fill:#1087C0;fill-rule:nonzero}
    .fil90 {fill:#1088C0;fill-rule:nonzero}
    .fil91 {fill:#1088C1;fill-rule:nonzero}
    .fil92 {fill:#1089C1;fill-rule:nonzero}
    .fil93 {fill:#1089C2;fill-rule:nonzero}
    .fil94 {fill:#108AC2;fill-rule:nonzero}
    .fil95 {fill:#108AC3;fill-rule:nonzero}
    .fil96 {fill:#118BC3;fill-rule:nonzero}
    .fil97 {fill:#118BC4;fill-rule:nonzero}
    .fil98 {fill:#118CC4;fill-rule:nonzero}
    .fil99 {fill:#118CC5;fill-rule:nonzero}
    .fil100 {fill:#118DC6;fill-rule:nonzero}
    .fil101 {fill:#128EC7;fill-rule:nonzero}
    .fil102 {fill:#128EC8;fill-rule:nonzero}
    .fil103 {fill:#128FC8;fill-rule:nonzero}
    .fil104 {fill:#128FC9;fill-rule:nonzero}
    .fil105 {fill:#1290C9;fill-rule:nonzero}
    .fil106 {fill:#1290CA;fill-rule:nonzero}
    .fil107 {fill:#1291CA;fill-rule:nonzero}
    .fil108 {fill:#1391CA;fill-rule:nonzero}
    .fil109 {fill:#1391CB;fill-rule:nonzero}
    .fil110 {fill:#1392CB;fill-rule:nonzero}
    .fil111 {fill:#1392CC;fill-rule:nonzero}
    .fil112 {fill:#1393CC;fill-rule:nonzero}
    .fil113 {fill:#1393CD;fill-rule:nonzero}
    .fil114 {fill:#1394CD;fill-rule:nonzero}
    .fil55 {fill:#147EB4;fill-rule:nonzero}
    .fil115 {fill:#1494CD;fill-rule:nonzero}
    .fil116 {fill:#1494CE;fill-rule:nonzero}
    .fil117 {fill:#1495CE;fill-rule:nonzero}
    .fil118 {fill:#1495CF;fill-rule:nonzero}
    .fil119 {fill:#1496CF;fill-rule:nonzero}
    .fil120 {fill:#1496D0;fill-rule:nonzero}
    .fil121 {fill:#1497D0;fill-rule:nonzero}
    .fil122 {fill:#1497D1;fill-rule:nonzero}
    .fil123 {fill:#1597D1;fill-rule:nonzero}
    .fil124 {fill:#1598D1;fill-rule:nonzero}
    .fil125 {fill:#1598D2;fill-rule:nonzero}
    .fil126 {fill:#1599D2;fill-rule:nonzero}
    .fil127 {fill:#1599D3;fill-rule:nonzero}
    .fil128 {fill:#159AD3;fill-rule:nonzero}
    .fil129 {fill:#159AD4;fill-rule:nonzero}
    .fil130 {fill:#169AD4;fill-rule:nonzero}
    .fil131 {fill:#169BD4;fill-rule:nonzero}
    .fil132 {fill:#169BD5;fill-rule:nonzero}
    .fil133 {fill:#169CD5;fill-rule:nonzero}
    .fil134 {fill:#169CD6;fill-rule:nonzero}
    .fil135 {fill:#169DD6;fill-rule:nonzero}
    .fil136 {fill:#169DD7;fill-rule:nonzero}
    .fil137 {fill:#179DD7;fill-rule:nonzero}
    .fil138 {fill:#179ED8;fill-rule:nonzero}
    .fil0 {fill:#179FD9;fill-rule:nonzero}
    .fil54 {fill:#1880B5;fill-rule:nonzero}
    .fil53 {fill:#1D83B7;fill-rule:nonzero}
    .fil52 {fill:#2185B8;fill-rule:nonzero}
    .fil51 {fill:#2688B9;fill-rule:nonzero}
    .fil50 {fill:#2A8ABB;fill-rule:nonzero}
    .fil49 {fill:#2E8CBC;fill-rule:nonzero}
    .fil48 {fill:#338FBE;fill-rule:nonzero}
    .fil47 {fill:#3791BF;fill-rule:nonzero}
    .fil46 {fill:#3B94C0;fill-rule:nonzero}
    .fil45 {fill:#4096C2;fill-rule:nonzero}
    .fil44 {fill:#4498C3;fill-rule:nonzero}
    .fil43 {fill:#489BC5;fill-rule:nonzero}
    .fil42 {fill:#4D9DC6;fill-rule:nonzero}
    .fil41 {fill:#519FC7;fill-rule:nonzero}
    .fil40 {fill:#55A2C9;fill-rule:nonzero}
    .fil39 {fill:#5AA4CA;fill-rule:nonzero}
    .fil38 {fill:#5EA7CC;fill-rule:nonzero}
    .fil37 {fill:#62A9CD;fill-rule:nonzero}
    .fil36 {fill:#67ABCE;fill-rule:nonzero}
    .fil35 {fill:#6BAED0;fill-rule:nonzero}
    .fil34 {fill:#6FB0D1;fill-rule:nonzero}
    .fil33 {fill:#74B3D3;fill-rule:nonzero}
    .fil32 {fill:#78B5D4;fill-rule:nonzero}
    .fil31 {fill:#7DB7D5;fill-rule:nonzero}
    .fil30 {fill:#81BAD7;fill-rule:nonzero}
    .fil29 {fill:#85BCD8;fill-rule:nonzero}
    .fil28 {fill:#8ABFD9;fill-rule:nonzero}
    .fil27 {fill:#8EC1DB;fill-rule:nonzero}
    .fil26 {fill:#92C3DC;fill-rule:nonzero}
    .fil25 {fill:#97C6DE;fill-rule:nonzero}
    .fil24 {fill:#9BC8DF;fill-rule:nonzero}
    .fil23 {fill:#9FCAE0;fill-rule:nonzero}
    .fil22 {fill:#A4CDE2;fill-rule:nonzero}
    .fil21 {fill:#A8CFE3;fill-rule:nonzero}
    .fil20 {fill:#ACD2E5;fill-rule:nonzero}
    .fil19 {fill:#B1D4E6;fill-rule:nonzero}
    .fil18 {fill:#B5D6E7;fill-rule:nonzero}
    .fil17 {fill:#B9D9E9;fill-rule:nonzero}
    .fil16 {fill:#BEDBEA;fill-rule:nonzero}
    .fil15 {fill:#C2DEEC;fill-rule:nonzero}
    .fil14 {fill:#C6E0ED;fill-rule:nonzero}
    .fil13 {fill:#CBE2EE;fill-rule:nonzero}
    .fil12 {fill:#CFE5F0;fill-rule:nonzero}
    .fil11 {fill:#D4E7F1;fill-rule:nonzero}
    .fil10 {fill:#D8EAF2;fill-rule:nonzero}
    .fil9 {fill:#DCECF4;fill-rule:nonzero}
    .fil8 {fill:#E1EEF5;fill-rule:nonzero}
    .fil7 {fill:#E5F1F7;fill-rule:nonzero}
    .fil6 {fill:#E9F3F8;fill-rule:nonzero}
    .fil5 {fill:#EEF5F9;fill-rule:nonzero}
    .fil4 {fill:#F2F8FB;fill-rule:nonzero}
    .fil3 {fill:#F6FAFC;fill-rule:nonzero}
    .fil2 {fill:#FBFDFE;fill-rule:nonzero}
    .fil1 {fill:white;fill-rule:nonzero}
   ]]>
  </style>
     <clipPath id="id0" style="clip-rule:nonzero">
      <path d="M28.67 0.09c0.52,-0.26 1.15,0.06 1.39,0.56 1.78,3.19 3.56,6.38 5.34,9.58 0.31,0.45 0.34,1.15 -0.15,1.5 -0.79,0.54 -1.67,0.93 -2.49,1.43 -0.59,0.3 -1.15,0.72 -1.8,0.89 -0.52,0.09 -0.86,-0.37 -1.18,-0.7 -0.92,1.05 -2.01,1.97 -3.29,2.54 -0.16,0.53 -0.27,1.11 -0.67,1.51 -0.4,0.48 -1.04,0.6 -1.61,0.76 -0.21,1.14 -1.14,2 -2.29,2.08 -0.12,1.18 -1.13,1.97 -2.25,2.13 -0.17,0.63 -0.43,1.31 -1.04,1.65 -0.63,0.46 -1.44,0.36 -2.15,0.17 -0.41,0.38 -0.89,0.81 -1.5,0.73 -0.89,0 -1.46,-0.88 -1.46,-1.7 -0.6,0.24 -1.32,0.48 -1.9,0.05 -0.61,-0.35 -0.73,-1.1 -0.65,-1.75 -0.63,0.14 -1.39,0.18 -1.84,-0.37 -0.5,-0.48 -0.43,-1.22 -0.27,-1.84 -0.7,0.02 -1.52,-0.17 -1.81,-0.89 -0.39,-0.73 0.04,-1.52 0.54,-2.07 -0.57,-1.04 -1.06,-2.12 -1.76,-3.09 -0.42,0.6 -1.05,1.5 -1.89,1.03 -1.19,-0.85 -2.33,-1.76 -3.47,-2.66 -0.54,-0.35 -0.63,-1.11 -0.2,-1.57 2.15,-2.82 4.34,-5.61 6.49,-8.43 0.27,-0.33 0.53,-0.75 0.99,-0.85 0.55,-0.13 0.99,0.32 1.4,0.62 0.93,0.76 1.92,1.44 2.83,2.21 0.37,0.27 0.35,0.76 0.43,1.17 0.7,0.22 1.39,0.5 2.11,0.66 0.87,-0.26 1.74,-0.54 2.64,-0.65 2.39,-0.32 4.73,-0.92 7.1,-1.38 -0.04,-1.04 0.97,-1.43 1.73,-1.84 0.9,-0.48 1.77,-1.02 2.68,-1.48zm-17.58 6.33l0 0c-1.47,1.94 -2.98,3.85 -4.45,5.8 0.69,0.97 1.26,2.02 1.77,3.09 0.58,-0.17 1.23,-0.41 1.79,-0.04 0.65,0.33 0.78,1.1 0.76,1.76 0.54,-0.07 1.17,-0.17 1.62,0.24 0.53,0.36 0.59,1.04 0.6,1.62 0.6,-0.05 1.32,-0.12 1.77,0.38 0.42,0.38 0.41,0.97 0.44,1.49 0.62,-0.08 1.36,-0.11 1.81,0.43 0.58,0.55 0.32,1.38 0.23,2.07 0.56,-0.22 1.23,-0.75 0.9,-1.42 -0.66,-0.76 -1.56,-1.26 -2.22,-2.02 -0.38,-0.43 0.24,-1.14 0.72,-0.88 0.94,0.58 1.62,1.5 2.58,2.05 0.72,0.24 1.46,-0.47 1.2,-1.2 -0.72,-0.91 -1.79,-1.49 -2.56,-2.36 -0.38,-0.47 0.34,-1.21 0.81,-0.83 0.97,0.68 1.76,1.58 2.74,2.25 0.67,0.38 1.49,-0.37 1.31,-1.08 -0.85,-1.04 -2.06,-1.7 -2.93,-2.71 -0.21,-0.48 0.36,-1.06 0.83,-0.77 1.02,0.71 1.87,1.65 2.88,2.38 0.55,0.46 1.48,0.01 1.48,-0.69 0.07,-0.46 -0.33,-0.77 -0.63,-1.05 -2.33,-1.99 -4.67,-3.98 -7,-5.99 -1.05,0.58 -2.05,1.27 -3.02,1.98 -0.65,0.48 -1.54,0.67 -2.3,0.35 -0.32,-0.13 -0.67,-0.41 -0.62,-0.79 0.35,-1.47 1.18,-2.76 1.9,-4.07 -0.61,-0.18 -1.2,-0.4 -1.81,-0.56 -0.29,0.07 -0.41,0.38 -0.6,0.57z"/>
     </clipPath>
 </defs>
 <g id="Capa_x0020_1">
  <metadata id="CorelCorpID_0Corel-Layer"/>
  <g id="_2056547686704">
   <g>
    <g style="clip-path:url(#id0)">
     <polygon class="fil0" points="-1.88,9.31 19.87,-10.68 38.13,9.18 16.37,29.17 "/>
     <polygon id="_1" class="fil1" points="18.21,15.58 18.3,15.49 18.41,15.61 18.32,15.7 "/>
     <path id="_2" class="fil2" d="M18.24 15.58l0.08 0.08 0.06 -0.05 -0.07 -0.08 -0.07 0.05zm-0.09 -0.01l0.15 -0.14 0.18 0.19 -0.16 0.14 -0.17 -0.19z"/>
     <path id="_3" class="fil3" d="M18.18 15.57l0.14 0.16 0.12 -0.11 -0.14 -0.16 -0.12 0.11zm-0.1 -0.01l0.21 -0.2 0.25 0.27 -0.21 0.2 -0.25 -0.27z"/>
     <path id="_4" class="fil4" d="M18.11 15.56l0.22 0.24 0.18 -0.17 -0.21 -0.24 -0.19 0.17zm-0.1 -0.01l0.28 -0.26 0.32 0.35 -0.28 0.26 -0.32 -0.35z"/>
     <path id="_5" class="fil5" d="M18.05 15.55l0.28 0.31 0.25 -0.22 -0.29 -0.31 -0.24 0.22zm-0.1 -0.01l0.34 -0.31 0.39 0.42 -0.34 0.31 -0.39 -0.42z"/>
     <path id="_6" class="fil6" d="M17.98 15.54l0.35 0.39 0.31 -0.28 -0.35 -0.39 -0.31 0.28zm-0.1 -0.01l0.4 -0.37 0.46 0.5 -0.4 0.37 -0.46 -0.5z"/>
     <path id="_7" class="fil7" d="M17.91 15.53l0.43 0.47 0.37 -0.34 -0.43 -0.47 -0.37 0.34zm-0.1 -0.01l0.47 -0.43 0.53 0.58 -0.46 0.43 -0.54 -0.58z"/>
     <path id="_8" class="fil8" d="M17.85 15.52l0.49 0.54 0.44 -0.39 -0.5 -0.54 -0.43 0.39zm-0.1 -0.01l0.52 -0.48 0.6 0.65 -0.52 0.48 -0.6 -0.65z"/>
     <path id="_9" class="fil9" d="M17.78 15.51l0.57 0.62 0.49 -0.45 -0.57 -0.62 -0.49 0.45zm-0.1 -0.01l0.59 -0.54 0.67 0.73 -0.58 0.54 -0.68 -0.73z"/>
     <path id="_10" class="fil10" d="M17.71 15.5l0.64 0.7 0.56 -0.51 -0.64 -0.7 -0.56 0.51zm-0.1 -0.01l0.65 -0.6 0.75 0.81 -0.65 0.6 -0.75 -0.81z"/>
     <path id="_11" class="fil11" d="M17.65 15.49l0.71 0.77 0.61 -0.56 -0.71 -0.77 -0.61 0.56zm-0.1 -0.01l0.71 -0.65 0.81 0.88 -0.71 0.66 -0.81 -0.89z"/>
     <path id="_12" class="fil12" d="M17.58 15.48l0.78 0.85 0.68 -0.62 -0.78 -0.85 -0.68 0.62zm-0.1 -0.01l0.77 -0.71 0.89 0.96 -0.77 0.71 -0.89 -0.96z"/>
     <path id="_13" class="fil13" d="M17.52 15.47l0.85 0.93 0.74 -0.68 -0.85 -0.93 -0.74 0.68zm-0.1 -0.01l0.83 -0.77 0.96 1.04 -0.84 0.77 -0.95 -1.04z"/>
     <path id="_14" class="fil14" d="M17.45 15.46l0.92 1.01 0.8 -0.74 -0.92 -1.01 -0.8 0.74zm-0.1 -0.01l0.89 -0.83 1.03 1.12 -0.89 0.83 -1.03 -1.12z"/>
     <path id="_15" class="fil15" d="M17.38 15.45l1 1.08 0.86 -0.79 -0.99 -1.08 -0.87 0.79zm-0.1 -0.01l0.96 -0.88 1.1 1.19 -0.96 0.88 -1.1 -1.19z"/>
     <path id="_16" class="fil16" d="M17.32 15.44l1.06 1.16 0.93 -0.85 -1.07 -1.16 -0.92 0.85zm-0.1 -0.01l1.01 -0.94 1.18 1.27 -1.02 0.94 -1.17 -1.27z"/>
     <path id="_17" class="fil17" d="M17.25 15.43l1.14 1.24 0.98 -0.91 -1.13 -1.24 -0.99 0.91zm-0.1 -0.01l1.08 -1 1.24 1.35 -1.08 1 -1.24 -1.35z"/>
     <path id="_18" class="fil18" d="M17.18 15.42l1.21 1.31 1.05 -0.96 -1.21 -1.31 -1.05 0.96zm-0.1 -0.01l1.15 -1.05 1.31 1.42 -1.14 1.05 -1.32 -1.42z"/>
     <path id="_19" class="fil19" d="M17.12 15.41l1.27 1.39 1.12 -1.02 -1.28 -1.39 -1.11 1.02zm-0.1 -0.01l1.2 -1.11 1.38 1.5 -1.2 1.11 -1.38 -1.5z"/>
     <path id="_20" class="fil20" d="M17.05 15.4l1.35 1.47 1.17 -1.08 -1.35 -1.47 -1.17 1.08zm-0.1 -0.02l1.27 -1.16 1.45 1.59 -1.26 1.16 -1.46 -1.59z"/>
     <path id="_21" class="fil21" d="M16.98 15.39l1.42 1.54 1.24 -1.13 -1.42 -1.54 -1.24 1.13zm-0.09 -0.02l1.32 -1.21 1.53 1.66 -1.33 1.21 -1.52 -1.66z"/>
     <path id="_22" class="fil22" d="M16.92 15.38l1.49 1.62 1.29 -1.19 -1.49 -1.62 -1.29 1.19zm-0.1 -0.02l1.39 -1.27 1.59 1.74 -1.38 1.27 -1.6 -1.74z"/>
     <path id="_23" class="fil23" d="M16.85 15.37l1.56 1.7 1.36 -1.25 -1.56 -1.7 -1.36 1.25zm-0.1 -0.02l1.45 -1.33 1.67 1.82 -1.45 1.33 -1.67 -1.82z"/>
     <path id="_24" class="fil24" d="M16.79 15.36l1.63 1.78 1.42 -1.31 -1.64 -1.77 -1.41 1.3zm-0.1 -0.02l1.51 -1.39 1.74 1.9 -1.52 1.39 -1.73 -1.9z"/>
     <path id="_25" class="fil25" d="M16.72 15.35l1.7 1.85 1.48 -1.36 -1.7 -1.85 -1.48 1.36zm-0.1 -0.02l1.57 -1.44 1.81 1.97 -1.57 1.44 -1.81 -1.97z"/>
     <path id="_26" class="fil26" d="M16.65 15.34l1.78 1.93 1.54 -1.42 -1.77 -1.93 -1.55 1.42zm-0.1 -0.02l1.64 -1.5 1.88 2.05 -1.64 1.5 -1.88 -2.05z"/>
     <path id="_27" class="fil27" d="M16.59 15.33l1.84 2.01 1.61 -1.48 -1.85 -2.01 -1.6 1.48zm-0.1 -0.02l1.69 -1.56 1.96 2.13 -1.7 1.56 -1.95 -2.13z"/>
     <path id="_28" class="fil28" d="M16.52 15.32l1.92 2.08 1.66 -1.53 -1.91 -2.08 -1.67 1.53zm-0.1 -0.02l1.76 -1.61 2.02 2.2 -1.76 1.61 -2.02 -2.2z"/>
     <path id="_29" class="fil29" d="M16.45 15.31l1.99 2.16 1.73 -1.59 -1.99 -2.16 -1.73 1.59zm-0.1 -0.02l1.82 -1.67 2.1 2.28 -1.82 1.67 -2.1 -2.28z"/>
     <path id="_30" class="fil30" d="M16.39 15.3l2.06 2.24 1.78 -1.65 -2.05 -2.24 -1.79 1.65zm-0.1 -0.02l1.88 -1.73 2.16 2.36 -1.88 1.73 -2.16 -2.36z"/>
     <path id="_31" class="fil31" d="M16.32 15.29l2.13 2.31 1.85 -1.7 -2.13 -2.31 -1.85 1.7zm-0.1 -0.02l1.95 -1.78 2.23 2.43 -1.94 1.78 -2.24 -2.43z"/>
     <path id="_32" class="fil32" d="M16.25 15.28l2.2 2.39 1.92 -1.76 -2.2 -2.39 -1.92 1.76zm-0.09 -0.02l2 -1.84 2.31 2.51 -2.01 1.84 -2.3 -2.51z"/>
     <path id="_33" class="fil33" d="M16.19 15.27l2.27 2.47 1.97 -1.82 -2.27 -2.47 -1.97 1.82zm-0.1 -0.02l2.07 -1.9 2.37 2.59 -2.06 1.9 -2.38 -2.59z"/>
     <path id="_34" class="fil34" d="M16.12 15.26l2.34 2.54 2.04 -1.87 -2.34 -2.54 -2.04 1.87zm-0.1 -0.02l2.13 -1.95 2.45 2.66 -2.13 1.96 -2.45 -2.67z"/>
     <path id="_35" class="fil35" d="M16.06 15.25l2.41 2.62 2.1 -1.93 -2.42 -2.62 -2.09 1.93zm-0.1 -0.02l2.19 -2.01 2.52 2.74 -2.19 2.01 -2.52 -2.74z"/>
     <path id="_36" class="fil36" d="M15.99 15.24l2.48 2.7 2.16 -1.99 -2.48 -2.7 -2.16 1.99zm-0.1 -0.02l2.25 -2.07 2.59 2.82 -2.25 2.07 -2.59 -2.82z"/>
     <path id="_37" class="fil37" d="M15.92 15.23l2.56 2.78 2.22 -2.05 -2.56 -2.78 -2.22 2.05zm-0.1 -0.02l2.32 -2.13 2.66 2.9 -2.32 2.13 -2.66 -2.9z"/>
     <path id="_38" class="fil38" d="M15.86 15.22l2.62 2.85 2.29 -2.1 -2.63 -2.85 -2.28 2.1zm-0.1 -0.02l2.37 -2.18 2.73 2.97 -2.37 2.18 -2.73 -2.97z"/>
     <path id="_39" class="fil39" d="M15.79 15.21l2.7 2.93 2.34 -2.16 -2.69 -2.93 -2.35 2.16zm-0.1 -0.02l2.44 -2.24 2.8 3.05 -2.44 2.24 -2.8 -3.05z"/>
     <path id="_40" class="fil40" d="M15.72 15.2l2.77 3.01 2.41 -2.22 -2.77 -3.01 -2.41 2.22zm-0.1 -0.02l2.5 -2.3 2.88 3.13 -2.5 2.3 -2.88 -3.13z"/>
     <path id="_41" class="fil41" d="M15.66 15.19l2.84 3.08 2.46 -2.26 -2.83 -3.09 -2.47 2.27zm-0.1 -0.02l2.56 -2.35 2.94 3.2 -2.56 2.35 -2.94 -3.2z"/>
     <path id="_42" class="fil42" d="M15.59 15.17l2.91 3.17 2.53 -2.32 -2.91 -3.17 -2.53 2.32zm-0.1 -0.01l2.62 -2.41 3.02 3.28 -2.62 2.41 -3.02 -3.28z"/>
     <path id="_43" class="fil43" d="M15.53 15.16l2.98 3.25 2.59 -2.38 -2.98 -3.25 -2.59 2.38zm-0.1 -0.01l2.68 -2.47 3.09 3.36 -2.69 2.47 -3.08 -3.36z"/>
     <path id="_44" class="fil44" d="M15.46 15.15l3.05 3.32 2.65 -2.43 -3.05 -3.32 -2.65 2.43zm-0.1 -0.01l2.75 -2.52 3.15 3.43 -2.74 2.52 -3.16 -3.43z"/>
     <path id="_45" class="fil45" d="M15.39 15.14l3.12 3.4 2.72 -2.49 -3.12 -3.4 -2.72 2.49zm-0.1 -0.01l2.81 -2.58 3.23 3.51 -2.81 2.58 -3.23 -3.51z"/>
     <path id="_46" class="fil46" d="M15.33 15.13l3.19 3.48 2.78 -2.55 -3.2 -3.48 -2.77 2.55zm-0.1 -0.01l2.87 -2.64 3.3 3.59 -2.87 2.64 -3.3 -3.59z"/>
     <path id="_47" class="fil47" d="M15.26 15.12l3.26 3.56 2.84 -2.61 -3.26 -3.56 -2.84 2.61zm-0.1 -0.01l2.93 -2.7 3.37 3.67 -2.93 2.7 -3.37 -3.67z"/>
     <path id="_48" class="fil48" d="M15.19 15.11l3.34 3.63 2.9 -2.66 -3.34 -3.63 -2.9 2.66zm-0.1 -0.01l3 -2.75 3.44 3.74 -2.99 2.75 -3.45 -3.74z"/>
     <path id="_49" class="fil49" d="M15.13 15.1l3.4 3.71 2.96 -2.72 -3.4 -3.71 -2.96 2.72zm-0.1 -0.01l3.05 -2.81 3.51 3.82 -3.05 2.81 -3.51 -3.82z"/>
     <path id="_50" class="fil50" d="M15.06 15.09l3.48 3.79 3.02 -2.78 -3.48 -3.79 -3.02 2.78zm-0.1 -0.01l3.12 -2.87 3.58 3.9 -3.12 2.87 -3.58 -3.9z"/>
     <path id="_51" class="fil51" d="M14.99 15.08l3.55 3.86 3.09 -2.83 -3.55 -3.86 -3.09 2.83zm-0.09 -0.01l3.17 -2.92 3.66 3.97 -3.18 2.92 -3.65 -3.97z"/>
     <path id="_52" class="fil52" d="M14.93 15.07l3.62 3.94 3.14 -2.89 -3.61 -3.94 -3.15 2.89zm-0.1 -0.01l3.24 -2.98 3.72 4.05 -3.24 2.98 -3.72 -4.05z"/>
     <path id="_53" class="fil53" d="M14.86 15.06l3.69 4.02 3.21 -2.95 -3.69 -4.02 -3.21 2.95zm-0.1 -0.01l3.3 -3.04 3.8 4.13 -3.3 3.04 -3.8 -4.13z"/>
     <path id="_54" class="fil54" d="M14.8 15.05l3.76 4.09 3.27 -3 -3.76 -4.09 -3.27 3zm-0.1 -0.01l3.36 -3.09 3.87 4.2 -3.37 3.09 -3.86 -4.2z"/>
     <path id="_55" class="fil55" d="M14.73 15.04l3.83 4.17 3.33 -3.06 -3.83 -4.17 -3.33 3.06zm-0.1 -0.01l3.42 -3.15 3.94 4.28 -3.42 3.15 -3.94 -4.28z"/>
     <path id="_56" class="fil56" d="M14.66 15.03l3.91 4.25 3.39 -3.12 -3.9 -4.25 -3.4 3.12zm-0.1 -0.01l3.49 -3.21 4.01 4.36 -3.49 3.21 -4.01 -4.36z"/>
     <path id="_57" class="fil57" d="M14.6 15.02l3.97 4.32 3.46 -3.17 -3.98 -4.32 -3.45 3.17zm-0.1 -0.01l3.55 -3.27 4.08 4.44 -3.55 3.27 -4.08 -4.44z"/>
     <path id="_58" class="fil57" d="M14.53 15.01l4.04 4.4 3.52 -3.23 -4.04 -4.4 -3.52 3.23zm-0.1 -0.01l3.61 -3.32 4.15 4.51 -3.61 3.32 -4.15 -4.51z"/>
     <path id="_59" class="fil57" d="M14.46 15l4.12 4.48 3.58 -3.29 -4.12 -4.48 -3.58 3.29zm-0.1 -0.01l3.68 -3.38 4.22 4.6 -3.67 3.37 -4.23 -4.59z"/>
     <path id="_60" class="fil58" d="M14.4 14.99l4.18 4.56 3.64 -3.35 -4.18 -4.56 -3.64 3.35zm-0.1 -0.02l3.73 -3.43 4.29 4.68 -3.73 3.43 -4.29 -4.68z"/>
     <path id="_61" class="fil58" d="M14.33 14.98l4.26 4.63 3.7 -3.4 -4.26 -4.63 -3.7 3.4zm-0.1 -0.02l3.8 -3.48 4.36 4.75 -3.79 3.48 -4.37 -4.75z"/>
     <path id="_62" class="fil58" d="M14.27 14.97l4.32 4.71 3.77 -3.46 -4.33 -4.71 -3.76 3.46zm-0.1 -0.02l3.85 -3.54 4.44 4.83 -3.86 3.54 -4.43 -4.83z"/>
     <path id="_63" class="fil58" d="M14.2 14.96l4.4 4.79 3.82 -3.52 -4.4 -4.79 -3.82 3.52zm-0.1 -0.02l3.92 -3.6 4.5 4.91 -3.92 3.6 -4.5 -4.91z"/>
     <path id="_64" class="fil58" d="M14.13 14.95l4.47 4.86 3.89 -3.57 -4.47 -4.86 -3.89 3.57zm-0.1 -0.02l3.98 -3.65 4.58 4.98 -3.98 3.65 -4.58 -4.98z"/>
     <path id="_65" class="fil59" d="M14.07 14.94l4.54 4.94 3.95 -3.63 -4.54 -4.94 -3.95 3.63zm-0.1 -0.02l4.04 -3.71 4.65 5.06 -4.05 3.71 -4.64 -5.06z"/>
     <path id="_66" class="fil60" d="M14 14.93l4.61 5.02 4.01 -3.69 -4.61 -5.02 -4.01 3.69zm-0.1 -0.02l4.1 -3.77 4.72 5.14 -4.1 3.77 -4.72 -5.14z"/>
     <path id="_67" class="fil60" d="M13.93 14.92l4.69 5.09 4.07 -3.74 -4.68 -5.09 -4.08 3.74zm-0.1 -0.02l4.17 -3.82 4.79 5.21 -4.17 3.82 -4.79 -5.21z"/>
     <path id="_68" class="fil60" d="M13.87 14.91l4.75 5.17 4.14 -3.8 -4.76 -5.17 -4.13 3.8zm-0.1 -0.02l4.22 -3.88 4.86 5.29 -4.22 3.88 -4.86 -5.29z"/>
     <path id="_69" class="fil60" d="M13.8 14.9l4.83 5.25 4.19 -3.86 -4.82 -5.25 -4.2 3.86zm-0.1 -0.02l4.29 -3.94 4.93 5.37 -4.29 3.94 -4.93 -5.37z"/>
     <path id="_70" class="fil61" d="M13.73 14.89l4.9 5.33 4.26 -3.92 -4.9 -5.33 -4.26 3.92zm-0.1 -0.02l4.36 -4 5 5.45 -4.35 4 -5.01 -5.45z"/>
     <path id="_71" class="fil62" d="M13.67 14.88l4.96 5.4 4.32 -3.97 -4.96 -5.4 -4.32 3.97zm-0.1 -0.02l4.41 -4.05 5.07 5.52 -4.41 4.05 -5.07 -5.52z"/>
     <path id="_72" class="fil62" d="M13.6 14.87l5.04 5.48 4.38 -4.03 -5.04 -5.48 -4.38 4.03zm-0.1 -0.02l4.48 -4.11 5.14 5.6 -4.47 4.11 -5.15 -5.6z"/>
     <path id="_73" class="fil62" d="M13.54 14.86l5.1 5.56 4.45 -4.09 -5.11 -5.56 -4.44 4.09zm-0.1 -0.02l4.53 -4.17 5.22 5.68 -4.54 4.17 -5.21 -5.68z"/>
     <path id="_74" class="fil62" d="M13.47 14.85l5.18 5.63 4.5 -4.14 -5.18 -5.63 -4.5 4.14zm-0.1 -0.02l4.6 -4.22 5.28 5.75 -4.59 4.22 -5.29 -5.75z"/>
     <path id="_75" class="fil63" d="M13.4 14.84l5.25 5.71 4.57 -4.2 -5.25 -5.71 -4.57 4.2zm-0.1 -0.02l4.66 -4.28 5.36 5.83 -4.66 4.28 -5.36 -5.83z"/>
     <path id="_76" class="fil64" d="M13.34 14.83l5.32 5.79 4.63 -4.26 -5.33 -5.79 -4.62 4.26zm-0.1 -0.02l4.72 -4.34 5.43 5.91 -4.73 4.34 -5.42 -5.91z"/>
     <path id="_77" class="fil64" d="M13.27 14.82l5.39 5.86 4.69 -4.31 -5.39 -5.86 -4.69 4.31zm-0.1 -0.02l4.78 -4.39 5.5 5.98 -4.78 4.39 -5.5 -5.98z"/>
     <path id="_78" class="fil64" d="M13.2 14.81l5.47 5.94 4.75 -4.37 -5.46 -5.94 -4.76 4.37zm-0.1 -0.02l4.85 -4.45 5.57 6.06 -4.85 4.45 -5.57 -6.06z"/>
     <path id="_79" class="fil64" d="M13.14 14.8l5.53 6.02 4.81 -4.43 -5.53 -6.02 -4.81 4.43zm-0.1 -0.02l4.9 -4.51 5.64 6.14 -4.9 4.51 -5.64 -6.14z"/>
     <path id="_80" class="fil65" d="M13.07 14.79l5.61 6.09 4.87 -4.48 -5.6 -6.09 -4.88 4.48zm-0.1 -0.02l4.97 -4.57 5.71 6.22 -4.97 4.57 -5.71 -6.22z"/>
     <path id="_81" class="fil66" d="M13 14.78l5.68 6.17 4.94 -4.53 -5.68 -6.18 -4.94 4.54zm-0.09 -0.02l5.02 -4.62 5.79 6.29 -5.03 4.62 -5.78 -6.29z"/>
     <path id="_82" class="fil67" d="M12.94 14.76l5.75 6.26 4.99 -4.59 -5.74 -6.26 -5 4.59zm-0.1 -0.01l5.09 -4.68 5.85 6.37 -5.09 4.68 -5.85 -6.37z"/>
     <path id="_83" class="fil67" d="M12.87 14.75l5.82 6.34 5.06 -4.65 -5.82 -6.34 -5.06 4.65zm-0.1 -0.01l5.16 -4.74 5.92 6.45 -5.15 4.74 -5.93 -6.45z"/>
     <path id="_84" class="fil67" d="M12.81 14.74l5.88 6.41 5.13 -4.7 -5.89 -6.41 -5.12 4.7zm-0.1 -0.01l5.21 -4.79 6 6.52 -5.22 4.79 -5.99 -6.52z"/>
     <path id="_85" class="fil68" d="M12.74 14.73l5.96 6.49 5.18 -4.76 -5.96 -6.49 -5.18 4.76zm-0.1 -0.01l5.28 -4.85 6.06 6.6 -5.27 4.85 -6.07 -6.6z"/>
     <path id="_86" class="fil69" d="M12.67 14.72l6.03 6.57 5.25 -4.82 -6.03 -6.57 -5.25 4.82zm-0.1 -0.01l5.34 -4.91 6.14 6.68 -5.34 4.91 -6.14 -6.68z"/>
     <path id="_87" class="fil69" d="M12.61 14.71l6.1 6.64 5.31 -4.87 -6.11 -6.64 -5.3 4.87zm-0.1 -0.01l5.4 -4.96 6.21 6.75 -5.4 4.96 -6.21 -6.75z"/>
     <path id="_88" class="fil69" d="M12.54 14.7l6.17 6.72 5.37 -4.93 -6.17 -6.72 -5.37 4.93zm-0.1 -0.01l5.46 -5.02 6.28 6.83 -5.46 5.02 -6.28 -6.83z"/>
     <path id="_89" class="fil69" d="M12.47 14.69l6.25 6.8 5.43 -4.99 -6.25 -6.8 -5.43 4.99zm-0.1 -0.01l5.53 -5.08 6.35 6.91 -5.53 5.08 -6.35 -6.91z"/>
     <path id="_90" class="fil70" d="M12.41 14.68l6.31 6.87 5.49 -5.04 -6.31 -6.87 -5.49 5.04zm-0.1 -0.01l5.58 -5.13 6.42 6.98 -5.58 5.13 -6.42 -6.98z"/>
     <path id="_91" class="fil70" d="M12.34 14.67l6.39 6.95 5.55 -5.1 -6.38 -6.95 -5.56 5.1zm-0.1 -0.01l5.65 -5.19 6.49 7.06 -5.65 5.19 -6.49 -7.06z"/>
     <path id="_92" class="fil71" d="M12.28 14.66l6.45 7.03 5.62 -5.16 -6.46 -7.03 -5.61 5.16zm-0.1 -0.01l5.7 -5.25 6.57 7.14 -5.71 5.25 -6.56 -7.14z"/>
     <path id="_93" class="fil71" d="M12.21 14.65l6.53 7.11 5.67 -5.22 -6.52 -7.11 -5.68 5.22zm-0.1 -0.01l5.77 -5.31 6.63 7.22 -5.77 5.31 -6.63 -7.22z"/>
     <path id="_94" class="fil71" d="M12.14 14.64l6.6 7.18 5.74 -5.27 -6.6 -7.18 -5.74 5.27zm-0.1 -0.01l5.83 -5.36 6.71 7.29 -5.83 5.36 -6.71 -7.29z"/>
     <path id="_95" class="fil72" d="M12.08 14.63l6.67 7.26 5.8 -5.33 -6.67 -7.26 -5.8 5.33zm-0.1 -0.01l5.89 -5.42 6.78 7.37 -5.9 5.42 -6.77 -7.37z"/>
     <path id="_96" class="fil72" d="M12.01 14.62l6.74 7.34 5.86 -5.39 -6.74 -7.34 -5.86 5.39zm-0.1 -0.01l5.96 -5.48 6.84 7.45 -5.95 5.48 -6.85 -7.45z"/>
     <path id="_97" class="fil73" d="M11.94 14.61l6.81 7.41 5.93 -5.44 -6.81 -7.41 -5.93 5.44zm-0.1 -0.01l6.02 -5.53 6.92 7.52 -6.02 5.53 -6.92 -7.52z"/>
     <path id="_98" class="fil73" d="M11.88 14.6l6.88 7.49 5.99 -5.5 -6.89 -7.49 -5.98 5.5zm-0.1 -0.01l6.08 -5.59 6.98 7.6 -6.07 5.59 -6.99 -7.6z"/>
     <path id="_99" class="fil74" d="M11.81 14.59l6.95 7.57 6.05 -5.56 -6.95 -7.57 -6.05 5.56zm-0.1 -0.01l6.14 -5.65 7.06 7.68 -6.14 5.65 -7.06 -7.68z"/>
     <path id="_100" class="fil75" d="M11.74 14.58l7.03 7.64 6.11 -5.61 -7.03 -7.64 -6.11 5.61zm-0.09 -0.02l6.2 -5.69 7.13 7.76 -6.2 5.69 -7.13 -7.76z"/>
     <path id="_101" class="fil75" d="M11.68 14.57l7.09 7.72 6.17 -5.67 -7.09 -7.72 -6.17 5.67zm-0.1 -0.02l6.26 -5.75 7.2 7.84 -6.26 5.75 -7.2 -7.84z"/>
     <path id="_102" class="fil76" d="M11.61 14.56l7.17 7.8 6.23 -5.73 -7.17 -7.8 -6.23 5.73zm-0.1 -0.02l6.33 -5.81 7.27 7.92 -6.33 5.81 -7.27 -7.92z"/>
     <path id="_103" class="fil76" d="M11.55 14.55l7.23 7.87 6.3 -5.78 -7.24 -7.87 -6.29 5.78zm-0.1 -0.02l6.38 -5.87 7.35 8 -6.39 5.87 -7.34 -8z"/>
     <path id="_104" class="fil76" d="M11.48 14.54l7.31 7.95 6.35 -5.84 -7.3 -7.95 -6.36 5.84zm-0.1 -0.02l6.45 -5.92 7.41 8.07 -6.45 5.92 -7.41 -8.07z"/>
     <path id="_105" class="fil77" d="M11.41 14.53l7.38 8.03 6.42 -5.9 -7.38 -8.03 -6.42 5.9zm-0.1 -0.02l6.51 -5.98 7.49 8.15 -6.51 5.98 -7.49 -8.15z"/>
     <path id="_106" class="fil77" d="M11.35 14.52l7.45 8.11 6.48 -5.96 -7.45 -8.11 -6.48 5.96zm-0.1 -0.02l6.57 -6.04 7.56 8.23 -6.58 6.04 -7.55 -8.23z"/>
     <path id="_107" class="fil78" d="M11.28 14.51l7.52 8.18 6.54 -6.01 -7.52 -8.18 -6.54 6.01zm-0.1 -0.02l6.63 -6.09 7.63 8.3 -6.63 6.09 -7.63 -8.3z"/>
     <path id="_108" class="fil78" d="M11.21 14.5l7.6 8.26 6.6 -6.07 -7.59 -8.26 -6.61 6.07zm-0.1 -0.02l6.7 -6.15 7.7 8.38 -6.7 6.15 -7.7 -8.38z"/>
     <path id="_109" class="fil78" d="M11.15 14.49l7.66 8.34 6.66 -6.13 -7.66 -8.34 -6.66 6.13zm-0.1 -0.02l6.76 -6.21 7.76 8.46 -6.75 6.21 -7.77 -8.46z"/>
     <path id="_110" class="fil79" d="M11.08 14.48l7.73 8.41 6.73 -6.18 -7.73 -8.41 -6.73 6.18zm-0.1 -0.02l6.82 -6.26 7.84 8.53 -6.82 6.26 -7.84 -8.53z"/>
     <path id="_111" class="fil79" d="M11.01 14.47l7.81 8.49 6.79 -6.24 -7.81 -8.49 -6.79 6.24zm-0.09 -0.02l6.88 -6.32 7.91 8.61 -6.88 6.32 -7.91 -8.61z"/>
     <path id="_112" class="fil79" d="M10.95 14.46l7.87 8.57 6.85 -6.3 -7.87 -8.57 -6.85 6.3zm-0.1 -0.02l6.94 -6.38 7.98 8.69 -6.94 6.38 -7.98 -8.69z"/>
     <path id="_113" class="fil80" d="M10.88 14.45l7.95 8.64 6.91 -6.35 -7.95 -8.64 -6.91 6.35zm-0.1 -0.02l7.01 -6.43 8.05 8.76 -7 6.43 -8.06 -8.76z"/>
     <path id="_114" class="fil80" d="M10.82 14.44l8.01 8.72 6.98 -6.41 -8.02 -8.72 -6.97 6.41zm-0.1 -0.02l7.06 -6.49 8.13 8.84 -7.07 6.49 -8.12 -8.84z"/>
     <path id="_115" class="fil81" d="M10.75 14.43l8.09 8.8 7.03 -6.47 -8.09 -8.8 -7.03 6.47zm-0.1 -0.02l7.13 -6.55 8.19 8.92 -7.13 6.55 -8.19 -8.92z"/>
     <path id="_116" class="fil82" d="M10.68 14.42l8.16 8.88 7.1 -6.53 -8.16 -8.88 -7.1 6.53zm-0.1 -0.02l7.19 -6.61 8.27 9 -7.19 6.61 -8.27 -9z"/>
     <path id="_117" class="fil82" d="M10.62 14.41l8.23 8.95 7.16 -6.58 -8.23 -8.95 -7.16 6.58zm-0.1 -0.02l7.25 -6.66 8.33 9.07 -7.25 6.66 -8.33 -9.07z"/>
     <path id="_118" class="fil83" d="M10.55 14.4l8.3 9.03 7.22 -6.64 -8.3 -9.03 -7.22 6.64zm-0.1 -0.02l7.31 -6.72 8.41 9.15 -7.31 6.72 -8.41 -9.15z"/>
     <path id="_119" class="fil83" d="M10.48 14.39l8.38 9.11 7.28 -6.7 -8.37 -9.11 -7.29 6.7zm-0.1 -0.02l7.38 -6.78 8.48 9.23 -7.38 6.78 -8.48 -9.23z"/>
     <path id="_120" class="fil84" d="M10.42 14.38l8.44 9.18 7.34 -6.75 -8.44 -9.18 -7.34 6.75zm-0.1 -0.02l7.43 -6.83 8.55 9.3 -7.43 6.83 -8.55 -9.3z"/>
     <path id="_121" class="fil84" d="M10.35 14.36l8.52 9.27 7.4 -6.8 -8.51 -9.27 -7.41 6.8zm-0.1 -0.01l7.5 -6.89 8.62 9.38 -7.5 6.89 -8.62 -9.38z"/>
     <path id="_122" class="fil84" d="M10.29 14.35l8.58 9.35 7.47 -6.86 -8.59 -9.35 -7.46 6.86zm-0.1 -0.01l7.56 -6.95 8.69 9.46 -7.56 6.95 -8.69 -9.46z"/>
     <path id="_123" class="fil85" d="M10.22 14.34l8.65 9.42 7.53 -6.91 -8.65 -9.42 -7.53 6.91zm-0.1 -0.01l7.62 -7 8.76 9.53 -7.62 7 -8.76 -9.53z"/>
     <path id="_124" class="fil85" d="M10.15 14.33l8.73 9.5 7.59 -6.97 -8.73 -9.5 -7.59 6.97zm-0.1 -0.01l7.69 -7.06 8.83 9.61 -7.68 7.06 -8.84 -9.61z"/>
     <path id="_125" class="fil86" d="M10.09 14.32l8.79 9.58 7.66 -7.03 -8.8 -9.58 -7.65 7.03zm-0.1 -0.01l7.74 -7.12 8.91 9.69 -7.75 7.12 -8.9 -9.69z"/>
     <path id="_126" class="fil86" d="M10.02 14.31l8.87 9.65 7.71 -7.08 -8.87 -9.65 -7.71 7.08zm-0.1 -0.01l7.81 -7.18 8.97 9.77 -7.8 7.18 -8.98 -9.77z"/>
     <path id="_127" class="fil86" d="M9.95 14.3l8.94 9.73 7.78 -7.14 -8.94 -9.73 -7.78 7.14zm-0.1 -0.01l7.87 -7.23 9.05 9.84 -7.87 7.23 -9.05 -9.84z"/>
     <path id="_128" class="fil87" d="M9.89 14.29l9.01 9.81 7.84 -7.2 -9.02 -9.81 -7.83 7.2zm-0.1 -0.01l7.93 -7.29 9.11 9.92 -7.93 7.29 -9.11 -9.92z"/>
     <path id="_129" class="fil87" d="M9.82 14.28l9.08 9.89 7.9 -7.26 -9.08 -9.89 -7.9 7.26zm-0.1 -0.01l7.99 -7.35 9.19 10 -7.99 7.35 -9.19 -10z"/>
     <path id="_130" class="fil88" d="M9.75 14.27l9.16 9.96 7.96 -7.31 -9.15 -9.96 -7.97 7.31zm-0.09 -0.01l8.05 -7.4 9.26 10.07 -8.06 7.4 -9.25 -10.07z"/>
     <path id="_131" class="fil88" d="M9.69 14.26l9.22 10.04 8.02 -7.37 -9.22 -10.04 -8.02 7.37zm-0.1 -0.01l8.11 -7.46 9.33 10.15 -8.11 7.46 -9.33 -10.15z"/>
     <path id="_132" class="fil89" d="M9.62 14.25l9.3 10.12 8.08 -7.43 -9.29 -10.12 -8.09 7.43zm-0.1 -0.01l8.18 -7.52 9.4 10.23 -8.18 7.52 -9.4 -10.23z"/>
     <path id="_133" class="fil90" d="M9.56 14.24l9.36 10.19 8.15 -7.48 -9.37 -10.19 -8.14 7.48zm-0.1 -0.01l8.23 -7.57 9.48 10.3 -8.24 7.57 -9.47 -10.3z"/>
     <path id="_134" class="fil90" d="M9.49 14.23l9.44 10.27 8.2 -7.54 -9.43 -10.27 -8.21 7.54zm-0.1 -0.01l8.3 -7.63 9.54 10.38 -8.3 7.63 -9.54 -10.38z"/>
     <path id="_135" class="fil91" d="M9.42 14.22l9.51 10.35 8.27 -7.6 -9.51 -10.35 -8.27 7.6zm-0.1 -0.01l8.37 -7.69 9.61 10.46 -8.36 7.69 -9.62 -10.46z"/>
     <path id="_136" class="fil91" d="M9.36 14.21l9.57 10.42 8.34 -7.65 -9.58 -10.42 -8.33 7.65zm-0.1 -0.01l8.42 -7.74 9.69 10.53 -8.43 7.74 -9.68 -10.53z"/>
     <path id="_137" class="fil91" d="M9.29 14.2l9.65 10.5 8.39 -7.71 -9.65 -10.5 -8.39 7.71zm-0.1 -0.01l8.49 -7.8 9.75 10.61 -8.48 7.8 -9.76 -10.61z"/>
     <path id="_138" class="fil91" d="M9.22 14.19l9.72 10.58 8.46 -7.77 -9.72 -10.58 -8.46 7.77zm-0.1 -0.01l8.55 -7.86 9.83 10.69 -8.55 7.86 -9.83 -10.69z"/>
     <path id="_139" class="fil92" d="M9.16 14.18l9.79 10.66 8.51 -7.83 -9.79 -10.66 -8.51 7.83zm-0.1 -0.01l8.61 -7.92 9.89 10.78 -8.6 7.91 -9.9 -10.77z"/>
     <path id="_140" class="fil93" d="M9.09 14.17l9.86 10.73 8.58 -7.88 -9.86 -10.73 -8.58 7.88zm-0.1 -0.02l8.67 -7.96 9.97 10.85 -8.67 7.96 -9.97 -10.85z"/>
     <path id="_141" class="fil93" d="M9.02 14.16l9.94 10.81 8.64 -7.94 -9.94 -10.81 -8.64 7.94zm-0.09 -0.02l8.73 -8.02 10.04 10.93 -8.74 8.02 -10.03 -10.93z"/>
     <path id="_142" class="fil93" d="M8.96 14.15l10 10.89 8.7 -8 -10 -10.89 -8.7 8zm-0.1 -0.02l8.79 -8.08 10.11 11.01 -8.79 8.08 -10.11 -11.01z"/>
     <path id="_143" class="fil93" d="M8.89 14.14l10.08 10.96 8.76 -8.05 -10.07 -10.96 -8.77 8.05zm-0.1 -0.02l8.86 -8.13 10.18 11.08 -8.86 8.13 -10.18 -11.08z"/>
     <path id="_144" class="fil94" d="M8.83 14.13l10.14 11.04 8.83 -8.11 -10.15 -11.04 -8.82 8.11zm-0.1 -0.02l8.91 -8.19 10.26 11.16 -8.92 8.19 -10.25 -11.16z"/>
     <path id="_145" class="fil95" d="M8.76 14.12l10.22 11.12 8.88 -8.17 -10.21 -11.12 -8.89 8.17zm-0.1 -0.02l8.98 -8.25 10.32 11.24 -8.98 8.25 -10.32 -11.24z"/>
     <path id="_146" class="fil95" d="M8.69 14.11l10.29 11.19 8.95 -8.22 -10.29 -11.19 -8.95 8.22zm-0.1 -0.02l9.04 -8.3 10.4 11.31 -9.04 8.3 -10.4 -11.31z"/>
     <path id="_147" class="fil95" d="M8.63 14.1l10.36 11.27 9.01 -8.28 -10.36 -11.27 -9.01 8.28zm-0.1 -0.02l9.1 -8.36 10.46 11.39 -9.1 8.36 -10.46 -11.39z"/>
     <path id="_148" class="fil95" d="M8.56 14.09l10.43 11.35 9.07 -8.34 -10.43 -11.35 -9.07 8.34zm-0.1 -0.02l9.17 -8.42 10.53 11.47 -9.16 8.42 -10.54 -11.47z"/>
     <path id="_149" class="fil96" d="M8.49 14.08l10.5 11.42 9.14 -8.39 -10.5 -11.42 -9.14 8.39zm-0.1 -0.02l9.23 -8.48 10.61 11.55 -9.23 8.48 -10.61 -11.55z"/>
     <path id="_150" class="fil97" d="M8.43 14.07l10.57 11.5 9.19 -8.45 -10.57 -11.5 -9.19 8.45zm-0.1 -0.02l9.29 -8.53 10.67 11.62 -9.28 8.53 -10.68 -11.62z"/>
     <path id="_151" class="fil97" d="M8.36 14.06l10.64 11.58 9.26 -8.51 -10.64 -11.58 -9.26 8.51zm-0.1 -0.02l9.35 -8.59 10.75 11.7 -9.35 8.59 -10.75 -11.7z"/>
     <path id="_152" class="fil97" d="M8.3 14.05l10.71 11.66 9.32 -8.57 -10.72 -11.66 -9.31 8.57zm-0.1 -0.02l9.41 -8.65 10.82 11.78 -9.41 8.65 -10.82 -11.78z"/>
     <path id="_153" class="fil97" d="M8.23 14.04l10.78 11.73 9.38 -8.62 -10.78 -11.73 -9.38 8.62zm-0.1 -0.02l9.47 -8.7 10.89 11.85 -9.47 8.7 -10.89 -11.85z"/>
     <path id="_154" class="fil98" d="M8.16 14.03l10.86 11.81 9.44 -8.68 -10.86 -11.81 -9.44 8.68zm-0.1 -0.02l9.54 -8.76 10.96 11.93 -9.54 8.76 -10.96 -11.93z"/>
     <path id="_155" class="fil99" d="M8.1 14.02l10.92 11.89 9.51 -8.74 -10.93 -11.89 -9.5 8.74zm-0.1 -0.02l9.59 -8.82 11.04 12.01 -9.6 8.82 -11.03 -12.01z"/>
     <path id="_156" class="fil99" d="M8.03 14.01l11 11.96 9.56 -8.79 -10.99 -11.96 -9.57 8.79zm-0.1 -0.02l9.66 -8.87 11.1 12.08 -9.66 8.87 -11.1 -12.08z"/>
     <path id="_157" class="fil99" d="M7.96 14l11.07 12.04 9.63 -8.85 -11.07 -12.04 -9.63 8.85zm-0.1 -0.02l9.72 -8.93 11.18 12.16 -9.72 8.93 -11.18 -12.16z"/>
     <path id="_158" class="fil99" d="M7.9 13.99l11.14 12.12 9.68 -8.91 -11.13 -12.12 -9.69 8.91zm-0.1 -0.02l9.78 -8.99 11.24 12.24 -9.78 8.99 -11.24 -12.24z"/>
     <path id="_159" class="fil99" d="M7.83 13.98l11.21 12.19 9.75 -8.96 -11.21 -12.19 -9.75 8.96zm-0.1 -0.02l9.84 -9.04 11.32 12.31 -9.84 9.04 -11.32 -12.31z"/>
     <path id="_160" class="fil100" d="M7.76 13.97l11.29 12.27 9.81 -9.02 -11.28 -12.27 -9.82 9.02zm-0.09 -0.02l9.9 -9.1 11.39 12.39 -9.91 9.1 -11.38 -12.39z"/>
     <path id="_161" class="fil100" d="M7.7 13.95l11.35 12.36 9.87 -9.07 -11.35 -12.36 -9.87 9.07zm-0.1 -0.01l9.97 -9.16 11.45 12.47 -9.96 9.16 -11.46 -12.47z"/>
     <path id="_162" class="fil100" d="M7.63 13.94l11.42 12.44 9.94 -9.13 -11.42 -12.44 -9.94 9.13zm-0.1 -0.01l10.03 -9.22 11.53 12.55 -10.03 9.22 -11.53 -12.55z"/>
     <path id="_163" class="fil100" d="M7.57 13.93l11.49 12.51 10 -9.18 -11.5 -12.51 -9.99 9.18zm-0.1 -0.01l10.09 -9.27 11.6 12.62 -10.09 9.27 -11.6 -12.62z"/>
     <path id="_164" class="fil100" d="M7.5 13.92l11.56 12.59 10.06 -9.24 -11.56 -12.59 -10.06 9.24zm-0.1 -0.01l10.15 -9.33 11.67 12.7 -10.15 9.33 -11.67 -12.7z"/>
     <path id="_165" class="fil101" d="M7.43 13.91l11.64 12.67 10.12 -9.3 -11.64 -12.67 -10.12 9.3zm-0.1 -0.01l10.22 -9.39 11.74 12.78 -10.21 9.39 -11.75 -12.78z"/>
     <path id="_166" class="fil101" d="M7.37 13.9l11.7 12.74 10.19 -9.35 -11.71 -12.74 -10.18 9.35zm-0.1 -0.01l10.27 -9.44 11.82 12.85 -10.28 9.44 -11.81 -12.85z"/>
     <path id="_167" class="fil101" d="M7.3 13.89l11.78 12.82 10.24 -9.41 -11.78 -12.82 -10.24 9.41zm-0.1 -0.01l10.34 -9.5 11.88 12.93 -10.34 9.5 -11.88 -12.93z"/>
     <path id="_168" class="fil101" d="M7.23 13.88l11.85 12.9 10.31 -9.47 -11.85 -12.9 -10.31 9.47zm-0.1 -0.01l10.4 -9.56 11.96 13.01 -10.4 9.56 -11.96 -13.01z"/>
     <path id="_169" class="fil102" d="M7.17 13.87l11.92 12.97 10.36 -9.52 -11.91 -12.97 -10.37 9.52zm-0.1 -0.01l10.46 -9.61 12.02 13.08 -10.46 9.61 -12.02 -13.08z"/>
     <path id="_170" class="fil103" d="M7.1 13.86l11.99 13.05 10.43 -9.58 -11.99 -13.05 -10.43 9.58zm-0.1 -0.01l10.52 -9.67 12.1 13.16 -10.52 9.67 -12.1 -13.16z"/>
     <path id="_171" class="fil103" d="M7.04 13.85l12.06 13.13 10.49 -9.64 -12.06 -13.13 -10.49 9.64zm-0.1 -0.01l10.58 -9.73 12.17 13.24 -10.59 9.73 -12.16 -13.24z"/>
     <path id="_172" class="fil103" d="M6.97 13.84l12.13 13.2 10.55 -9.69 -12.13 -13.2 -10.55 9.69zm-0.1 -0.01l10.64 -9.79 12.24 13.32 -10.64 9.79 -12.24 -13.32z"/>
     <path id="_173" class="fil103" d="M6.9 13.83l12.21 13.28 10.61 -9.75 -12.2 -13.28 -10.62 9.75zm-0.1 -0.01l10.71 -9.84 12.31 13.39 -10.71 9.84 -12.31 -13.39z"/>
     <path id="_174" class="fil104" d="M6.84 13.82l12.27 13.36 10.68 -9.81 -12.28 -13.36 -10.67 9.81zm-0.1 -0.01l10.77 -9.9 12.38 13.47 -10.77 9.9 -12.38 -13.47z"/>
     <path id="_175" class="fil105" d="M6.77 13.81l12.34 13.44 10.74 -9.87 -12.34 -13.44 -10.74 9.87zm-0.1 -0.01l10.83 -9.96 12.45 13.55 -10.83 9.96 -12.45 -13.55z"/>
     <path id="_176" class="fil105" d="M6.7 13.8l12.42 13.51 10.8 -9.92 -12.42 -13.51 -10.8 9.92zm-0.1 -0.01l10.9 -10.01 12.52 13.62 -10.89 10.01 -12.53 -13.62z"/>
     <path id="_177" class="fil105" d="M6.64 13.79l12.48 13.59 10.87 -9.98 -12.49 -13.59 -10.86 9.98zm-0.1 -0.01l10.95 -10.07 12.59 13.7 -10.95 10.07 -12.59 -13.7z"/>
     <path id="_178" class="fil105" d="M6.57 13.78l12.56 13.67 10.92 -10.04 -12.56 -13.67 -10.92 10.04zm-0.1 -0.01l11.02 -10.13 12.66 13.78 -11.01 10.13 -12.67 -13.78z"/>
     <path id="_179" class="fil106" d="M6.5 13.77l12.63 13.74 10.99 -10.09 -12.63 -13.74 -10.99 10.09zm-0.1 -0.01l11.08 -10.18 12.74 13.86 -11.08 10.17 -12.74 -13.85z"/>
     <path id="_180" class="fil106" d="M6.44 13.76l12.7 13.82 11.04 -10.15 -12.7 -13.82 -11.04 10.15zm-0.1 -0.02l11.14 -10.23 12.8 13.94 -11.14 10.23 -12.8 -13.94z"/>
     <path id="_181" class="fil107" d="M6.37 13.75l12.77 13.9 11.11 -10.21 -12.77 -13.9 -11.11 10.21zm-0.1 -0.02l11.2 -10.29 12.88 14.02 -11.2 10.29 -12.88 -14.02z"/>
     <path id="_182" class="fil108" d="M6.31 13.74l12.84 13.97 11.17 -10.26 -12.84 -13.97 -11.17 10.26zm-0.1 -0.02l11.26 -10.34 12.95 14.09 -11.27 10.34 -12.94 -14.09z"/>
     <path id="_183" class="fil108" d="M6.24 13.73l12.91 14.05 11.23 -10.32 -12.91 -14.05 -11.23 10.32zm-0.1 -0.02l11.32 -10.4 13.02 14.17 -11.32 10.4 -13.02 -14.17z"/>
     <path id="_184" class="fil109" d="M6.17 13.72l12.99 14.13 11.29 -10.38 -12.98 -14.13 -11.3 10.38zm-0.1 -0.02l11.39 -10.46 13.09 14.25 -11.39 10.46 -13.09 -14.25z"/>
     <path id="_185" class="fil109" d="M6.11 13.71l13.05 14.21 11.36 -10.44 -13.06 -14.21 -11.35 10.44zm-0.1 -0.02l11.44 -10.52 13.17 14.33 -11.45 10.52 -13.16 -14.33z"/>
     <path id="_186" class="fil110" d="M6.04 13.7l13.13 14.28 11.41 -10.49 -13.12 -14.28 -11.42 10.49zm-0.1 -0.02l11.51 -10.57 13.23 14.4 -11.51 10.57 -13.23 -14.4z"/>
     <path id="_187" class="fil110" d="M5.97 13.69l13.2 14.36 11.48 -10.55 -13.2 -14.36 -11.48 10.55zm-0.1 -0.02l11.58 -10.63 13.3 14.48 -11.57 10.63 -13.31 -14.48z"/>
     <path id="_188" class="fil110" d="M5.91 13.68l13.26 14.44 11.54 -10.61 -13.26 -14.44 -11.54 10.61zm-0.1 -0.02l11.63 -10.69 13.37 14.56 -11.63 10.69 -13.37 -14.56z"/>
     <path id="_189" class="fil111" d="M5.84 13.67l13.34 14.51 11.6 -10.66 -13.34 -14.51 -11.6 10.66zm-0.1 -0.02l11.7 -10.74 13.44 14.63 -11.69 10.74 -13.45 -14.63z"/>
     <path id="_190" class="fil111" d="M5.77 13.66l13.41 14.59 11.67 -10.72 -13.41 -14.59 -11.67 10.72zm-0.09 -0.02l11.75 -10.8 13.52 14.71 -11.76 10.8 -13.51 -14.71z"/>
     <path id="_191" class="fil112" d="M5.71 13.65l13.48 14.67 11.72 -10.78 -13.48 -14.67 -11.72 10.78zm-0.1 -0.02l11.82 -10.86 13.58 14.79 -11.81 10.86 -13.59 -14.79z"/>
     <path id="_192" class="fil112" d="M5.64 13.64l13.55 14.74 11.79 -10.83 -13.55 -14.74 -11.79 10.83zm-0.1 -0.02l11.88 -10.91 13.66 14.86 -11.88 10.91 -13.66 -14.86z"/>
     <path id="_193" class="fil112" d="M5.58 13.63l13.62 14.82 11.85 -10.89 -13.63 -14.82 -11.84 10.89zm-0.1 -0.02l11.94 -10.97 13.73 14.94 -11.94 10.97 -13.73 -14.94z"/>
     <path id="_194" class="fil113" d="M5.51 13.62l13.69 14.9 11.91 -10.95 -13.69 -14.9 -11.91 10.95zm-0.1 -0.02l12 -11.03 13.8 15.02 -12 11.03 -13.8 -15.02z"/>
     <path id="_195" class="fil113" d="M5.44 13.61l13.77 14.97 11.97 -11 -13.77 -14.97 -11.97 11zm-0.1 -0.02l12.07 -11.09 13.87 15.1 -12.07 11.09 -13.87 -15.1z"/>
     <path id="_196" class="fil114" d="M5.38 13.6l13.83 15.05 12.04 -11.06 -13.84 -15.05 -12.03 11.06zm-0.1 -0.02l12.12 -11.14 13.94 15.17 -12.12 11.14 -13.94 -15.17z"/>
     <path id="_197" class="fil114" d="M5.31 13.59l13.91 15.13 12.09 -11.12 -13.9 -15.13 -12.1 11.12zm-0.1 -0.02l12.19 -11.2 14.01 15.25 -12.19 11.2 -14.01 -15.25z"/>
     <path id="_198" class="fil115" d="M5.24 13.58l13.98 15.21 12.16 -11.18 -13.98 -15.21 -12.16 11.18zm-0.1 -0.02l12.25 -11.26 14.09 15.33 -12.25 11.26 -14.09 -15.33z"/>
     <path id="_199" class="fil116" d="M5.18 13.57l14.05 15.28 12.21 -11.23 -14.04 -15.28 -12.22 11.23zm-0.1 -0.02l12.31 -11.31 14.15 15.4 -12.31 11.31 -14.15 -15.4z"/>
     <path id="_200" class="fil116" d="M5.11 13.56l14.12 15.36 12.28 -11.29 -14.12 -15.36 -12.28 11.29zm-0.1 -0.02l12.37 -11.37 14.23 15.48 -12.37 11.37 -14.23 -15.48z"/>
     <path id="_201" class="fil116" d="M5.05 13.54l14.19 15.45 12.34 -11.34 -14.19 -15.45 -12.34 11.34zm-0.1 -0.01l12.43 -11.43 14.3 15.56 -12.44 11.43 -14.29 -15.56z"/>
     <path id="_202" class="fil117" d="M4.98 13.53l14.26 15.52 12.4 -11.39 -14.26 -15.52 -12.4 11.39zm-0.1 -0.01l12.5 -11.48 14.36 15.63 -12.49 11.48 -14.37 -15.63z"/>
     <path id="_203" class="fil117" d="M4.91 13.52l14.33 15.6 12.47 -11.45 -14.33 -15.6 -12.47 11.45zm-0.1 -0.01l12.56 -11.54 14.44 15.71 -12.56 11.54 -14.44 -15.71z"/>
     <path id="_204" class="fil118" d="M4.85 13.51l14.4 15.68 12.53 -11.51 -14.41 -15.68 -12.52 11.51zm-0.1 -0.01l12.62 -11.6 14.51 15.79 -12.62 11.6 -14.51 -15.79z"/>
     <path id="_205" class="fil118" d="M4.78 13.5l14.47 15.75 12.59 -11.56 -14.47 -15.75 -12.59 11.56zm-0.1 -0.01l12.68 -11.65 14.58 15.86 -12.68 11.65 -14.58 -15.86z"/>
     <path id="_206" class="fil118" d="M4.71 13.49l14.55 15.83 12.65 -11.62 -14.55 -15.83 -12.65 11.62zm-0.1 -0.01l12.75 -11.71 14.65 15.94 -12.74 11.71 -14.66 -15.94z"/>
     <path id="_207" class="fil119" d="M4.65 13.48l14.61 15.91 12.72 -11.68 -14.62 -15.91 -12.71 11.68zm-0.1 -0.01l12.8 -11.77 14.72 16.02 -12.8 11.77 -14.72 -16.02z"/>
     <path id="_208" class="fil119" d="M4.58 13.47l14.69 15.99 12.77 -11.74 -14.69 -15.99 -12.77 11.74zm-0.1 -0.01l12.87 -11.83 14.79 16.1 -12.87 11.83 -14.79 -16.1z"/>
     <path id="_209" class="fil120" d="M4.51 13.46l14.76 16.06 12.84 -11.79 -14.76 -16.06 -12.84 11.79zm-0.09 -0.01l12.92 -11.88 14.87 16.17 -12.93 11.88 -14.86 -16.17z"/>
     <path id="_210" class="fil120" d="M4.45 13.45l14.83 16.14 12.89 -11.85 -14.82 -16.14 -12.9 11.85zm-0.1 -0.01l12.99 -11.94 14.93 16.25 -12.99 11.94 -14.93 -16.25z"/>
     <path id="_211" class="fil120" d="M4.38 13.44l14.9 16.22 12.96 -11.91 -14.9 -16.22 -12.96 11.91zm-0.1 -0.01l13.05 -12 15.01 16.33 -13.05 12 -15.01 -16.33z"/>
     <path id="_212" class="fil121" d="M4.32 13.43l14.97 16.29 13.02 -11.96 -14.97 -16.29 -13.02 11.96zm-0.1 -0.01l13.11 -12.05 15.08 16.4 -13.12 12.05 -15.07 -16.4z"/>
     <path id="_213" class="fil121" d="M4.25 13.42l15.04 16.37 13.08 -12.02 -15.04 -16.37 -13.08 12.02zm-0.1 -0.01l13.17 -12.11 15.15 16.48 -13.17 12.11 -15.15 -16.48z"/>
     <path id="_214" class="fil122" d="M4.18 13.41l15.12 16.45 13.14 -12.08 -15.11 -16.45 -13.15 12.08zm-0.1 -0.01l13.24 -12.17 15.22 16.56 -13.24 12.17 -15.22 -16.56z"/>
     <path id="_215" class="fil123" d="M4.12 13.4l15.18 16.52 13.21 -12.13 -15.19 -16.52 -13.2 12.13zm-0.1 -0.01l13.3 -12.22 15.29 16.63 -13.3 12.22 -15.29 -16.63z"/>
     <path id="_216" class="fil123" d="M4.05 13.39l15.25 16.6 13.27 -12.19 -15.25 -16.6 -13.27 12.19zm-0.1 -0.01l13.36 -12.28 15.36 16.71 -13.36 12.28 -15.36 -16.71z"/>
     <path id="_217" class="fil124" d="M3.98 13.38l15.33 16.68 13.33 -12.25 -15.33 -16.68 -13.33 12.25zm-0.1 -0.01l13.43 -12.34 15.43 16.79 -13.42 12.34 -15.44 -16.79z"/>
     <path id="_218" class="fil124" d="M3.92 13.37l15.39 16.75 13.39 -12.3 -15.39 -16.75 -13.39 12.3zm-0.1 -0.01l13.48 -12.4 15.5 16.87 -13.48 12.4 -15.5 -16.87z"/>
     <path id="_219" class="fil125" d="M3.85 13.36l15.47 16.83 13.45 -12.36 -15.47 -16.83 -13.45 12.36zm-0.1 -0.01l13.55 -12.45 15.57 16.95 -13.54 12.44 -15.58 -16.94z"/>
     <path id="_220" class="fil125" d="M3.78 13.35l15.54 16.91 13.52 -12.42 -15.54 -16.91 -13.52 12.42zm-0.09 -0.02l13.6 -12.5 15.65 17.03 -13.61 12.5 -15.64 -17.03z"/>
     <path id="_221" class="fil125" d="M3.72 13.34l15.61 16.99 13.57 -12.48 -15.61 -16.99 -13.57 12.48zm-0.1 -0.02l13.67 -12.56 15.71 17.11 -13.67 12.56 -15.71 -17.11z"/>
     <path id="_222" class="fil126" d="M3.65 13.33l15.68 17.06 13.64 -12.53 -15.68 -17.06 -13.64 12.53zm-0.1 -0.02l13.73 -12.61 15.79 17.18 -13.73 12.61 -15.79 -17.18z"/>
     <path id="_223" class="fil126" d="M3.59 13.32l15.75 17.14 13.7 -12.59 -15.75 -17.14 -13.7 12.59zm-0.1 -0.02l13.79 -12.67 15.86 17.26 -13.8 12.67 -15.85 -17.26z"/>
     <path id="_224" class="fil127" d="M3.52 13.31l15.82 17.22 13.76 -12.65 -15.82 -17.22 -13.76 12.65zm-0.1 -0.02l13.85 -12.73 15.93 17.34 -13.85 12.73 -15.93 -17.34z"/>
     <path id="_225" class="fil127" d="M3.45 13.3l15.9 17.29 13.82 -12.7 -15.89 -17.29 -13.83 12.7zm-0.1 -0.02l13.92 -12.78 16 17.41 -13.92 12.78 -16 -17.41z"/>
     <path id="_226" class="fil127" d="M3.39 13.29l15.96 17.37 13.89 -12.76 -15.97 -17.37 -13.88 12.76zm-0.1 -0.02l13.97 -12.84 16.07 17.49 -13.97 12.84 -16.07 -17.49z"/>
     <path id="_227" class="fil127" d="M3.32 13.28l16.04 17.45 13.94 -12.82 -16.03 -17.45 -13.95 12.82zm-0.1 -0.02l14.04 -12.9 16.14 17.57 -14.04 12.9 -16.14 -17.57z"/>
     <path id="_228" class="fil128" d="M3.25 13.27l16.11 17.52 14.01 -12.87 -16.11 -17.52 -14.01 12.87zm-0.1 -0.02l14.11 -12.95 16.21 17.64 -14.1 12.95 -16.22 -17.64z"/>
     <path id="_229" class="fil129" d="M3.19 13.26l16.17 17.6 14.07 -12.93 -16.17 -17.6 -14.07 12.93zm-0.1 -0.02l14.16 -13.01 16.28 17.72 -14.16 13.01 -16.28 -17.72z"/>
     <path id="_230" class="fil129" d="M3.12 13.25l16.25 17.68 14.13 -12.99 -16.25 -17.68 -14.13 12.99zm-0.1 -0.02l14.23 -13.07 16.35 17.8 -14.22 13.07 -16.36 -17.8z"/>
     <path id="_231" class="fil129" d="M3.06 13.24l16.31 17.76 14.2 -13.05 -16.32 -17.76 -14.19 13.05zm-0.1 -0.02l14.28 -13.13 16.43 17.88 -14.29 13.13 -16.42 -17.88z"/>
     <path id="_232" class="fil130" d="M2.99 13.23l16.39 17.83 14.25 -13.1 -16.39 -17.83 -14.25 13.1zm-0.1 -0.02l14.35 -13.18 16.49 17.95 -14.34 13.18 -16.5 -17.95z"/>
     <path id="_233" class="fil131" d="M2.92 13.22l16.46 17.91 14.32 -13.16 -16.46 -17.91 -14.32 13.16zm-0.1 -0.02l14.41 -13.24 16.57 18.03 -14.41 13.24 -16.57 -18.03z"/>
     <path id="_234" class="fil132" d="M2.86 13.21l16.53 17.99 14.38 -13.22 -16.54 -17.99 -14.37 13.22zm-0.1 -0.02l14.47 -13.3 16.64 18.11 -14.48 13.3 -16.63 -18.11z"/>
     <path id="_235" class="fil132" d="M2.79 13.2l16.6 18.06 14.44 -13.27 -16.6 -18.06 -14.44 13.27zm-0.1 -0.02l14.53 -13.35 16.71 18.18 -14.53 13.35 -16.71 -18.18z"/>
     <path id="_236" class="fil132" d="M2.72 13.19l16.68 18.14 14.5 -13.33 -16.67 -18.14 -14.51 13.33zm-0.1 -0.02l14.6 -13.41 16.78 18.26 -14.6 13.41 -16.78 -18.26z"/>
     <path id="_237" class="fil132" d="M2.66 13.18l16.74 18.22 14.57 -13.39 -16.75 -18.22 -14.56 13.39zm-0.1 -0.02l14.65 -13.47 16.85 18.34 -14.65 13.47 -16.85 -18.34z"/>
     <path id="_238" class="fil133" d="M2.59 13.17l16.82 18.29 14.62 -13.44 -16.81 -18.29 -14.63 13.44zm-0.1 -0.02l14.72 -13.52 16.92 18.41 -14.72 13.52 -16.92 -18.41z"/>
     <path id="_239" class="fil134" d="M2.52 13.16l16.89 18.37 14.69 -13.5 -16.89 -18.37 -14.69 13.5zm-0.09 -0.02l14.77 -13.58 17 18.49 -14.78 13.58 -16.99 -18.49z"/>
     <path id="_240" class="fil134" d="M2.46 13.15l16.96 18.45 14.74 -13.56 -16.95 -18.45 -14.75 13.56zm-0.1 -0.02l14.84 -13.64 17.06 18.57 -14.84 13.64 -17.06 -18.57z"/>
     <path id="_241" class="fil134" d="M2.39 13.13l17.03 18.53 14.81 -13.6 -17.03 -18.53 -14.81 13.6zm-0.1 -0.01l14.91 -13.7 17.13 18.65 -14.9 13.7 -17.14 -18.65z"/>
     <path id="_242" class="fil134" d="M2.33 13.12l17.09 18.61 14.88 -13.66 -17.1 -18.61 -14.87 13.66zm-0.1 -0.01l14.96 -13.75 17.21 18.72 -14.97 13.75 -17.2 -18.72z"/>
     <path id="_243" class="fil135" d="M2.26 13.11l17.17 18.69 14.93 -13.72 -17.17 -18.69 -14.93 13.72zm-0.1 -0.01l15.03 -13.81 17.27 18.8 -15.02 13.81 -17.28 -18.8z"/>
     <path id="_244" class="fil136" d="M2.19 13.1l17.24 18.77 15 -13.78 -17.24 -18.77 -15 13.78zm-0.1 -0.01l15.09 -13.87 17.35 18.88 -15.09 13.87 -17.35 -18.88z"/>
     <path id="_245" class="fil136" d="M2.13 13.09l17.31 18.84 15.06 -13.83 -17.32 -18.84 -15.05 13.83zm-0.1 -0.01l15.15 -13.92 17.42 18.95 -15.15 13.92 -17.42 -18.95z"/>
     <path id="_246" class="fil136" d="M2.06 13.08l17.38 18.92 15.12 -13.89 -17.38 -18.92 -15.12 13.89zm-0.1 -0.01l15.21 -13.98 17.49 19.03 -15.21 13.98 -17.49 -19.03z"/>
     <path id="_247" class="fil136" d="M1.99 13.07l17.46 19 15.18 -13.95 -17.46 -19 -15.18 13.95zm-0.1 -0.01l15.28 -14.04 17.56 19.11 -15.28 14.04 -17.56 -19.11z"/>
     <path id="_248" class="fil137" d="M1.93 13.06l17.52 19.07 15.24 -14 -17.52 -19.07 -15.24 14zm-0.1 -0.01l15.33 -14.09 17.63 19.18 -15.33 14.09 -17.63 -19.18z"/>
     <path id="_249" class="fil138" d="M1.86 13.05l17.6 19.15 15.3 -14.06 -17.59 -19.15 -15.31 14.06zm-0.1 -0.01l15.4 -14.15 17.7 19.26 -15.4 14.15 -17.7 -19.26z"/>
     <path id="_250" class="fil138" d="M1.8 13.04l17.66 19.23 15.37 -14.12 -17.67 -19.23 -15.36 14.12zm-0.1 -0.01l15.45 -14.21 17.78 19.34 -15.46 14.21 -17.77 -19.34z"/>
     <path id="_251" class="fil138" d="M1.73 13.03l17.74 19.3 15.42 -14.17 -17.73 -19.3 -15.43 14.17zm-0.1 -0.01l15.52 -14.26 17.84 19.41 -15.52 14.27 -17.84 -19.42z"/>
     <path id="_252" class="fil138" d="M1.66 13.02l17.81 19.38 15.49 -14.23 -17.81 -19.38 -15.49 14.23zm-0.1 -0.01l15.58 -14.32 17.92 19.49 -15.58 14.32 -17.92 -19.49z"/>
     <path id="_253" class="fil138" d="M1.6 13.01l17.88 19.46 15.55 -14.29 -17.88 -19.46 -15.55 14.29zm-0.1 -0.01l15.64 -14.38 17.99 19.57 -15.65 14.38 -17.98 -19.57z"/>
     <path id="_254" class="fil0" d="M1.53 13l17.95 19.54 15.61 -14.35 -17.95 -19.54 -15.61 14.35zm-0.1 -0.01l15.71 -14.44 18.05 19.65 -15.7 14.44 -18.06 -19.65z"/>
     <path id="_255" class="fil0" d="M1.46 12.99l18.02 19.61 15.68 -14.4 -18.02 -19.61 -15.68 14.4zm-0.1 -0.01l15.77 -14.49 18.13 19.72 -15.77 14.49 -18.13 -19.72z"/>
     <path id="_256" class="fil0" d="M1.4 12.98l18.09 19.69 15.74 -14.46 -18.1 -19.69 -15.73 14.46zm-0.07 -0.01l15.8 -14.52 18.16 19.77 -15.8 14.52 -18.16 -19.77z"/>
    </g>
   </g>
  </g>
 </g>
</svg>
