<?xml version="1.0" encoding="UTF-8"?>
<!DOCTYPE svg PUBLIC "-//W3C//DTD SVG 1.1//EN" "http://www.w3.org/Graphics/SVG/1.1/DTD/svg11.dtd">
<!-- Creator: CorelDRAW 2021 (64-Bit) -->
<svg xmlns="http://www.w3.org/2000/svg" xml:space="preserve" width="472px" height="354px" version="1.1" style="shape-rendering:geometricPrecision; text-rendering:geometricPrecision; image-rendering:optimizeQuality; fill-rule:evenodd; clip-rule:evenodd"
viewBox="0 0 31.22 23.41"
 xmlns:xlink="http://www.w3.org/1999/xlink"
 xmlns:xodm="http://www.corel.com/coreldraw/odm/2003">
 <defs>
  <style type="text/css">
   <![CDATA[
    .fil0 {fill:url(#id0);fill-rule:nonzero}
   ]]>
  </style>
  <linearGradient id="id0" gradientUnits="userSpaceOnUse" x1="6.18" y1="13.23" x2="27.44" y2="8.25">
   <stop offset="0" style="stop-opacity:1; stop-color:#CCCCCC"/>
   <stop offset="0.196078" style="stop-opacity:1; stop-color:#E5E5E5"/>
   <stop offset="0.470588" style="stop-opacity:1; stop-color:white"/>
   <stop offset="1" style="stop-opacity:1; stop-color:#CCCCCC"/>
  </linearGradient>
 </defs>
 <g id="Capa_x0020_1">
  <metadata id="CorelCorpID_0Corel-Layer"/>
  <g id="_2056547692512">
   <path class="fil0" d="M25.12 0.09c0.46,-0.25 1.01,0.05 1.22,0.52 1.56,3 3.12,6 4.68,9 0.27,0.42 0.29,1.07 -0.13,1.4 -0.69,0.51 -1.47,0.88 -2.18,1.34 -0.53,0.29 -1.01,0.69 -1.58,0.85 -0.46,0.08 -0.76,-0.35 -1.03,-0.66 -0.81,0.99 -1.77,1.84 -2.89,2.38 -0.14,0.5 -0.23,1.04 -0.59,1.42 -0.35,0.45 -0.9,0.57 -1.4,0.72 -0.19,1.06 -1,1.87 -2.02,1.95 -0.1,1.11 -0.98,1.84 -1.96,1.99 -0.16,0.6 -0.38,1.24 -0.92,1.56 -0.55,0.43 -1.26,0.34 -1.88,0.16 -0.36,0.36 -0.78,0.75 -1.31,0.68 -0.78,0 -1.28,-0.82 -1.28,-1.59 -0.53,0.22 -1.16,0.44 -1.66,0.04 -0.54,-0.33 -0.65,-1.03 -0.58,-1.64 -0.55,0.13 -1.21,0.17 -1.61,-0.35 -0.44,-0.45 -0.37,-1.15 -0.23,-1.72 -0.62,0.01 -1.34,-0.16 -1.59,-0.84 -0.35,-0.69 0.03,-1.43 0.48,-1.95 -0.51,-0.97 -0.93,-1.99 -1.55,-2.89 -0.37,0.55 -0.93,1.4 -1.66,0.96 -1.04,-0.79 -2.04,-1.65 -3.04,-2.5 -0.47,-0.32 -0.55,-1.04 -0.17,-1.48 1.88,-2.64 3.8,-5.27 5.68,-7.91 0.24,-0.31 0.47,-0.71 0.87,-0.8 0.49,-0.12 0.87,0.3 1.23,0.58 0.81,0.72 1.68,1.35 2.48,2.08 0.32,0.25 0.3,0.72 0.38,1.1 0.61,0.21 1.22,0.47 1.85,0.62 0.76,-0.24 1.52,-0.51 2.31,-0.61 2.09,-0.3 4.15,-0.86 6.22,-1.3 -0.04,-0.98 0.85,-1.34 1.52,-1.73 0.79,-0.45 1.54,-0.96 2.34,-1.38zm-15.4 5.94l0 0c-1.29,1.82 -2.61,3.62 -3.9,5.44 0.6,0.92 1.1,1.9 1.55,2.9 0.5,-0.16 1.08,-0.37 1.57,-0.03 0.57,0.31 0.68,1.03 0.66,1.65 0.48,-0.06 1.03,-0.16 1.43,0.23 0.46,0.34 0.51,0.97 0.52,1.52 0.53,-0.05 1.16,-0.12 1.55,0.36 0.36,0.35 0.36,0.91 0.38,1.4 0.55,-0.08 1.2,-0.11 1.59,0.4 0.51,0.52 0.28,1.3 0.2,1.94 0.49,-0.2 1.08,-0.71 0.79,-1.33 -0.58,-0.71 -1.36,-1.19 -1.94,-1.9 -0.34,-0.4 0.2,-1.07 0.62,-0.82 0.83,0.54 1.43,1.4 2.27,1.92 0.63,0.23 1.28,-0.44 1.05,-1.13 -0.63,-0.85 -1.57,-1.39 -2.24,-2.21 -0.34,-0.44 0.29,-1.13 0.71,-0.78 0.85,0.64 1.54,1.48 2.4,2.11 0.58,0.36 1.3,-0.35 1.14,-1.02 -0.74,-0.97 -1.8,-1.59 -2.57,-2.53 -0.17,-0.45 0.32,-1 0.73,-0.73 0.9,0.67 1.65,1.55 2.53,2.24 0.48,0.42 1.29,0 1.3,-0.66 0.05,-0.43 -0.29,-0.72 -0.55,-0.98 -2.05,-1.87 -4.1,-3.74 -6.14,-5.63 -0.92,0.55 -1.79,1.2 -2.65,1.86 -0.57,0.45 -1.35,0.64 -2.01,0.33 -0.28,-0.11 -0.59,-0.38 -0.54,-0.74 0.3,-1.38 1.03,-2.59 1.66,-3.82 -0.53,-0.17 -1.05,-0.38 -1.59,-0.52 -0.25,0.06 -0.35,0.35 -0.52,0.53z"/>
  </g>
 </g>
</svg>
