<?xml version="1.0" encoding="UTF-8"?>
<!DOCTYPE svg PUBLIC "-//W3C//DTD SVG 1.1//EN" "http://www.w3.org/Graphics/SVG/1.1/DTD/svg11.dtd">
<!-- Creator: CorelDRAW 2021 (64-Bit) -->
<svg xmlns="http://www.w3.org/2000/svg" xml:space="preserve" width="311px" height="366px" version="1.1" style="shape-rendering:geometricPrecision; text-rendering:geometricPrecision; image-rendering:optimizeQuality; fill-rule:evenodd; clip-rule:evenodd"
viewBox="0 0 16 18.84"
 xmlns:xlink="http://www.w3.org/1999/xlink"
 xmlns:xodm="http://www.corel.com/coreldraw/odm/2003">
 <defs>
  <style type="text/css">
   <![CDATA[
    .fil109 {fill:#0B79B1;fill-rule:nonzero}
    .fil110 {fill:#0B79B2;fill-rule:nonzero}
    .fil111 {fill:#0B7AB2;fill-rule:nonzero}
    .fil112 {fill:#0B7BB3;fill-rule:nonzero}
    .fil113 {fill:#0C7BB3;fill-rule:nonzero}
    .fil114 {fill:#0C7CB4;fill-rule:nonzero}
    .fil115 {fill:#0C7DB5;fill-rule:nonzero}
    .fil116 {fill:#0C7DB6;fill-rule:nonzero}
    .fil117 {fill:#0C7EB6;fill-rule:nonzero}
    .fil118 {fill:#0D7EB6;fill-rule:nonzero}
    .fil119 {fill:#0D7EB7;fill-rule:nonzero}
    .fil120 {fill:#0D7FB7;fill-rule:nonzero}
    .fil121 {fill:#0D7FB8;fill-rule:nonzero}
    .fil122 {fill:#0D80B8;fill-rule:nonzero}
    .fil123 {fill:#0D80B9;fill-rule:nonzero}
    .fil124 {fill:#0D81B9;fill-rule:nonzero}
    .fil108 {fill:#0E7AB2;fill-rule:nonzero}
    .fil125 {fill:#0E81B9;fill-rule:nonzero}
    .fil126 {fill:#0E81BA;fill-rule:nonzero}
    .fil127 {fill:#0E82BA;fill-rule:nonzero}
    .fil128 {fill:#0E82BB;fill-rule:nonzero}
    .fil129 {fill:#0E83BB;fill-rule:nonzero}
    .fil130 {fill:#0E83BC;fill-rule:nonzero}
    .fil131 {fill:#0E84BC;fill-rule:nonzero}
    .fil132 {fill:#0E84BD;fill-rule:nonzero}
    .fil133 {fill:#0F84BD;fill-rule:nonzero}
    .fil134 {fill:#0F85BD;fill-rule:nonzero}
    .fil135 {fill:#0F85BE;fill-rule:nonzero}
    .fil136 {fill:#0F86BE;fill-rule:nonzero}
    .fil137 {fill:#0F86BF;fill-rule:nonzero}
    .fil138 {fill:#0F87BF;fill-rule:nonzero}
    .fil139 {fill:#0F87C0;fill-rule:nonzero}
    .fil107 {fill:#107CB3;fill-rule:nonzero}
    .fil140 {fill:#1087C0;fill-rule:nonzero}
    .fil141 {fill:#1088C0;fill-rule:nonzero}
    .fil142 {fill:#1088C1;fill-rule:nonzero}
    .fil143 {fill:#1089C1;fill-rule:nonzero}
    .fil144 {fill:#1089C2;fill-rule:nonzero}
    .fil145 {fill:#108AC3;fill-rule:nonzero}
    .fil0 {fill:#117CB3;fill-rule:nonzero}
    .fil146 {fill:#118AC3;fill-rule:nonzero}
    .fil147 {fill:#118BC4;fill-rule:nonzero}
    .fil148 {fill:#118CC5;fill-rule:nonzero}
    .fil149 {fill:#118DC6;fill-rule:nonzero}
    .fil150 {fill:#118EC7;fill-rule:nonzero}
    .fil106 {fill:#127DB3;fill-rule:nonzero}
    .fil151 {fill:#128EC7;fill-rule:nonzero}
    .fil152 {fill:#128FC8;fill-rule:nonzero}
    .fil153 {fill:#128FC9;fill-rule:nonzero}
    .fil154 {fill:#1290C9;fill-rule:nonzero}
    .fil155 {fill:#1290CA;fill-rule:nonzero}
    .fil156 {fill:#1291CA;fill-rule:nonzero}
    .fil157 {fill:#1391CA;fill-rule:nonzero}
    .fil158 {fill:#1391CB;fill-rule:nonzero}
    .fil159 {fill:#1392CB;fill-rule:nonzero}
    .fil160 {fill:#1392CC;fill-rule:nonzero}
    .fil161 {fill:#1393CC;fill-rule:nonzero}
    .fil162 {fill:#1393CD;fill-rule:nonzero}
    .fil163 {fill:#1394CD;fill-rule:nonzero}
    .fil105 {fill:#147EB4;fill-rule:nonzero}
    .fil164 {fill:#1494CD;fill-rule:nonzero}
    .fil165 {fill:#1494CE;fill-rule:nonzero}
    .fil166 {fill:#1495CE;fill-rule:nonzero}
    .fil167 {fill:#1495CF;fill-rule:nonzero}
    .fil168 {fill:#1496CF;fill-rule:nonzero}
    .fil169 {fill:#1496D0;fill-rule:nonzero}
    .fil170 {fill:#1497D0;fill-rule:nonzero}
    .fil171 {fill:#1497D1;fill-rule:nonzero}
    .fil172 {fill:#1597D1;fill-rule:nonzero}
    .fil173 {fill:#1598D1;fill-rule:nonzero}
    .fil174 {fill:#1598D2;fill-rule:nonzero}
    .fil175 {fill:#1599D2;fill-rule:nonzero}
    .fil176 {fill:#1599D3;fill-rule:nonzero}
    .fil177 {fill:#159AD3;fill-rule:nonzero}
    .fil178 {fill:#159AD4;fill-rule:nonzero}
    .fil179 {fill:#169AD4;fill-rule:nonzero}
    .fil180 {fill:#169BD4;fill-rule:nonzero}
    .fil181 {fill:#169BD5;fill-rule:nonzero}
    .fil182 {fill:#169CD5;fill-rule:nonzero}
    .fil183 {fill:#169CD6;fill-rule:nonzero}
    .fil184 {fill:#169DD7;fill-rule:nonzero}
    .fil104 {fill:#177FB5;fill-rule:nonzero}
    .fil185 {fill:#179DD7;fill-rule:nonzero}
    .fil186 {fill:#179ED8;fill-rule:nonzero}
    .fil1 {fill:#179FD9;fill-rule:nonzero}
    .fil103 {fill:#1981B5;fill-rule:nonzero}
    .fil102 {fill:#1B82B6;fill-rule:nonzero}
    .fil101 {fill:#1D83B7;fill-rule:nonzero}
    .fil100 {fill:#2084B8;fill-rule:nonzero}
    .fil99 {fill:#2286B8;fill-rule:nonzero}
    .fil98 {fill:#2487B9;fill-rule:nonzero}
    .fil97 {fill:#2788BA;fill-rule:nonzero}
    .fil96 {fill:#2989BB;fill-rule:nonzero}
    .fil95 {fill:#2B8BBB;fill-rule:nonzero}
    .fil94 {fill:#2D8CBC;fill-rule:nonzero}
    .fil93 {fill:#308DBD;fill-rule:nonzero}
    .fil92 {fill:#328EBD;fill-rule:nonzero}
    .fil91 {fill:#3490BE;fill-rule:nonzero}
    .fil90 {fill:#3791BF;fill-rule:nonzero}
    .fil89 {fill:#3992C0;fill-rule:nonzero}
    .fil88 {fill:#3B93C0;fill-rule:nonzero}
    .fil87 {fill:#3D95C1;fill-rule:nonzero}
    .fil86 {fill:#4096C2;fill-rule:nonzero}
    .fil85 {fill:#4297C3;fill-rule:nonzero}
    .fil84 {fill:#4498C3;fill-rule:nonzero}
    .fil83 {fill:#469AC4;fill-rule:nonzero}
    .fil82 {fill:#499BC5;fill-rule:nonzero}
    .fil81 {fill:#4B9CC5;fill-rule:nonzero}
    .fil80 {fill:#4D9DC6;fill-rule:nonzero}
    .fil79 {fill:#509FC7;fill-rule:nonzero}
    .fil78 {fill:#52A0C8;fill-rule:nonzero}
    .fil77 {fill:#54A1C8;fill-rule:nonzero}
    .fil76 {fill:#56A2C9;fill-rule:nonzero}
    .fil75 {fill:#59A4CA;fill-rule:nonzero}
    .fil74 {fill:#5BA5CB;fill-rule:nonzero}
    .fil73 {fill:#5DA6CB;fill-rule:nonzero}
    .fil72 {fill:#60A7CC;fill-rule:nonzero}
    .fil71 {fill:#62A9CD;fill-rule:nonzero}
    .fil70 {fill:#64AACD;fill-rule:nonzero}
    .fil69 {fill:#66ABCE;fill-rule:nonzero}
    .fil68 {fill:#69ACCF;fill-rule:nonzero}
    .fil67 {fill:#6BAED0;fill-rule:nonzero}
    .fil66 {fill:#6DAFD0;fill-rule:nonzero}
    .fil65 {fill:#6FB0D1;fill-rule:nonzero}
    .fil64 {fill:#72B1D2;fill-rule:nonzero}
    .fil63 {fill:#74B3D3;fill-rule:nonzero}
    .fil62 {fill:#76B4D3;fill-rule:nonzero}
    .fil61 {fill:#79B5D4;fill-rule:nonzero}
    .fil60 {fill:#7BB6D5;fill-rule:nonzero}
    .fil59 {fill:#7DB8D5;fill-rule:nonzero}
    .fil58 {fill:#7FB9D6;fill-rule:nonzero}
    .fil57 {fill:#82BAD7;fill-rule:nonzero}
    .fil56 {fill:#84BBD8;fill-rule:nonzero}
    .fil55 {fill:#86BDD8;fill-rule:nonzero}
    .fil54 {fill:#89BED9;fill-rule:nonzero}
    .fil53 {fill:#8BBFDA;fill-rule:nonzero}
    .fil52 {fill:#8DC0DB;fill-rule:nonzero}
    .fil51 {fill:#8FC2DB;fill-rule:nonzero}
    .fil50 {fill:#92C3DC;fill-rule:nonzero}
    .fil49 {fill:#94C4DD;fill-rule:nonzero}
    .fil48 {fill:#96C5DD;fill-rule:nonzero}
    .fil47 {fill:#98C7DE;fill-rule:nonzero}
    .fil46 {fill:#9BC8DF;fill-rule:nonzero}
    .fil45 {fill:#9DC9E0;fill-rule:nonzero}
    .fil44 {fill:#9FCAE0;fill-rule:nonzero}
    .fil43 {fill:#A2CCE1;fill-rule:nonzero}
    .fil42 {fill:#A4CDE2;fill-rule:nonzero}
    .fil41 {fill:#A6CEE3;fill-rule:nonzero}
    .fil40 {fill:#A8CFE3;fill-rule:nonzero}
    .fil39 {fill:#ABD1E4;fill-rule:nonzero}
    .fil38 {fill:#ADD2E5;fill-rule:nonzero}
    .fil37 {fill:#AFD3E6;fill-rule:nonzero}
    .fil36 {fill:#B2D4E6;fill-rule:nonzero}
    .fil35 {fill:#B4D6E7;fill-rule:nonzero}
    .fil34 {fill:#B6D7E8;fill-rule:nonzero}
    .fil33 {fill:#B8D8E8;fill-rule:nonzero}
    .fil32 {fill:#BBD9E9;fill-rule:nonzero}
    .fil31 {fill:#BDDBEA;fill-rule:nonzero}
    .fil30 {fill:#BFDCEB;fill-rule:nonzero}
    .fil29 {fill:#C1DDEB;fill-rule:nonzero}
    .fil28 {fill:#C4DEEC;fill-rule:nonzero}
    .fil27 {fill:#C6E0ED;fill-rule:nonzero}
    .fil26 {fill:#C8E1EE;fill-rule:nonzero}
    .fil25 {fill:#CBE2EE;fill-rule:nonzero}
    .fil24 {fill:#CDE3EF;fill-rule:nonzero}
    .fil23 {fill:#CFE5F0;fill-rule:nonzero}
    .fil22 {fill:#D1E6F0;fill-rule:nonzero}
    .fil21 {fill:#D4E7F1;fill-rule:nonzero}
    .fil20 {fill:#D6E8F2;fill-rule:nonzero}
    .fil19 {fill:#D8EAF3;fill-rule:nonzero}
    .fil18 {fill:#DBEBF3;fill-rule:nonzero}
    .fil17 {fill:#DDECF4;fill-rule:nonzero}
    .fil16 {fill:#DFEDF5;fill-rule:nonzero}
    .fil15 {fill:#E1EFF6;fill-rule:nonzero}
    .fil14 {fill:#E4F0F6;fill-rule:nonzero}
    .fil13 {fill:#E6F1F7;fill-rule:nonzero}
    .fil12 {fill:#E8F2F8;fill-rule:nonzero}
    .fil11 {fill:#EAF4F8;fill-rule:nonzero}
    .fil10 {fill:#EDF5F9;fill-rule:nonzero}
    .fil9 {fill:#EFF6FA;fill-rule:nonzero}
    .fil8 {fill:#F1F7FB;fill-rule:nonzero}
    .fil7 {fill:#F4F9FB;fill-rule:nonzero}
    .fil6 {fill:#F6FAFC;fill-rule:nonzero}
    .fil5 {fill:#F8FBFD;fill-rule:nonzero}
    .fil4 {fill:#FAFCFE;fill-rule:nonzero}
    .fil3 {fill:#FDFEFE;fill-rule:nonzero}
    .fil2 {fill:white;fill-rule:nonzero}
   ]]>
  </style>
     <clipPath id="id0" style="clip-rule:nonzero">
      <path d="M4.92 1.25c0.88,-0.47 1.74,0.22 2.59,0.41 0.96,0.22 1.77,-0.47 2.68,-0.62 0.41,-0.08 0.79,0.18 1.07,0.45 0.53,0.63 0.64,1.5 1.15,2.13 0.63,0.59 1.57,0.65 2.18,1.24 0.21,0.22 0.41,0.51 0.37,0.83 -0.08,0.83 -0.61,1.52 -0.71,2.34 0.03,0.96 0.89,1.78 0.61,2.76 -0.1,0.54 -0.66,0.75 -1.1,0.96 -0.63,0.29 -1.39,0.48 -1.71,1.16 -0.53,0.97 -1.29,2.05 -2.51,2.11 -0.03,-1.46 0.32,-3.02 1.34,-4.11 0.53,-0.59 1.12,-1.19 1.31,-1.99 0.3,-1.23 0.17,-2.62 -0.57,-3.68 -0.63,-1.01 -1.73,-1.71 -2.93,-1.8 -0.81,-0.04 -1.67,-0.1 -2.42,0.28 -0.83,0.38 -1.56,1 -2.01,1.81 -0.64,1.14 -0.7,2.56 -0.26,3.78 0.37,1.04 1.42,1.64 1.86,2.64 0.44,0.97 0.68,2.03 0.63,3.09 -0.39,-0.07 -0.81,-0.13 -1.15,-0.37 -0.67,-0.44 -1.05,-1.17 -1.46,-1.83 -0.55,-0.95 -1.86,-0.9 -2.58,-1.66 -0.27,-0.4 -0.29,-0.92 -0.13,-1.37 0.18,-0.67 0.65,-1.3 0.5,-2.03 -0.15,-0.67 -0.53,-1.27 -0.65,-1.95 -0.09,-0.4 0.15,-0.79 0.43,-1.07 0.59,-0.51 1.42,-0.63 2.04,-1.11 0.63,-0.7 0.65,-1.81 1.43,-2.4z"/>
     </clipPath>
 </defs>
 <g id="Capa_x0020_1">
  <metadata id="CorelCorpID_0Corel-Layer"/>
  <g id="_2056981952064">
   <path class="fil0" d="M7.8 0.03c0.7,-0.23 1.3,0.8 0.71,1.27 -0.37,0.45 -1.07,0.16 -1.25,-0.31 -0.12,-0.41 0.15,-0.83 0.54,-0.96z"/>
   <g>
    <g style="clip-path:url(#id0)">
     <polygon class="fil1" points="9.09,-1.41 18.91,9.76 6.83,17.46 -2.99,6.3 "/>
     <polygon id="_1" class="fil2" points="9.54,5.09 9.6,5.16 9.5,5.23 9.43,5.15 "/>
     <path id="_2" class="fil3" d="M9.53 5.11l-0.07 0.05 0.04 0.05 0.07 -0.05 -0.04 -0.05zm0.02 -0.07l0.11 0.13 -0.18 0.11 -0.11 -0.13 0.18 -0.11z"/>
     <path id="_3" class="fil4" d="M9.54 5.06l-0.14 0.09 0.09 0.11 0.14 -0.09 -0.09 -0.11zm0.02 -0.07l0.16 0.18 -0.25 0.16 -0.16 -0.18 0.25 -0.16z"/>
     <path id="_4" class="fil5" d="M9.56 5.02l-0.22 0.13 0.14 0.15 0.21 -0.13 -0.13 -0.15zm0.01 -0.08l0.21 0.23 -0.32 0.21 -0.2 -0.23 0.31 -0.21z"/>
     <path id="_5" class="fil6" d="M9.57 4.97l-0.28 0.18 0.18 0.2 0.28 -0.18 -0.18 -0.2zm0.02 -0.07l0.24 0.28 -0.38 0.24 -0.25 -0.28 0.39 -0.24z"/>
     <path id="_6" class="fil7" d="M9.58 4.92l-0.35 0.22 0.22 0.26 0.36 -0.23 -0.23 -0.25zm0.02 -0.07l0.29 0.33 -0.46 0.29 -0.29 -0.33 0.46 -0.29z"/>
     <path id="_7" class="fil8" d="M9.59 4.87l-0.42 0.27 0.27 0.31 0.42 -0.27 -0.27 -0.31zm0.02 -0.07l0.34 0.38 -0.53 0.34 -0.34 -0.38 0.53 -0.34z"/>
     <path id="_8" class="fil9" d="M9.61 4.82l-0.5 0.32 0.32 0.36 0.49 -0.32 -0.31 -0.36zm0.02 -0.07l0.38 0.43 -0.6 0.39 -0.38 -0.44 0.6 -0.38z"/>
     <path id="_9" class="fil10" d="M9.62 4.78l-0.56 0.36 0.35 0.4 0.57 -0.36 -0.36 -0.4zm0.02 -0.08l0.43 0.49 -0.68 0.43 -0.42 -0.49 0.67 -0.43z"/>
     <path id="_10" class="fil11" d="M9.63 4.73l-0.63 0.4 0.4 0.46 0.64 -0.4 -0.41 -0.46zm0.02 -0.07l0.47 0.53 -0.74 0.47 -0.47 -0.53 0.74 -0.47z"/>
     <path id="_11" class="fil12" d="M9.65 4.68l-0.71 0.45 0.45 0.51 0.7 -0.45 -0.44 -0.51zm0.01 -0.07l0.52 0.58 -0.81 0.52 -0.52 -0.58 0.81 -0.52z"/>
     <path id="_12" class="fil13" d="M9.66 4.63l-0.78 0.5 0.5 0.56 0.77 -0.5 -0.49 -0.56zm0.02 -0.07l0.56 0.64 -0.88 0.56 -0.56 -0.64 0.88 -0.56z"/>
     <path id="_13" class="fil14" d="M9.67 4.58l-0.85 0.54 0.54 0.62 0.85 -0.54 -0.54 -0.62zm0.02 -0.07l0.61 0.69 -0.96 0.61 -0.6 -0.69 0.95 -0.61z"/>
     <path id="_14" class="fil15" d="M9.68 4.54l-0.91 0.58 0.58 0.66 0.92 -0.58 -0.59 -0.66zm0.02 -0.08l0.65 0.74 -1.02 0.66 -0.65 -0.74 1.02 -0.66z"/>
     <path id="_15" class="fil16" d="M9.7 4.49l-0.99 0.63 0.63 0.71 0.98 -0.63 -0.62 -0.71zm0.02 -0.07l0.69 0.79 -1.09 0.69 -0.7 -0.79 1.1 -0.69z"/>
     <path id="_16" class="fil17" d="M9.71 4.44l-1.06 0.67 0.67 0.77 1.06 -0.68 -0.67 -0.76zm0.02 -0.07l0.74 0.84 -1.17 0.74 -0.74 -0.84 1.17 -0.74z"/>
     <path id="_17" class="fil18" d="M9.72 4.39l-1.13 0.72 0.72 0.82 1.13 -0.72 -0.72 -0.82zm0.02 -0.07l0.79 0.89 -1.24 0.79 -0.78 -0.89 1.23 -0.79z"/>
     <path id="_18" class="fil19" d="M9.74 4.34l-1.2 0.77 0.76 0.87 1.2 -0.77 -0.76 -0.87zm0.01 -0.07l0.83 0.94 -1.3 0.84 -0.83 -0.95 1.3 -0.83z"/>
     <path id="_19" class="fil20" d="M9.75 4.3l-1.27 0.81 0.81 0.91 1.27 -0.81 -0.81 -0.91zm0.02 -0.08l0.87 1 -1.37 0.88 -0.88 -1 1.38 -0.88z"/>
     <path id="_20" class="fil21" d="M9.76 4.25l-1.34 0.85 0.85 0.97 1.34 -0.85 -0.85 -0.97zm0.02 -0.07l0.92 1.04 -1.45 0.92 -0.92 -1.04 1.45 -0.92z"/>
     <path id="_21" class="fil22" d="M9.77 4.2l-1.41 0.9 0.9 1.02 1.41 -0.9 -0.9 -1.02zm0.02 -0.07l0.97 1.09 -1.52 0.97 -0.96 -1.09 1.51 -0.97z"/>
     <path id="_22" class="fil23" d="M9.79 4.15l-1.48 0.95 0.94 1.07 1.48 -0.95 -0.94 -1.07zm0.02 -0.07l1.01 1.15 -1.59 1.01 -1.01 -1.15 1.59 -1.01z"/>
     <path id="_23" class="fil24" d="M9.8 4.1l-1.55 0.99 0.98 1.13 1.56 -1 -0.99 -1.12zm0.02 -0.07l1.05 1.2 -1.66 1.06 -1.05 -1.2 1.66 -1.06z"/>
     <path id="_24" class="fil25" d="M9.81 4.06l-1.62 1.03 1.03 1.17 1.62 -1.03 -1.03 -1.17zm0.02 -0.08l1.1 1.25 -1.73 1.11 -1.1 -1.25 1.73 -1.11z"/>
     <path id="_25" class="fil26" d="M9.83 4.01l-1.7 1.08 1.08 1.22 1.69 -1.08 -1.07 -1.22zm0.01 -0.07l1.15 1.3 -1.8 1.14 -1.14 -1.3 1.79 -1.14z"/>
     <path id="_26" class="fil27" d="M9.84 3.96l-1.77 1.13 1.13 1.27 1.76 -1.13 -1.12 -1.27zm0.02 -0.07l1.19 1.35 -1.87 1.19 -1.19 -1.35 1.87 -1.19z"/>
     <path id="_27" class="fil28" d="M9.85 3.91l-1.83 1.17 1.16 1.33 1.84 -1.17 -1.17 -1.33zm0.02 -0.07l1.23 1.4 -1.94 1.24 -1.23 -1.4 1.94 -1.24z"/>
     <path id="_28" class="fil29" d="M9.86 3.86l-1.9 1.22 1.21 1.38 1.91 -1.22 -1.22 -1.38zm0.02 -0.07l1.28 1.45 -2.01 1.29 -1.28 -1.46 2.01 -1.28z"/>
     <path id="_29" class="fil30" d="M9.88 3.82l-1.98 1.26 1.26 1.42 1.97 -1.26 -1.25 -1.42zm0.02 -0.08l1.32 1.51 -2.08 1.33 -1.33 -1.51 2.09 -1.33z"/>
     <path id="_30" class="fil31" d="M9.89 3.77l-2.05 1.3 1.3 1.48 2.05 -1.3 -1.3 -1.48zm0.02 -0.07l1.37 1.55 -2.16 1.37 -1.36 -1.55 2.15 -1.37z"/>
     <path id="_31" class="fil32" d="M9.9 3.72l-2.11 1.35 1.34 1.53 2.12 -1.35 -1.35 -1.53zm0.02 -0.07l1.41 1.6 -2.22 1.42 -1.41 -1.6 2.22 -1.42z"/>
     <path id="_32" class="fil33" d="M9.92 3.67l-2.19 1.4 1.39 1.58 2.19 -1.4 -1.39 -1.58zm0.01 -0.07l1.46 1.66 -2.29 1.46 -1.46 -1.66 2.29 -1.46z"/>
     <path id="_33" class="fil34" d="M9.93 3.62l-2.26 1.44 1.44 1.64 2.25 -1.45 -1.43 -1.63zm0.02 -0.07l1.5 1.71 -2.36 1.51 -1.51 -1.71 2.37 -1.51z"/>
     <path id="_34" class="fil35" d="M9.94 3.58l-2.33 1.48 1.48 1.68 2.33 -1.48 -1.48 -1.68zm0.02 -0.08l1.55 1.76 -2.44 1.56 -1.54 -1.76 2.43 -1.56z"/>
     <path id="_35" class="fil36" d="M9.95 3.53l-2.4 1.53 1.53 1.73 2.4 -1.53 -1.53 -1.73zm0.02 -0.07l1.6 1.8 -2.51 1.6 -1.59 -1.81 2.5 -1.59z"/>
     <path id="_36" class="fil37" d="M9.97 3.48l-2.47 1.58 1.57 1.78 2.47 -1.58 -1.57 -1.78zm0.02 -0.07l1.63 1.86 -2.57 1.64 -1.64 -1.86 2.58 -1.64z"/>
     <path id="_37" class="fil38" d="M9.98 3.43l-2.54 1.62 1.61 1.84 2.54 -1.62 -1.61 -1.84zm0.02 -0.07l1.68 1.91 -2.65 1.69 -1.68 -1.91 2.65 -1.69z"/>
     <path id="_38" class="fil39" d="M9.99 3.38l-2.61 1.67 1.66 1.89 2.61 -1.67 -1.66 -1.89zm0.02 -0.07l1.73 1.96 -2.72 1.74 -1.72 -1.96 2.71 -1.74z"/>
     <path id="_39" class="fil40" d="M10.01 3.34l-2.69 1.71 1.71 1.93 2.68 -1.71 -1.7 -1.93zm0.01 -0.08l1.78 2.02 -2.79 1.78 -1.77 -2.02 2.78 -1.78z"/>
     <path id="_40" class="fil41" d="M10.02 3.29l-2.75 1.75 1.75 1.99 2.75 -1.75 -1.75 -1.99zm0.02 -0.07l1.81 2.06 -2.85 1.82 -1.82 -2.06 2.86 -1.82z"/>
     <path id="_41" class="fil42" d="M10.03 3.24l-2.82 1.8 1.79 2.04 2.83 -1.8 -1.8 -2.04zm0.02 -0.07l1.86 2.11 -2.93 1.87 -1.86 -2.11 2.93 -1.87z"/>
     <path id="_42" class="fil43" d="M10.04 3.19l-2.89 1.85 1.84 2.09 2.89 -1.85 -1.84 -2.09zm0.02 -0.07l1.91 2.17 -3 1.91 -1.91 -2.17 3 -1.91z"/>
     <path id="_43" class="fil44" d="M10.06 3.14l-2.97 1.89 1.89 2.15 2.96 -1.9 -1.88 -2.14zm0.02 -0.07l1.95 2.22 -3.07 1.96 -1.95 -2.22 3.07 -1.96z"/>
     <path id="_44" class="fil45" d="M10.07 3.1l-3.03 1.93 1.92 2.19 3.04 -1.93 -1.93 -2.19zm0.02 -0.08l1.99 2.27 -3.14 2 -1.99 -2.26 3.14 -2.01z"/>
     <path id="_45" class="fil46" d="M10.08 3.05l-3.1 1.98 1.97 2.24 3.11 -1.98 -1.98 -2.24zm0.02 -0.07l2.04 2.31 -3.21 2.05 -2.04 -2.32 3.21 -2.04z"/>
     <path id="_46" class="fil47" d="M10.1 3l-3.18 2.03 2.02 2.29 3.17 -2.03 -2.01 -2.29zm0.01 -0.07l2.09 2.37 -3.28 2.09 -2.09 -2.37 3.28 -2.09z"/>
     <path id="_47" class="fil48" d="M10.11 2.95l-3.25 2.07 2.07 2.35 3.24 -2.07 -2.06 -2.35zm0.02 -0.07l2.13 2.42 -3.35 2.14 -2.13 -2.42 3.35 -2.14z"/>
     <path id="_48" class="fil49" d="M10.12 2.9l-3.32 2.12 2.11 2.39 3.32 -2.11 -2.11 -2.4zm0.02 -0.07l2.18 2.47 -3.43 2.19 -2.17 -2.47 3.42 -2.19z"/>
     <path id="_49" class="fil50" d="M10.13 2.86l-3.38 2.16 2.15 2.44 3.39 -2.16 -2.16 -2.44zm0.02 -0.08l2.22 2.53 -3.49 2.22 -2.22 -2.52 3.49 -2.23z"/>
     <path id="_50" class="fil51" d="M10.15 2.81l-3.46 2.2 2.2 2.5 3.45 -2.21 -2.19 -2.49zm0.02 -0.07l2.26 2.57 -3.56 2.27 -2.27 -2.57 3.57 -2.27z"/>
     <path id="_51" class="fil52" d="M10.16 2.76l-3.53 2.25 2.24 2.55 3.53 -2.25 -2.24 -2.55zm0.02 -0.07l2.31 2.62 -3.64 2.32 -2.31 -2.62 3.64 -2.32z"/>
     <path id="_52" class="fil53" d="M10.17 2.71l-3.6 2.3 2.29 2.6 3.6 -2.3 -2.29 -2.6zm0.02 -0.07l2.36 2.68 -3.71 2.36 -2.35 -2.68 3.7 -2.36z"/>
     <path id="_53" class="fil54" d="M10.19 2.66l-3.67 2.35 2.33 2.64 3.67 -2.34 -2.33 -2.65zm0.01 -0.07l2.4 2.73 -3.77 2.41 -2.4 -2.73 3.77 -2.41z"/>
     <path id="_54" class="fil55" d="M10.2 2.62l-3.74 2.38 2.38 2.7 3.74 -2.38 -2.38 -2.7zm0.02 -0.08l2.44 2.78 -3.84 2.45 -2.45 -2.77 3.85 -2.46z"/>
     <path id="_55" class="fil56" d="M10.21 2.57l-3.81 2.43 2.42 2.75 3.81 -2.43 -2.42 -2.75zm0.02 -0.07l2.49 2.82 -3.92 2.5 -2.49 -2.83 3.92 -2.49z"/>
     <path id="_56" class="fil57" d="M10.22 2.52l-3.88 2.48 2.47 2.8 3.88 -2.48 -2.47 -2.8zm0.02 -0.07l2.54 2.88 -3.99 2.54 -2.53 -2.88 3.98 -2.54z"/>
     <path id="_57" class="fil58" d="M10.24 2.47l-3.95 2.52 2.51 2.86 3.95 -2.52 -2.51 -2.86zm0.02 -0.07l2.58 2.93 -4.06 2.59 -2.58 -2.93 4.06 -2.59z"/>
     <path id="_58" class="fil59" d="M10.25 2.42l-4.02 2.57 2.55 2.9 4.03 -2.56 -2.56 -2.91zm0.02 -0.07l2.62 2.98 -4.13 2.64 -2.62 -2.98 4.13 -2.64z"/>
     <path id="_59" class="fil60" d="M10.26 2.38l-4.09 2.61 2.6 2.95 4.09 -2.61 -2.6 -2.95zm0.02 -0.08l2.67 3.04 -4.2 2.67 -2.67 -3.03 4.2 -2.68z"/>
     <path id="_60" class="fil61" d="M10.28 2.33l-4.17 2.65 2.65 3.01 4.16 -2.66 -2.64 -3zm0.01 -0.07l2.72 3.08 -4.27 2.72 -2.71 -3.08 4.26 -2.72z"/>
     <path id="_61" class="fil62" d="M10.29 2.28l-4.24 2.7 2.7 3.06 4.23 -2.7 -2.69 -3.06zm0.02 -0.07l2.76 3.13 -4.34 2.77 -2.76 -3.13 4.34 -2.77z"/>
     <path id="_62" class="fil63" d="M10.3 2.23l-4.3 2.75 2.73 3.11 4.31 -2.75 -2.74 -3.11zm0.02 -0.07l2.8 3.18 -4.41 2.82 -2.8 -3.19 4.41 -2.81z"/>
     <path id="_63" class="fil64" d="M10.31 2.18l-4.37 2.8 2.78 3.15 4.37 -2.79 -2.78 -3.16zm0.02 -0.07l2.85 3.24 -4.48 2.86 -2.85 -3.24 4.48 -2.86z"/>
     <path id="_64" class="fil65" d="M10.33 2.14l-4.45 2.83 2.83 3.21 4.44 -2.83 -2.82 -3.21zm0.02 -0.08l2.89 3.29 -4.55 2.9 -2.9 -3.28 4.56 -2.91z"/>
     <path id="_65" class="fil66" d="M10.34 2.09l-4.52 2.88 2.87 3.26 4.52 -2.88 -2.87 -3.26zm0.02 -0.07l2.94 3.33 -4.63 2.95 -2.93 -3.33 4.62 -2.95z"/>
     <path id="_66" class="fil67" d="M10.35 2.04l-4.58 2.93 2.91 3.31 4.59 -2.93 -2.92 -3.31zm0.02 -0.07l2.98 3.39 -4.69 2.99 -2.98 -3.39 4.69 -2.99z"/>
     <path id="_67" class="fil68" d="M10.37 1.99l-4.66 2.97 2.96 3.37 4.66 -2.97 -2.96 -3.37zm0.01 -0.07l3.03 3.44 -4.76 3.04 -3.03 -3.44 4.76 -3.04z"/>
     <path id="_68" class="fil69" d="M10.38 1.94l-4.73 3.02 3.01 3.41 4.72 -3.01 -3 -3.42zm0.02 -0.07l3.07 3.49 -4.83 3.09 -3.08 -3.49 4.84 -3.09z"/>
     <path id="_69" class="fil70" d="M10.39 1.9l-4.8 3.06 3.05 3.46 4.8 -3.06 -3.05 -3.46zm0.02 -0.08l3.12 3.55 -4.91 3.12 -3.11 -3.54 4.9 -3.13z"/>
     <path id="_70" class="fil71" d="M10.4 1.85l-4.86 3.1 3.09 3.52 4.87 -3.11 -3.1 -3.51zm0.02 -0.07l3.17 3.59 -4.98 3.17 -3.16 -3.59 4.97 -3.17z"/>
     <path id="_71" class="fil72" d="M10.42 1.8l-4.94 3.15 3.14 3.57 4.94 -3.15 -3.14 -3.57zm0.02 -0.07l3.2 3.64 -5.04 3.22 -3.21 -3.64 5.05 -3.22z"/>
     <path id="_72" class="fil73" d="M10.43 1.75l-5.01 3.2 3.18 3.62 5.01 -3.2 -3.18 -3.62zm0.02 -0.07l3.25 3.69 -5.12 3.27 -3.25 -3.7 5.12 -3.26z"/>
     <path id="_73" class="fil74" d="M10.44 1.7l-5.08 3.25 3.23 3.66 5.08 -3.24 -3.23 -3.67zm0.02 -0.07l3.3 3.75 -5.19 3.31 -3.29 -3.75 5.18 -3.31z"/>
     <path id="_74" class="fil75" d="M10.46 1.66l-5.16 3.28 3.28 3.72 5.15 -3.28 -3.27 -3.72zm0.01 -0.08l3.35 3.8 -5.26 3.35 -3.34 -3.79 5.25 -3.36z"/>
     <path id="_75" class="fil76" d="M10.47 1.61l-5.22 3.33 3.32 3.77 5.22 -3.33 -3.32 -3.77zm0.02 -0.07l3.38 3.84 -5.32 3.4 -3.39 -3.84 5.33 -3.4z"/>
     <path id="_76" class="fil77" d="M10.48 1.56l-5.29 3.38 3.36 3.82 5.3 -3.38 -3.37 -3.82zm0.02 -0.07l3.43 3.9 -5.4 3.44 -3.43 -3.9 5.4 -3.44z"/>
     <path id="_77" class="fil78" d="M10.49 1.51l-5.36 3.42 3.41 3.88 5.36 -3.43 -3.41 -3.87zm0.02 -0.07l3.48 3.95 -5.47 3.49 -3.48 -3.95 5.47 -3.49z"/>
     <path id="_78" class="fil79" d="M10.51 1.46l-5.44 3.47 3.46 3.92 5.43 -3.46 -3.45 -3.93zm0.02 -0.07l3.52 4 -5.54 3.54 -3.52 -4 5.54 -3.54z"/>
     <path id="_79" class="fil80" d="M10.52 1.42l-5.5 3.51 3.49 3.97 5.51 -3.51 -3.5 -3.97zm0.02 -0.08l3.56 4.06 -5.61 3.57 -3.56 -4.05 5.61 -3.58z"/>
     <path id="_80" class="fil81" d="M10.53 1.37l-5.57 3.56 3.54 4.02 5.58 -3.56 -3.55 -4.02zm0.02 -0.07l3.61 4.1 -5.68 3.62 -3.61 -4.1 5.68 -3.62z"/>
     <path id="_81" class="fil82" d="M10.55 1.32l-5.65 3.6 3.59 4.08 5.64 -3.6 -3.58 -4.08zm0.01 -0.07l3.66 4.15 -5.75 3.67 -3.66 -4.15 5.75 -3.67z"/>
     <path id="_82" class="fil83" d="M10.56 1.27l-5.72 3.65 3.64 4.13 5.71 -3.65 -3.63 -4.13zm0.02 -0.07l3.7 4.2 -5.82 3.72 -3.7 -4.21 5.82 -3.71z"/>
     <path id="_83" class="fil84" d="M10.57 1.22l-5.79 3.7 3.68 4.17 5.79 -3.69 -3.68 -4.18zm0.02 -0.07l3.75 4.26 -5.9 3.76 -3.74 -4.26 5.89 -3.76z"/>
     <path id="_84" class="fil85" d="M10.58 1.18l-5.85 3.73 3.72 4.23 5.86 -3.73 -3.73 -4.23zm0.02 -0.08l3.79 4.31 -5.96 3.8 -3.79 -4.3 5.96 -3.81z"/>
     <path id="_85" class="fil86" d="M10.6 1.13l-5.93 3.78 3.77 4.28 5.92 -3.78 -3.76 -4.28zm0.02 -0.07l3.83 4.35 -6.03 3.85 -3.84 -4.35 6.04 -3.85z"/>
     <path id="_86" class="fil87" d="M10.61 1.08l-6 3.83 3.81 4.33 6 -3.83 -3.81 -4.33zm0.02 -0.07l3.88 4.41 -6.11 3.89 -3.87 -4.41 6.1 -3.89z"/>
     <path id="_87" class="fil88" d="M10.62 1.03l-6.07 3.87 3.86 4.39 6.07 -3.88 -3.86 -4.38zm0.02 -0.07l3.93 4.46 -6.18 3.94 -3.92 -4.46 6.17 -3.94z"/>
     <path id="_88" class="fil89" d="M10.64 0.98l-6.14 3.92 3.9 4.43 6.14 -3.91 -3.9 -4.44zm0.01 -0.07l3.97 4.51 -6.24 3.99 -3.97 -4.51 6.24 -3.99z"/>
     <path id="_89" class="fil90" d="M10.65 0.94l-6.21 3.96 3.95 4.48 6.21 -3.96 -3.95 -4.48zm0.02 -0.08l4.01 4.57 -6.31 4.02 -4.02 -4.56 6.32 -4.03z"/>
     <path id="_90" class="fil91" d="M10.66 0.89l-6.28 4.01 3.99 4.53 6.28 -4.01 -3.99 -4.53zm0.02 -0.07l4.06 4.61 -6.39 4.07 -4.06 -4.61 6.39 -4.07z"/>
     <path id="_91" class="fil92" d="M10.67 0.84l-6.35 4.05 4.04 4.59 6.35 -4.05 -4.04 -4.59zm0.02 -0.07l4.11 4.66 -6.46 4.12 -4.1 -4.66 6.45 -4.12z"/>
     <path id="_92" class="fil93" d="M10.69 0.79l-6.42 4.1 4.08 4.64 6.42 -4.1 -4.08 -4.64zm0.02 -0.07l4.14 4.71 -6.52 4.17 -4.15 -4.71 6.53 -4.17z"/>
     <path id="_93" class="fil94" d="M10.7 0.74l-6.49 4.15 4.12 4.68 6.5 -4.14 -4.13 -4.69zm0.02 -0.07l4.19 4.77 -6.6 4.21 -4.19 -4.77 6.6 -4.21z"/>
     <path id="_94" class="fil95" d="M10.71 0.7l-6.56 4.18 4.17 4.74 6.56 -4.18 -4.17 -4.74zm0.02 -0.08l4.24 4.82 -6.67 4.25 -4.24 -4.81 6.67 -4.26z"/>
     <path id="_95" class="fil96" d="M10.73 0.65l-6.64 4.23 4.22 4.79 6.63 -4.23 -4.21 -4.79zm0.01 -0.07l4.29 4.86 -6.74 4.3 -4.28 -4.86 6.73 -4.3z"/>
     <path id="_96" class="fil97" d="M10.74 0.6l-6.71 4.28 4.27 4.84 6.7 -4.28 -4.26 -4.84zm0.02 -0.07l4.33 4.92 -6.81 4.34 -4.33 -4.92 6.81 -4.34z"/>
     <path id="_97" class="fil98" d="M10.75 0.55l-6.77 4.32 4.3 4.9 6.78 -4.33 -4.31 -4.89zm0.02 -0.07l4.37 4.97 -6.88 4.39 -4.37 -4.97 6.88 -4.39z"/>
     <path id="_98" class="fil99" d="M10.76 0.5l-6.84 4.37 4.35 4.94 6.84 -4.36 -4.35 -4.95zm0.02 -0.07l4.42 5.02 -6.95 4.44 -4.42 -5.02 6.95 -4.44z"/>
     <path id="_99" class="fil100" d="M10.78 0.46l-6.92 4.41 4.4 4.99 6.91 -4.41 -4.39 -4.99zm0.02 -0.08l4.46 5.07 -7.02 4.48 -4.47 -5.07 7.03 -4.48z"/>
     <path id="_100" class="fil101" d="M10.79 0.41l-6.99 4.46 4.44 5.04 6.99 -4.46 -4.44 -5.04zm0.02 -0.07l4.51 5.12 -7.1 4.52 -4.5 -5.12 7.09 -4.52z"/>
     <path id="_101" class="fil102" d="M10.8 0.36l-7.05 4.5 4.48 5.1 7.06 -4.5 -4.49 -5.1zm0.02 -0.07l4.55 5.17 -7.16 4.57 -4.55 -5.17 7.16 -4.57z"/>
     <path id="_102" class="fil103" d="M10.82 0.31l-7.13 4.55 4.53 5.15 7.13 -4.55 -4.53 -5.15zm0.01 -0.07l4.6 5.22 -7.23 4.62 -4.6 -5.22 7.23 -4.62z"/>
     <path id="_103" class="fil104" d="M10.83 0.26l-7.2 4.6 4.58 5.19 7.19 -4.59 -4.57 -5.2zm0.02 -0.07l4.64 5.28 -7.3 4.66 -4.65 -5.28 7.31 -4.66z"/>
     <path id="_104" class="fil105" d="M10.84 0.22l-7.27 4.63 4.62 5.25 7.27 -4.63 -4.62 -5.25zm0.02 -0.08l4.69 5.33 -7.38 4.7 -4.68 -5.32 7.37 -4.71z"/>
     <path id="_105" class="fil106" d="M10.85 0.17l-7.33 4.68 4.66 5.3 7.34 -4.68 -4.67 -5.3zm0.02 -0.07l4.74 5.37 -7.45 4.75 -4.73 -5.37 7.44 -4.75z"/>
     <path id="_106" class="fil107" d="M10.87 0.12l-7.41 4.73 4.71 5.35 7.41 -4.73 -4.71 -5.35zm0.02 -0.07l4.77 5.43 -7.51 4.79 -4.78 -5.43 7.52 -4.79z"/>
     <path id="_107" class="fil108" d="M10.88 0.07l-7.48 4.77 4.75 5.41 7.48 -4.78 -4.75 -5.4zm0.02 -0.07l4.82 5.48 -7.59 4.84 -4.82 -5.48 7.59 -4.84z"/>
     <path id="_108" class="fil109" d="M10.89 0.02l-7.55 4.82 4.8 5.45 7.55 -4.81 -4.8 -5.46zm0.02 -0.07l4.87 5.53 -7.66 4.89 -4.86 -5.53 7.65 -4.89z"/>
     <path id="_109" class="fil109" d="M10.91 -0.02l-7.63 4.86 4.85 5.5 7.62 -4.86 -4.84 -5.5zm0.01 -0.08l4.92 5.58 -7.73 4.93 -4.91 -5.58 7.72 -4.93z"/>
     <path id="_110" class="fil110" d="M10.92 -0.07l-7.69 4.91 4.89 5.55 7.69 -4.91 -4.89 -5.55zm0.02 -0.07l4.95 5.63 -7.79 4.97 -4.96 -5.63 7.8 -4.97z"/>
     <path id="_111" class="fil111" d="M10.93 -0.12l-7.76 4.95 4.93 5.61 7.76 -4.95 -4.93 -5.61zm0.02 -0.07l5 5.68 -7.87 5.02 -5 -5.68 7.87 -5.02z"/>
     <path id="_112" class="fil111" d="M10.94 -0.17l-7.83 5 4.98 5.66 7.83 -5 -4.98 -5.66zm0.02 -0.07l5.05 5.73 -7.94 5.07 -5.05 -5.73 7.94 -5.07z"/>
     <path id="_113" class="fil111" d="M10.96 -0.22l-7.91 5.05 5.03 5.7 7.9 -5.04 -5.02 -5.71zm0.02 -0.07l5.09 5.79 -8.01 5.11 -5.09 -5.79 8.01 -5.11z"/>
     <path id="_114" class="fil112" d="M10.97 -0.26l-7.97 5.08 5.06 5.76 7.98 -5.09 -5.07 -5.75zm0.02 -0.08l5.13 5.84 -8.08 5.15 -5.13 -5.83 8.08 -5.16z"/>
     <path id="_115" class="fil113" d="M10.98 -0.31l-8.04 5.13 5.11 5.81 8.05 -5.13 -5.12 -5.81zm0.02 -0.07l5.18 5.88 -8.15 5.2 -5.18 -5.88 8.15 -5.2z"/>
     <path id="_116" class="fil113" d="M11 -0.36l-8.12 5.18 5.16 5.86 8.11 -5.18 -5.15 -5.86zm0.01 -0.07l5.23 5.94 -8.22 5.24 -5.23 -5.94 8.22 -5.24z"/>
     <path id="_117" class="fil113" d="M11.01 -0.41l-8.19 5.23 5.21 5.91 8.18 -5.23 -5.2 -5.91zm0.02 -0.07l5.27 5.99 -8.29 5.29 -5.27 -5.99 8.29 -5.29z"/>
     <path id="_118" class="fil114" d="M11.02 -0.46l-8.26 5.27 5.25 5.96 8.26 -5.26 -5.25 -5.97zm0.02 -0.07l5.32 6.04 -8.37 5.34 -5.31 -6.04 8.36 -5.34z"/>
     <path id="_119" class="fil114" d="M11.03 -0.5l-8.32 5.31 5.29 6.01 8.33 -5.31 -5.3 -6.01zm0.02 -0.08l5.36 6.09 -8.43 5.38 -5.36 -6.09 8.43 -5.38z"/>
     <path id="_120" class="fil114" d="M11.05 -0.55l-8.4 5.36 5.34 6.06 8.39 -5.36 -5.33 -6.06zm0.02 -0.07l5.4 6.14 -8.5 5.42 -5.41 -6.14 8.51 -5.42z"/>
     <path id="_121" class="fil114" d="M11.06 -0.6l-8.47 5.4 5.38 6.12 8.47 -5.4 -5.38 -6.12zm0.02 -0.07l5.45 6.19 -8.58 5.47 -5.44 -6.19 8.57 -5.47z"/>
     <path id="_122" class="fil115" d="M11.07 -0.65l-8.54 5.45 5.43 6.17 8.54 -5.45 -5.43 -6.17zm0.02 -0.07l5.5 6.24 -8.65 5.52 -5.49 -6.24 8.64 -5.52z"/>
     <path id="_123" class="fil115" d="M11.09 -0.7l-8.61 5.5 5.47 6.21 8.61 -5.49 -5.47 -6.22zm0.01 -0.07l5.54 6.3 -8.71 5.56 -5.54 -6.3 8.71 -5.56z"/>
     <path id="_124" class="fil115" d="M11.1 -0.74l-8.68 5.53 5.52 6.27 8.68 -5.54 -5.52 -6.26zm0.02 -0.08l5.58 6.35 -8.78 5.6 -5.59 -6.34 8.79 -5.61z"/>
     <path id="_125" class="fil116" d="M11.11 -0.79l-8.75 5.58 5.56 6.32 8.75 -5.58 -5.56 -6.32zm0.02 -0.07l5.63 6.39 -8.86 5.65 -5.63 -6.39 8.86 -5.65z"/>
     <path id="_126" class="fil117" d="M11.12 -0.84l-8.82 5.63 5.61 6.37 8.82 -5.63 -5.61 -6.37zm0.02 -0.07l5.68 6.44 -8.93 5.7 -5.67 -6.45 8.92 -5.69z"/>
     <path id="_127" class="fil118" d="M11.14 -0.89l-8.89 5.68 5.65 6.42 8.89 -5.68 -5.65 -6.42zm0.02 -0.07l5.71 6.5 -8.99 5.74 -5.72 -6.5 9 -5.74z"/>
     <path id="_128" class="fil118" d="M11.15 -0.94l-8.96 5.72 5.69 6.47 8.97 -5.71 -5.7 -6.48zm0.02 -0.07l5.76 6.55 -9.07 5.79 -5.76 -6.55 9.07 -5.79z"/>
     <path id="_129" class="fil119" d="M11.16 -0.98l-9.03 5.76 5.74 6.52 9.03 -5.76 -5.74 -6.52zm0.02 -0.08l5.81 6.6 -9.14 5.83 -5.81 -6.59 9.14 -5.84z"/>
     <path id="_130" class="fil120" d="M11.18 -1.03l-9.11 5.81 5.79 6.57 9.1 -5.81 -5.78 -6.57zm0.01 -0.07l5.86 6.65 -9.21 5.87 -5.85 -6.65 9.2 -5.87z"/>
     <path id="_131" class="fil120" d="M11.19 -1.08l-9.18 5.85 5.84 6.63 9.17 -5.85 -5.83 -6.63zm0.02 -0.07l5.9 6.7 -9.28 5.92 -5.9 -6.7 9.28 -5.92z"/>
     <path id="_132" class="fil120" d="M11.2 -1.13l-9.24 5.9 5.87 6.68 9.25 -5.9 -5.88 -6.68zm0.02 -0.07l5.94 6.75 -9.35 5.97 -5.94 -6.75 9.35 -5.97z"/>
     <path id="_133" class="fil121" d="M11.21 -1.18l-9.31 5.95 5.92 6.72 9.31 -5.94 -5.92 -6.73zm0.02 -0.07l5.99 6.81 -9.42 6.01 -5.99 -6.81 9.42 -6.01z"/>
     <path id="_134" class="fil122" d="M11.23 -1.22l-9.39 5.98 5.97 6.78 9.38 -5.99 -5.96 -6.77zm0.02 -0.08l6.03 6.86 -9.49 6.05 -6.03 -6.85 9.49 -6.06z"/>
     <path id="_135" class="fil122" d="M11.24 -1.27l-9.46 6.03 6.01 6.83 9.46 -6.03 -6.01 -6.83zm0.02 -0.07l6.08 6.9 -9.57 6.1 -6.07 -6.9 9.56 -6.1z"/>
     <path id="_136" class="fil123" d="M11.25 -1.32l-9.52 6.08 6.05 6.88 9.53 -6.08 -6.06 -6.88zm0.02 -0.07l6.12 6.95 -9.63 6.15 -6.12 -6.96 9.63 -6.14z"/>
     <path id="_137" class="fil123" d="M11.27 -1.37l-9.6 6.13 6.1 6.93 9.6 -6.13 -6.1 -6.93zm0.01 -0.07l6.17 7.01 -9.7 6.19 -6.17 -7.01 9.7 -6.19z"/>
     <path id="_138" class="fil124" d="M11.28 -1.42l-9.67 6.17 6.15 6.98 9.66 -6.16 -6.14 -6.99zm0.02 -0.07l6.21 7.06 -9.77 6.24 -6.22 -7.06 9.78 -6.24z"/>
     <path id="_139" class="fil125" d="M11.29 -1.46l-9.74 6.21 6.19 7.03 9.74 -6.21 -6.19 -7.03zm0.02 -0.08l6.26 7.11 -9.85 6.28 -6.25 -7.1 9.84 -6.29z"/>
     <path id="_140" class="fil126" d="M11.3 -1.51l-9.8 6.26 6.23 7.08 9.81 -6.26 -6.24 -7.08zm0.02 -0.07l6.31 7.16 -9.92 6.32 -6.3 -7.16 9.91 -6.32z"/>
     <path id="_141" class="fil126" d="M11.32 -1.56l-9.88 6.3 6.28 7.14 9.88 -6.31 -6.28 -7.13zm0.02 -0.07l6.34 7.21 -9.98 6.37 -6.35 -7.21 9.99 -6.37z"/>
     <path id="_142" class="fil127" d="M11.33 -1.61l-9.95 6.35 6.32 7.19 9.95 -6.35 -6.32 -7.19zm0.02 -0.07l6.39 7.26 -10.06 6.42 -6.39 -7.26 10.06 -6.42z"/>
     <path id="_143" class="fil127" d="M11.34 -1.66l-10.02 6.4 6.37 7.23 10.02 -6.39 -6.37 -7.24zm0.02 -0.07l6.44 7.32 -10.13 6.46 -6.43 -7.32 10.12 -6.46z"/>
     <path id="_144" class="fil128" d="M11.36 -1.7l-10.1 6.44 6.42 7.28 10.09 -6.44 -6.41 -7.28zm0.01 -0.07l6.49 7.36 -10.2 6.5 -6.48 -7.36 10.19 -6.5z"/>
     <path id="_145" class="fil128" d="M11.37 -1.75l-10.16 6.48 6.46 7.34 10.16 -6.48 -6.46 -7.34zm0.02 -0.07l6.52 7.41 -10.26 6.55 -6.53 -7.41 10.27 -6.55z"/>
     <path id="_146" class="fil129" d="M11.38 -1.8l-10.23 6.53 6.5 7.39 10.23 -6.53 -6.5 -7.39zm0.02 -0.07l6.57 7.46 -10.34 6.6 -6.57 -7.47 10.34 -6.59z"/>
     <path id="_147" class="fil130" d="M11.39 -1.85l-10.3 6.58 6.55 7.44 10.3 -6.58 -6.55 -7.44zm0.02 -0.07l6.62 7.52 -10.41 6.64 -6.62 -7.52 10.41 -6.64z"/>
     <path id="_148" class="fil130" d="M11.41 -1.89l-10.38 6.61 6.6 7.49 10.37 -6.61 -6.59 -7.49zm0.02 -0.08l6.66 7.57 -10.48 6.69 -6.66 -7.57 10.48 -6.69z"/>
     <path id="_149" class="fil131" d="M11.42 -1.94l-10.44 6.66 6.63 7.54 10.45 -6.66 -6.64 -7.54zm0.02 -0.07l6.7 7.61 -10.55 6.73 -6.7 -7.61 10.55 -6.73z"/>
     <path id="_150" class="fil131" d="M11.43 -1.99l-10.51 6.71 6.68 7.59 10.52 -6.71 -6.69 -7.59zm0.02 -0.07l6.75 7.67 -10.62 6.77 -6.75 -7.67 10.62 -6.77z"/>
     <path id="_151" class="fil132" d="M11.45 -2.04l-10.59 6.75 6.73 7.65 10.58 -6.76 -6.72 -7.64zm0.01 -0.07l6.8 7.72 -10.69 6.82 -6.8 -7.72 10.69 -6.82z"/>
     <path id="_152" class="fil133" d="M11.46 -2.09l-10.66 6.8 6.78 7.7 10.65 -6.8 -6.77 -7.7zm0.02 -0.07l6.84 7.77 -10.76 6.87 -6.84 -7.77 10.76 -6.87z"/>
     <path id="_153" class="fil134" d="M11.47 -2.13l-10.72 6.84 6.81 7.74 10.73 -6.84 -6.82 -7.74zm0.02 -0.08l6.89 7.82 -10.84 6.92 -6.88 -7.83 10.83 -6.91z"/>
     <path id="_154" class="fil134" d="M11.48 -2.18l-10.79 6.89 6.86 7.79 10.8 -6.89 -6.87 -7.79zm0.02 -0.07l6.93 7.87 -10.9 6.95 -6.93 -7.87 10.9 -6.95z"/>
     <path id="_155" class="fil135" d="M11.5 -2.23l-10.87 6.93 6.91 7.85 10.86 -6.93 -6.9 -7.85zm0.02 -0.07l6.97 7.92 -10.97 7 -6.98 -7.92 10.98 -7z"/>
     <path id="_156" class="fil135" d="M11.51 -2.28l-10.94 6.98 6.95 7.9 10.94 -6.98 -6.95 -7.9zm0.02 -0.07l7.02 7.97 -11.05 7.05 -7.01 -7.97 11.04 -7.05z"/>
     <path id="_157" class="fil136" d="M11.52 -2.33l-11.01 7.03 7 7.95 11.01 -7.03 -7 -7.95zm0.02 -0.07l7.07 8.03 -11.12 7.09 -7.06 -8.03 11.11 -7.09z"/>
     <path id="_158" class="fil136" d="M11.54 -2.37l-11.08 7.06 7.04 8 11.08 -7.06 -7.04 -8zm0.01 -0.08l7.11 8.08 -11.18 7.14 -7.11 -8.08 11.18 -7.14z"/>
     <path id="_159" class="fil137" d="M11.55 -2.42l-11.15 7.11 7.09 8.05 11.14 -7.11 -7.08 -8.05zm0.02 -0.07l7.15 8.12 -11.25 7.18 -7.16 -8.12 11.26 -7.18z"/>
     <path id="_160" class="fil137" d="M11.56 -2.47l-11.22 7.16 7.13 8.1 11.22 -7.16 -7.13 -8.1zm0.02 -0.07l7.2 8.18 -11.33 7.22 -7.2 -8.18 11.33 -7.22z"/>
     <path id="_161" class="fil138" d="M11.57 -2.52l-11.29 7.2 7.18 8.16 11.29 -7.21 -7.18 -8.15zm0.02 -0.07l7.25 8.23 -11.4 7.27 -7.24 -8.23 11.39 -7.27z"/>
     <path id="_162" class="fil139" d="M11.59 -2.57l-11.36 7.25 7.22 8.21 11.36 -7.25 -7.22 -8.21zm0.02 -0.07l7.28 8.28 -11.46 7.32 -7.29 -8.28 11.47 -7.32z"/>
     <path id="_163" class="fil139" d="M11.6 -2.61l-11.43 7.29 7.26 8.25 11.44 -7.29 -7.27 -8.25zm0.02 -0.08l7.33 8.33 -11.54 7.37 -7.33 -8.34 11.54 -7.36z"/>
     <path id="_164" class="fil140" d="M11.61 -2.66l-11.5 7.34 7.31 8.3 11.5 -7.34 -7.31 -8.3zm0.02 -0.07l7.38 8.38 -11.61 7.4 -7.38 -8.38 11.61 -7.4z"/>
     <path id="_165" class="fil141" d="M11.63 -2.71l-11.58 7.38 7.36 8.36 11.57 -7.38 -7.35 -8.36zm0.01 -0.07l7.43 8.43 -11.68 7.45 -7.42 -8.43 11.67 -7.45z"/>
     <path id="_166" class="fil142" d="M11.64 -2.76l-11.65 7.43 7.41 8.41 11.64 -7.43 -7.4 -8.41zm0.02 -0.07l7.47 8.48 -11.75 7.5 -7.47 -8.48 11.75 -7.5z"/>
     <path id="_167" class="fil142" d="M11.65 -2.81l-11.71 7.48 7.44 8.46 11.72 -7.48 -7.45 -8.46zm0.02 -0.07l7.51 8.54 -11.82 7.54 -7.51 -8.54 11.82 -7.54z"/>
     <path id="_168" class="fil142" d="M11.66 -2.85l-11.78 7.51 7.49 8.51 11.78 -7.52 -7.49 -8.5zm0.02 -0.08l7.56 8.59 -11.89 7.59 -7.56 -8.59 11.89 -7.59z"/>
     <path id="_169" class="fil143" d="M11.68 -2.9l-11.86 7.56 7.54 8.56 11.85 -7.56 -7.53 -8.56zm0.02 -0.07l7.6 8.63 -11.96 7.63 -7.6 -8.63 11.96 -7.63z"/>
     <path id="_170" class="fil144" d="M11.69 -2.95l-11.93 7.61 7.58 8.61 11.93 -7.61 -7.58 -8.61zm0.02 -0.07l7.65 8.69 -12.04 7.67 -7.64 -8.69 12.03 -7.67z"/>
     <path id="_171" class="fil144" d="M11.7 -3l-11.99 7.66 7.62 8.66 12 -7.66 -7.63 -8.66zm0.02 -0.07l7.69 8.74 -12.1 7.72 -7.69 -8.74 12.1 -7.72z"/>
     <path id="_172" class="fil144" d="M11.72 -3.05l-12.07 7.7 7.67 8.72 12.07 -7.7 -7.67 -8.72zm0.01 -0.07l7.74 8.79 -12.17 7.77 -7.74 -8.79 12.17 -7.77z"/>
     <path id="_173" class="fil145" d="M11.73 -3.09l-12.14 7.74 7.72 8.76 12.13 -7.74 -7.71 -8.76zm0.02 -0.08l7.78 8.84 -12.24 7.82 -7.79 -8.85 12.25 -7.81z"/>
     <path id="_174" class="fil145" d="M11.74 -3.14l-12.21 7.79 7.76 8.81 12.21 -7.79 -7.76 -8.81zm0.02 -0.07l7.83 8.89 -12.32 7.85 -7.82 -8.89 12.31 -7.85z"/>
     <path id="_175" class="fil145" d="M11.75 -3.19l-12.27 7.83 7.8 8.87 12.28 -7.83 -7.81 -8.87zm0.02 -0.07l7.87 8.94 -12.38 7.9 -7.87 -8.94 12.38 -7.9z"/>
     <path id="_176" class="fil146" d="M11.77 -3.24l-12.35 7.88 7.85 8.92 12.35 -7.88 -7.85 -8.92zm0.02 -0.07l7.91 8.99 -12.45 7.95 -7.92 -8.99 12.46 -7.95z"/>
     <path id="_177" class="fil147" d="M11.78 -3.29l-12.42 7.93 7.89 8.97 12.42 -7.93 -7.89 -8.97zm0.02 -0.07l7.96 9.05 -12.53 7.99 -7.96 -9.05 12.53 -7.99z"/>
     <path id="_178" class="fil147" d="M11.79 -3.33l-12.49 7.96 7.94 9.02 12.49 -7.97 -7.94 -9.01zm0.02 -0.08l8.01 9.1 -12.6 8.04 -8 -9.1 12.59 -8.04z"/>
     <path id="_179" class="fil147" d="M11.81 -3.38l-12.57 8.01 7.99 9.07 12.56 -8.01 -7.98 -9.07zm0.01 -0.07l8.06 9.14 -12.67 8.08 -8.05 -9.14 12.66 -8.08z"/>
     <path id="_180" class="fil147" d="M11.82 -3.43l-12.63 8.06 8.03 9.12 12.63 -8.06 -8.03 -9.12zm0.02 -0.07l8.09 9.19 -12.73 8.13 -8.1 -9.2 12.74 -8.12z"/>
     <path id="_181" class="fil148" d="M11.83 -3.48l-12.7 8.11 8.07 9.17 12.7 -8.11 -8.07 -9.17zm0.02 -0.07l8.14 9.25 -12.81 8.17 -8.14 -9.25 12.81 -8.17z"/>
     <path id="_182" class="fil148" d="M11.84 -3.53l-12.77 8.15 8.12 9.23 12.77 -8.15 -8.12 -9.23zm0.02 -0.07l8.19 9.3 -12.88 8.22 -8.18 -9.3 12.87 -8.22z"/>
     <path id="_183" class="fil148" d="M11.86 -3.57l-12.85 8.19 8.17 9.27 12.84 -8.19 -8.16 -9.27zm0.02 -0.08l8.23 9.35 -12.95 8.27 -8.23 -9.35 12.95 -8.27z"/>
     <path id="_184" class="fil149" d="M11.87 -3.62l-12.91 8.24 8.2 9.32 12.92 -8.24 -8.21 -9.32zm0.02 -0.07l8.27 9.4 -13.02 8.3 -8.27 -9.4 13.02 -8.3z"/>
     <path id="_185" class="fil149" d="M11.88 -3.67l-12.98 8.28 8.25 9.38 12.99 -8.28 -8.26 -9.38zm0.02 -0.07l8.32 9.45 -13.09 8.35 -8.32 -9.45 13.09 -8.35z"/>
     <path id="_186" class="fil149" d="M11.9 -3.72l-13.06 8.33 8.3 9.43 13.05 -8.33 -8.29 -9.43zm0.01 -0.07l8.37 9.5 -13.16 8.4 -8.37 -9.5 13.16 -8.4z"/>
     <path id="_187" class="fil149" d="M11.91 -3.77l-13.13 8.38 8.35 9.48 13.12 -8.38 -8.34 -9.48zm0.02 -0.07l8.41 9.56 -13.23 8.44 -8.41 -9.56 13.23 -8.44z"/>
     <path id="_188" class="fil150" d="M11.92 -3.81l-13.19 8.41 8.38 9.53 13.2 -8.42 -8.39 -9.52zm0.02 -0.08l8.46 9.61 -13.31 8.49 -8.45 -9.61 13.3 -8.49z"/>
     <path id="_189" class="fil151" d="M11.93 -3.86l-13.26 8.46 8.43 9.58 13.27 -8.46 -8.44 -9.58zm0.02 -0.07l8.5 9.65 -13.37 8.53 -8.5 -9.65 13.37 -8.53z"/>
     <path id="_190" class="fil151" d="M11.95 -3.91l-13.34 8.51 8.48 9.63 13.33 -8.51 -8.47 -9.63zm0.02 -0.07l8.54 9.7 -13.44 8.58 -8.55 -9.71 13.45 -8.57z"/>
     <path id="_191" class="fil151" d="M11.96 -3.96l-13.41 8.56 8.52 9.68 13.41 -8.56 -8.52 -9.68zm0.02 -0.07l8.59 9.76 -13.52 8.62 -8.58 -9.76 13.51 -8.62z"/>
     <path id="_192" class="fil152" d="M11.97 -4.01l-13.48 8.6 8.57 9.74 13.48 -8.6 -8.57 -9.74zm0.02 -0.07l8.64 9.81 -13.59 8.67 -8.63 -9.81 13.58 -8.67z"/>
     <path id="_193" class="fil152" d="M11.99 -4.05l-13.55 8.64 8.61 9.78 13.55 -8.64 -8.61 -9.78zm0.01 -0.08l8.68 9.86 -13.65 8.72 -8.68 -9.86 13.65 -8.72z"/>
     <path id="_194" class="fil152" d="M12 -4.1l-13.62 8.69 8.66 9.83 13.61 -8.69 -8.65 -9.83zm0.02 -0.07l8.72 9.91 -13.72 8.75 -8.73 -9.91 13.73 -8.75z"/>
     <path id="_195" class="fil153" d="M12.01 -4.15l-13.69 8.73 8.7 9.89 13.69 -8.73 -8.7 -9.89zm0.02 -0.07l8.77 9.96 -13.8 8.8 -8.77 -9.96 13.8 -8.8z"/>
     <path id="_196" class="fil154" d="M12.02 -4.2l-13.76 8.78 8.75 9.94 13.76 -8.78 -8.75 -9.94zm0.02 -0.07l8.82 10.01 -13.87 8.85 -8.81 -10.01 13.86 -8.85z"/>
     <path id="_197" class="fil154" d="M12.04 -4.25l-13.83 8.83 8.79 9.99 13.83 -8.83 -8.79 -9.99zm0.02 -0.07l8.85 10.07 -13.93 8.89 -8.86 -10.07 13.94 -8.89z"/>
     <path id="_198" class="fil154" d="M12.05 -4.29l-13.9 8.86 8.83 10.04 13.91 -8.87 -8.84 -10.03zm0.02 -0.08l8.9 10.12 -14.01 8.94 -8.9 -10.12 14.01 -8.94z"/>
     <path id="_199" class="fil155" d="M12.06 -4.34l-13.97 8.91 8.88 10.09 13.97 -8.91 -8.88 -10.09zm0.02 -0.07l8.95 10.16 -14.08 8.98 -8.95 -10.16 14.08 -8.98z"/>
     <path id="_200" class="fil156" d="M12.08 -4.39l-14.05 8.96 8.93 10.14 14.04 -8.96 -8.92 -10.14zm0.01 -0.07l9 10.21 -14.15 9.03 -8.99 -10.22 14.14 -9.02z"/>
     <path id="_201" class="fil157" d="M12.09 -4.44l-14.11 9.01 8.97 10.19 14.11 -9.01 -8.97 -10.19zm0.02 -0.07l9.04 10.27 -14.22 9.07 -9.04 -10.27 14.22 -9.07z"/>
     <path id="_202" class="fil157" d="M12.1 -4.49l-14.18 9.05 9.01 10.25 14.19 -9.05 -9.02 -10.25zm0.02 -0.07l9.08 10.32 -14.29 9.12 -9.08 -10.32 14.29 -9.12z"/>
     <path id="_203" class="fil158" d="M12.11 -4.53l-14.25 9.09 9.06 10.29 14.25 -9.09 -9.06 -10.29zm0.02 -0.08l9.13 10.37 -14.36 9.17 -9.13 -10.37 14.36 -9.17z"/>
     <path id="_204" class="fil159" d="M12.13 -4.58l-14.33 9.14 9.11 10.34 14.32 -9.14 -9.1 -10.34zm0.02 -0.07l9.17 10.42 -14.43 9.2 -9.17 -10.42 14.43 -9.2z"/>
     <path id="_205" class="fil159" d="M12.14 -4.63l-14.4 9.18 9.15 10.4 14.4 -9.19 -9.15 -10.39zm0.02 -0.07l9.22 10.47 -14.5 9.25 -9.22 -10.47 14.5 -9.25z"/>
     <path id="_206" class="fil159" d="M12.15 -4.68l-14.46 9.23 9.19 10.45 14.47 -9.23 -9.2 -10.45zm0.02 -0.07l9.26 10.52 -14.57 9.3 -9.26 -10.52 14.57 -9.3z"/>
     <path id="_207" class="fil160" d="M12.17 -4.73l-14.54 9.28 9.24 10.5 14.53 -9.28 -9.23 -10.5zm0.01 -0.07l9.31 10.58 -14.64 9.34 -9.31 -10.58 14.64 -9.34z"/>
     <path id="_208" class="fil161" d="M12.18 -4.77l-14.61 9.32 9.29 10.54 14.6 -9.32 -9.28 -10.54zm0.02 -0.08l9.35 10.63 -14.71 9.39 -9.36 -10.63 14.72 -9.39z"/>
     <path id="_209" class="fil161" d="M12.19 -4.82l-14.68 9.36 9.33 10.6 14.68 -9.36 -9.33 -10.6zm0.02 -0.07l9.4 10.67 -14.79 9.43 -9.39 -10.67 14.78 -9.43z"/>
     <path id="_210" class="fil162" d="M12.2 -4.87l-14.74 9.41 9.37 10.65 14.75 -9.41 -9.38 -10.65zm0.02 -0.07l9.44 10.72 -14.85 9.48 -9.44 -10.73 14.85 -9.47z"/>
     <path id="_211" class="fil162" d="M12.22 -4.92l-14.82 9.46 9.42 10.7 14.82 -9.46 -9.42 -10.7zm0.02 -0.07l9.48 10.78 -14.92 9.52 -9.49 -10.78 14.93 -9.52z"/>
     <path id="_212" class="fil163" d="M12.23 -4.97l-14.89 9.5 9.46 10.76 14.89 -9.5 -9.46 -10.76zm0.02 -0.07l9.53 10.83 -15 9.57 -9.53 -10.83 15 -9.57z"/>
     <path id="_213" class="fil164" d="M12.24 -5.01l-14.96 9.54 9.51 10.8 14.96 -9.54 -9.51 -10.8zm0.02 -0.08l9.58 10.88 -15.07 9.62 -9.57 -10.88 15.06 -9.62z"/>
     <path id="_214" class="fil165" d="M12.26 -5.06l-15.04 9.59 9.56 10.85 15.03 -9.59 -9.55 -10.85zm0.01 -0.07l9.63 10.93 -15.14 9.65 -9.62 -10.93 15.13 -9.65z"/>
     <path id="_215" class="fil165" d="M12.27 -5.11l-15.1 9.63 9.6 10.91 15.1 -9.64 -9.6 -10.9zm0.02 -0.07l9.66 10.98 -15.2 9.7 -9.67 -10.98 15.21 -9.7z"/>
     <path id="_216" class="fil166" d="M12.28 -5.16l-15.17 9.68 9.64 10.96 15.17 -9.68 -9.64 -10.96zm0.02 -0.07l9.71 11.03 -15.28 9.75 -9.71 -11.03 15.28 -9.75z"/>
     <path id="_217" class="fil166" d="M12.29 -5.21l-15.24 9.73 9.69 11.01 15.24 -9.73 -9.69 -11.01zm0.02 -0.07l9.76 11.08 -15.35 9.8 -9.75 -11.09 15.34 -9.79z"/>
     <path id="_218" class="fil167" d="M12.31 -5.25l-15.32 9.77 9.74 11.05 15.31 -9.77 -9.73 -11.05zm0.02 -0.08l9.8 11.14 -15.42 9.84 -9.8 -11.14 15.42 -9.84z"/>
     <path id="_219" class="fil167" d="M12.32 -5.3l-15.38 9.81 9.77 11.11 15.39 -9.81 -9.78 -11.11zm0.02 -0.07l9.84 11.18 -15.49 9.88 -9.84 -11.18 15.49 -9.88z"/>
     <path id="_220" class="fil168" d="M12.33 -5.35l-15.45 9.86 9.82 11.16 15.46 -9.86 -9.83 -11.16zm0.02 -0.07l9.89 11.23 -15.56 9.93 -9.89 -11.23 15.56 -9.93z"/>
     <path id="_221" class="fil169" d="M12.35 -5.4l-15.53 9.91 9.87 11.21 15.52 -9.91 -9.86 -11.21zm0.01 -0.07l9.94 11.29 -15.63 9.97 -9.94 -11.29 15.63 -9.97z"/>
     <path id="_222" class="fil169" d="M12.36 -5.45l-15.6 9.95 9.92 11.27 15.59 -9.95 -9.91 -11.27zm0.02 -0.07l9.98 11.34 -15.7 10.02 -9.98 -11.34 15.7 -10.02z"/>
     <path id="_223" class="fil170" d="M12.37 -5.49l-15.66 9.99 9.95 11.31 15.67 -9.99 -9.96 -11.31zm0.02 -0.08l10.02 11.39 -15.77 10.07 -10.02 -11.39 15.77 -10.07z"/>
     <path id="_224" class="fil170" d="M12.38 -5.54l-15.73 10.04 10 11.36 15.74 -10.04 -10.01 -11.36zm0.02 -0.07l10.07 11.44 -15.84 10.1 -10.07 -11.44 15.84 -10.1z"/>
     <path id="_225" class="fil171" d="M12.4 -5.59l-15.81 10.08 10.05 11.42 15.8 -10.09 -10.04 -11.41zm0.02 -0.07l10.11 11.49 -15.91 10.15 -10.12 -11.49 15.92 -10.15z"/>
     <path id="_226" class="fil172" d="M12.41 -5.64l-15.88 10.13 10.09 11.47 15.88 -10.13 -10.09 -11.47zm0.02 -0.07l10.16 11.54 -15.99 10.2 -10.15 -11.54 15.98 -10.2z"/>
     <path id="_227" class="fil173" d="M12.42 -5.69l-15.95 10.18 10.14 11.52 15.95 -10.18 -10.14 -11.52zm0.02 -0.07l10.21 11.59 -16.06 10.25 -10.2 -11.6 16.05 -10.24z"/>
     <path id="_228" class="fil173" d="M12.44 -5.73l-16.02 10.22 10.18 11.56 16.02 -10.22 -10.18 -11.56zm0.01 -0.08l10.25 11.65 -16.12 10.29 -10.25 -11.65 16.12 -10.29z"/>
     <path id="_229" class="fil174" d="M12.45 -5.78l-16.09 10.26 10.23 11.62 16.08 -10.26 -10.22 -11.62zm0.02 -0.07l10.29 11.69 -16.19 10.33 -10.3 -11.69 16.2 -10.33z"/>
     <path id="_230" class="fil174" d="M12.46 -5.83l-16.16 10.31 10.27 11.67 16.16 -10.31 -10.27 -11.67zm0.02 -0.07l10.34 11.74 -16.27 10.38 -10.34 -11.74 16.27 -10.38z"/>
     <path id="_231" class="fil175" d="M12.47 -5.88l-16.23 10.36 10.32 11.72 16.23 -10.36 -10.32 -11.72zm0.02 -0.07l10.39 11.8 -16.34 10.42 -10.38 -11.8 16.33 -10.42z"/>
     <path id="_232" class="fil176" d="M12.49 -5.93l-16.3 10.4 10.36 11.77 16.3 -10.4 -10.36 -11.77zm0.02 -0.07l10.42 11.85 -16.4 10.47 -10.43 -11.85 16.41 -10.47z"/>
     <path id="_233" class="fil176" d="M12.5 -5.97l-16.37 10.44 10.4 11.82 16.38 -10.44 -10.41 -11.82zm0.02 -0.08l10.47 11.9 -16.48 10.51 -10.47 -11.89 16.48 -10.52z"/>
     <path id="_234" class="fil176" d="M12.51 -6.02l-16.44 10.49 10.45 11.87 16.44 -10.49 -10.45 -11.87zm0.02 -0.07l10.52 11.95 -16.55 10.55 -10.52 -11.95 16.55 -10.55z"/>
     <path id="_235" class="fil177" d="M12.53 -6.07l-16.52 10.54 10.5 11.92 16.51 -10.54 -10.49 -11.92zm0.01 -0.07l10.57 12 -16.62 10.6 -10.56 -12 16.61 -10.6z"/>
     <path id="_236" class="fil178" d="M12.54 -6.12l-16.58 10.58 10.54 11.98 16.58 -10.58 -10.54 -11.98zm0.02 -0.07l10.61 12.05 -16.69 10.65 -10.61 -12.05 16.69 -10.65z"/>
     <path id="_237" class="fil178" d="M12.55 -6.17l-16.65 10.63 10.58 12.02 16.66 -10.62 -10.59 -12.03zm0.02 -0.07l10.65 12.1 -16.76 10.7 -10.65 -12.11 16.76 -10.69z"/>
     <path id="_238" class="fil179" d="M12.56 -6.21l-16.72 10.67 10.63 12.07 16.72 -10.67 -10.63 -12.07zm0.02 -0.08l10.7 12.16 -16.83 10.73 -10.7 -12.15 16.83 -10.74z"/>
     <path id="_239" class="fil180" d="M12.58 -6.26l-16.8 10.71 10.68 12.13 16.79 -10.71 -10.67 -12.13zm0.02 -0.07l10.74 12.2 -16.9 10.78 -10.74 -12.2 16.9 -10.78z"/>
     <path id="_240" class="fil181" d="M12.59 -6.31l-16.87 10.76 10.72 12.18 16.87 -10.76 -10.72 -12.18zm0.02 -0.07l10.79 12.25 -16.98 10.83 -10.78 -12.25 16.97 -10.83z"/>
     <path id="_241" class="fil181" d="M12.6 -6.36l-16.93 10.81 10.76 12.23 16.94 -10.81 -10.77 -12.23zm0.02 -0.07l10.83 12.31 -17.04 10.87 -10.83 -12.31 17.04 -10.87z"/>
     <path id="_242" class="fil181" d="M12.62 -6.41l-17.01 10.85 10.81 12.28 17 -10.85 -10.8 -12.28zm0.01 -0.07l10.88 12.36 -17.11 10.92 -10.88 -12.36 17.11 -10.92z"/>
     <path id="_243" class="fil182" d="M12.63 -6.45l-17.08 10.89 10.86 12.33 17.07 -10.89 -10.85 -12.33zm0.02 -0.08l10.92 12.41 -17.18 10.96 -10.93 -12.4 17.19 -10.97z"/>
     <path id="_244" class="fil183" d="M12.64 -6.5l-17.15 10.94 10.9 12.38 17.15 -10.94 -10.9 -12.38zm0.02 -0.07l10.97 12.45 -17.26 11.01 -10.96 -12.46 17.25 -11z"/>
     <path id="_245" class="fil183" d="M12.65 -6.55l-17.21 10.99 10.94 12.43 17.22 -10.99 -10.95 -12.43zm0.02 -0.07l11.01 12.51 -17.32 11.05 -11.01 -12.51 17.32 -11.05z"/>
     <path id="_246" class="fil183" d="M12.67 -6.6l-17.29 11.03 10.99 12.49 17.29 -11.03 -10.99 -12.49zm0.02 -0.07l11.05 12.56 -17.39 11.1 -11.06 -12.56 17.4 -11.1z"/>
     <path id="_247" class="fil184" d="M12.68 -6.65l-17.36 11.08 11.03 12.53 17.36 -11.07 -11.03 -12.54zm0.02 -0.07l11.1 12.61 -17.46 11.15 -11.11 -12.61 17.47 -11.15z"/>
     <path id="_248" class="fil184" d="M12.69 -6.69l-17.43 11.12 11.08 12.58 17.43 -11.12 -11.08 -12.58zm0.02 -0.08l11.15 12.67 -17.54 11.18 -11.14 -12.66 17.53 -11.19z"/>
     <path id="_249" class="fil184" d="M12.71 -6.74l-17.5 11.16 11.12 12.64 17.5 -11.16 -11.12 -12.64zm0.01 -0.07l11.2 12.71 -17.61 11.23 -11.19 -12.71 17.6 -11.23z"/>
     <path id="_250" class="fil185" d="M12.72 -6.79l-17.57 11.21 11.17 12.69 17.57 -11.21 -11.17 -12.69zm0.02 -0.07l11.23 12.76 -17.67 11.28 -11.24 -12.76 17.68 -11.28z"/>
     <path id="_251" class="fil186" d="M12.73 -6.84l-17.64 11.26 11.21 12.74 17.64 -11.26 -11.21 -12.74zm0.02 -0.07l11.28 12.82 -17.75 11.32 -11.28 -12.82 17.75 -11.32z"/>
     <path id="_252" class="fil186" d="M12.74 -6.89l-17.71 11.3 11.26 12.79 17.71 -11.3 -11.26 -12.79zm0.02 -0.07l11.33 12.87 -17.82 11.37 -11.32 -12.87 17.81 -11.37z"/>
     <path id="_253" class="fil186" d="M12.76 -6.93l-17.79 11.34 11.31 12.84 17.78 -11.34 -11.3 -12.84zm0.02 -0.08l11.37 12.92 -17.89 11.41 -11.37 -12.91 17.89 -11.42z"/>
     <path id="_254" class="fil186" d="M12.77 -6.98l-17.85 11.39 11.34 12.89 17.86 -11.39 -11.35 -12.89zm0.02 -0.07l11.41 12.96 -17.95 11.46 -11.42 -12.97 17.96 -11.45z"/>
     <path id="_255" class="fil1" d="M12.78 -7.03l-17.92 11.44 11.39 12.94 17.92 -11.44 -11.39 -12.94zm0.02 -0.07l11.46 13.02 -18.03 11.5 -11.46 -13.02 18.03 -11.5z"/>
     <path id="_256" class="fil1" d="M12.8 -7.08l-18 11.48 11.44 13 17.99 -11.48 -11.43 -13zm0.01 -0.05l11.48 13.05 -18.06 11.52 -11.49 -13.04 18.07 -11.53z"/>
    </g>
   </g>
   <path class="fil0" d="M2.58 2.19c0.59,-0.28 1.3,0.39 1.01,0.98 -0.2,0.58 -1.08,0.6 -1.37,0.11 -0.17,-0.38 -0.1,-0.95 0.36,-1.09z"/>
   <path class="fil0" d="M12.87 2.23c0.43,-0.15 0.96,0.14 0.97,0.62 0.09,0.58 -0.67,0.96 -1.11,0.61 -0.49,-0.27 -0.35,-1.04 0.14,-1.23z"/>
   <path class="fil0" d="M0.54 7.27c0.52,-0.18 1.11,0.35 0.97,0.89 -0.07,0.64 -1,0.81 -1.36,0.32 -0.31,-0.4 -0.12,-1.08 0.39,-1.21z"/>
   <path class="fil0" d="M15.16 7.28c0.52,-0.08 1.04,0.51 0.77,1.01 -0.2,0.55 -1.17,0.57 -1.34,-0.02 -0.21,-0.42 0.13,-0.92 0.57,-0.99z"/>
   <path class="fil0" d="M2.57 12.42c0.55,-0.26 1.21,0.32 1.02,0.9 -0.12,0.52 -0.84,0.72 -1.23,0.36 -0.42,-0.33 -0.29,-1.08 0.21,-1.26z"/>
   <path class="fil0" d="M12.72 12.47c0.46,-0.3 1.17,0.07 1.13,0.63 0.05,0.53 -0.59,0.95 -1.05,0.68 -0.52,-0.21 -0.55,-1.04 -0.08,-1.31z"/>
   <g id="_2056981951920">
    <path class="fil0" d="M6.13 15.33c1.07,-0.15 2.17,-0.08 3.25,-0.07 0.43,0.02 1.12,0.16 1.1,0.71 -0.06,0.44 0.06,0.89 -0.05,1.31 -0.39,0.45 -1.05,0.41 -1.6,0.44 -0.84,-0.02 -1.69,0.05 -2.53,-0.06 -0.32,-0.06 -0.75,-0.22 -0.77,-0.61 -0.02,-0.44 -0.04,-0.88 0.01,-1.32 0.11,-0.22 0.36,-0.34 0.59,-0.4zm0.3 0.73l0 0c1.04,0.11 2.1,0.11 3.14,0 -0.5,-0.21 -1.04,-0.13 -1.57,-0.14 -0.52,0.02 -1.07,-0.07 -1.57,0.14zm0.03 0.76l0 0c0.1,0.31 0.47,0.2 0.72,0.23 0.68,-0.01 1.36,0.02 2.05,-0.02 0.15,0.01 0.26,-0.06 0.31,-0.21 -1.02,-0.04 -2.05,-0.04 -3.08,0z"/>
   </g>
   <path class="fil0" d="M6.56 17.89c0.96,-0.02 1.92,-0.02 2.88,0 -0.34,1.27 -2.55,1.28 -2.88,0z"/>
  </g>
 </g>
</svg>
