<?xml version="1.0" encoding="UTF-8"?>
<!DOCTYPE svg PUBLIC "-//W3C//DTD SVG 1.1//EN" "http://www.w3.org/Graphics/SVG/1.1/DTD/svg11.dtd">
<!-- Creator: CorelDRAW 2021 (64-Bit) -->
<svg xmlns="http://www.w3.org/2000/svg" xml:space="preserve" width="311px" height="366px" version="1.1" style="shape-rendering:geometricPrecision; text-rendering:geometricPrecision; image-rendering:optimizeQuality; fill-rule:evenodd; clip-rule:evenodd"
viewBox="0 0 16.04 18.89"
 xmlns:xlink="http://www.w3.org/1999/xlink"
 xmlns:xodm="http://www.corel.com/coreldraw/odm/2003">
 <defs>
  <style type="text/css">
   <![CDATA[
    .fil0 {fill:white;fill-rule:nonzero}
    .fil1 {fill:url(#id0);fill-rule:nonzero}
   ]]>
  </style>
  <linearGradient id="id0" gradientUnits="userSpaceOnUse" x1="3.6" y1="12.53" x2="13.8" y2="3.85">
   <stop offset="0" style="stop-opacity:1; stop-color:#CCCCCC"/>
   <stop offset="0.196078" style="stop-opacity:1; stop-color:#E5E5E5"/>
   <stop offset="0.470588" style="stop-opacity:1; stop-color:white"/>
   <stop offset="1" style="stop-opacity:1; stop-color:#CCCCCC"/>
  </linearGradient>
 </defs>
 <g id="Capa_x0020_1">
  <metadata id="CorelCorpID_0Corel-Layer"/>
  <path class="fil0" d="M7.82 0.03c0.7,-0.23 1.31,0.8 0.71,1.28 -0.38,0.44 -1.07,0.16 -1.26,-0.32 -0.12,-0.4 0.16,-0.83 0.55,-0.96z"/>
  <path class="fil1" d="M4.93 1.25c0.89,-0.46 1.75,0.22 2.6,0.42 0.96,0.21 1.77,-0.48 2.68,-0.62 0.41,-0.09 0.79,0.18 1.07,0.45 0.54,0.62 0.64,1.5 1.16,2.13 0.63,0.59 1.57,0.65 2.19,1.24 0.21,0.23 0.41,0.51 0.37,0.84 -0.08,0.82 -0.62,1.52 -0.72,2.34 0.03,0.96 0.89,1.78 0.61,2.76 -0.1,0.54 -0.66,0.76 -1.1,0.96 -0.63,0.29 -1.39,0.49 -1.71,1.17 -0.54,0.98 -1.29,2.05 -2.52,2.12 -0.03,-1.47 0.33,-3.03 1.34,-4.13 0.54,-0.59 1.13,-1.19 1.31,-1.99 0.31,-1.23 0.18,-2.62 -0.56,-3.68 -0.63,-1.02 -1.74,-1.73 -2.94,-1.81 -0.81,-0.04 -1.68,-0.1 -2.42,0.28 -0.84,0.38 -1.57,1 -2.02,1.81 -0.64,1.14 -0.71,2.57 -0.26,3.79 0.38,1.04 1.42,1.64 1.87,2.65 0.43,0.97 0.67,2.03 0.63,3.1 -0.4,-0.07 -0.82,-0.14 -1.16,-0.38 -0.67,-0.43 -1.05,-1.17 -1.46,-1.83 -0.56,-0.96 -1.86,-0.91 -2.58,-1.67 -0.28,-0.39 -0.3,-0.92 -0.14,-1.36 0.18,-0.68 0.66,-1.31 0.51,-2.04 -0.16,-0.68 -0.53,-1.28 -0.65,-1.96 -0.09,-0.4 0.15,-0.79 0.42,-1.07 0.6,-0.51 1.43,-0.63 2.04,-1.11 0.64,-0.7 0.66,-1.82 1.44,-2.41z"/>
  <path class="fil0" d="M2.59 2.2c0.58,-0.29 1.29,0.39 1.01,0.98 -0.2,0.58 -1.08,0.6 -1.38,0.11 -0.17,-0.39 -0.09,-0.96 0.37,-1.09z"/>
  <path class="fil0" d="M12.9 2.23c0.43,-0.15 0.97,0.14 0.97,0.62 0.09,0.58 -0.67,0.97 -1.11,0.62 -0.49,-0.27 -0.35,-1.04 0.14,-1.24z"/>
  <path class="fil0" d="M0.54 7.29c0.52,-0.19 1.11,0.35 0.97,0.89 -0.07,0.64 -1,0.81 -1.36,0.32 -0.31,-0.4 -0.12,-1.09 0.39,-1.21z"/>
  <path class="fil0" d="M15.2 7.3c0.52,-0.08 1.04,0.51 0.77,1.01 -0.21,0.55 -1.18,0.57 -1.35,-0.02 -0.2,-0.42 0.14,-0.92 0.58,-0.99z"/>
  <path class="fil0" d="M2.58 12.45c0.55,-0.26 1.21,0.32 1.02,0.9 -0.13,0.52 -0.84,0.73 -1.23,0.36 -0.42,-0.33 -0.3,-1.08 0.21,-1.26z"/>
  <path class="fil0" d="M12.75 12.5c0.46,-0.3 1.17,0.06 1.14,0.63 0.04,0.53 -0.59,0.95 -1.06,0.69 -0.52,-0.21 -0.56,-1.05 -0.08,-1.32z"/>
  <g id="_2057103641744">
   <path class="fil0" d="M6.15 15.37c1.07,-0.16 2.17,-0.09 3.25,-0.07 0.43,0.01 1.12,0.15 1.1,0.71 -0.06,0.43 0.06,0.89 -0.05,1.31 -0.39,0.45 -1.05,0.41 -1.6,0.44 -0.84,-0.02 -1.69,0.05 -2.53,-0.06 -0.33,-0.06 -0.76,-0.22 -0.78,-0.61 -0.01,-0.44 -0.04,-0.88 0.01,-1.32 0.12,-0.23 0.36,-0.35 0.6,-0.4zm0.29 0.73l0 0c1.05,0.1 2.11,0.11 3.15,-0.01 -0.5,-0.2 -1.04,-0.12 -1.57,-0.14 -0.52,0.02 -1.08,-0.07 -1.58,0.15zm0.03 0.76l0 0c0.11,0.31 0.47,0.2 0.72,0.23 0.69,-0.01 1.37,0.02 2.06,-0.02 0.15,0.01 0.26,-0.06 0.32,-0.21 -1.03,-0.04 -2.07,-0.04 -3.1,0z"/>
  </g>
  <path class="fil0" d="M6.57 17.93c0.97,-0.02 1.93,-0.02 2.89,0 -0.34,1.27 -2.55,1.28 -2.89,0z"/>
 </g>
</svg>
