<?xml version="1.0" encoding="UTF-8"?>
<!DOCTYPE svg PUBLIC "-//W3C//DTD SVG 1.1//EN" "http://www.w3.org/Graphics/SVG/1.1/DTD/svg11.dtd">
<!-- Creator: CorelDRAW 2021 (64-Bit) -->
<svg xmlns="http://www.w3.org/2000/svg" xml:space="preserve" width="301px" height="354px" version="1.1" style="shape-rendering:geometricPrecision; text-rendering:geometricPrecision; image-rendering:optimizeQuality; fill-rule:evenodd; clip-rule:evenodd"
viewBox="0 0 11.36 13.39"
 xmlns:xlink="http://www.w3.org/1999/xlink"
 xmlns:xodm="http://www.corel.com/coreldraw/odm/2003">
 <defs>
  <style type="text/css">
   <![CDATA[
    .fil107 {fill:#0B79B1;fill-rule:nonzero}
    .fil108 {fill:#0B79B2;fill-rule:nonzero}
    .fil109 {fill:#0B7AB2;fill-rule:nonzero}
    .fil110 {fill:#0B7BB3;fill-rule:nonzero}
    .fil111 {fill:#0C7BB3;fill-rule:nonzero}
    .fil112 {fill:#0C7CB4;fill-rule:nonzero}
    .fil113 {fill:#0C7DB5;fill-rule:nonzero}
    .fil114 {fill:#0C7DB6;fill-rule:nonzero}
    .fil115 {fill:#0C7EB6;fill-rule:nonzero}
    .fil116 {fill:#0D7EB6;fill-rule:nonzero}
    .fil117 {fill:#0D7EB7;fill-rule:nonzero}
    .fil118 {fill:#0D7FB7;fill-rule:nonzero}
    .fil119 {fill:#0D7FB8;fill-rule:nonzero}
    .fil120 {fill:#0D80B8;fill-rule:nonzero}
    .fil121 {fill:#0D80B9;fill-rule:nonzero}
    .fil122 {fill:#0D81B9;fill-rule:nonzero}
    .fil106 {fill:#0E7AB2;fill-rule:nonzero}
    .fil123 {fill:#0E81B9;fill-rule:nonzero}
    .fil124 {fill:#0E81BA;fill-rule:nonzero}
    .fil125 {fill:#0E82BA;fill-rule:nonzero}
    .fil126 {fill:#0E82BB;fill-rule:nonzero}
    .fil127 {fill:#0E83BB;fill-rule:nonzero}
    .fil128 {fill:#0E83BC;fill-rule:nonzero}
    .fil129 {fill:#0E84BC;fill-rule:nonzero}
    .fil130 {fill:#0E84BD;fill-rule:nonzero}
    .fil131 {fill:#0F84BD;fill-rule:nonzero}
    .fil132 {fill:#0F85BD;fill-rule:nonzero}
    .fil133 {fill:#0F85BE;fill-rule:nonzero}
    .fil134 {fill:#0F86BE;fill-rule:nonzero}
    .fil135 {fill:#0F86BF;fill-rule:nonzero}
    .fil136 {fill:#0F87BF;fill-rule:nonzero}
    .fil137 {fill:#0F87C0;fill-rule:nonzero}
    .fil105 {fill:#107CB3;fill-rule:nonzero}
    .fil138 {fill:#1087C0;fill-rule:nonzero}
    .fil139 {fill:#1088C0;fill-rule:nonzero}
    .fil140 {fill:#1088C1;fill-rule:nonzero}
    .fil141 {fill:#1089C1;fill-rule:nonzero}
    .fil142 {fill:#1089C2;fill-rule:nonzero}
    .fil143 {fill:#108AC3;fill-rule:nonzero}
    .fil144 {fill:#118AC3;fill-rule:nonzero}
    .fil145 {fill:#118BC4;fill-rule:nonzero}
    .fil146 {fill:#118CC5;fill-rule:nonzero}
    .fil147 {fill:#118DC6;fill-rule:nonzero}
    .fil148 {fill:#118EC7;fill-rule:nonzero}
    .fil104 {fill:#127DB3;fill-rule:nonzero}
    .fil149 {fill:#128EC7;fill-rule:nonzero}
    .fil150 {fill:#128FC8;fill-rule:nonzero}
    .fil151 {fill:#128FC9;fill-rule:nonzero}
    .fil152 {fill:#1290C9;fill-rule:nonzero}
    .fil153 {fill:#1290CA;fill-rule:nonzero}
    .fil154 {fill:#1291CA;fill-rule:nonzero}
    .fil155 {fill:#1391CA;fill-rule:nonzero}
    .fil156 {fill:#1391CB;fill-rule:nonzero}
    .fil157 {fill:#1392CB;fill-rule:nonzero}
    .fil158 {fill:#1392CC;fill-rule:nonzero}
    .fil159 {fill:#1393CC;fill-rule:nonzero}
    .fil160 {fill:#1393CD;fill-rule:nonzero}
    .fil161 {fill:#1394CD;fill-rule:nonzero}
    .fil103 {fill:#147EB4;fill-rule:nonzero}
    .fil162 {fill:#1494CD;fill-rule:nonzero}
    .fil163 {fill:#1494CE;fill-rule:nonzero}
    .fil164 {fill:#1495CE;fill-rule:nonzero}
    .fil165 {fill:#1495CF;fill-rule:nonzero}
    .fil166 {fill:#1496CF;fill-rule:nonzero}
    .fil167 {fill:#1496D0;fill-rule:nonzero}
    .fil168 {fill:#1497D0;fill-rule:nonzero}
    .fil169 {fill:#1497D1;fill-rule:nonzero}
    .fil170 {fill:#1597D1;fill-rule:nonzero}
    .fil171 {fill:#1598D1;fill-rule:nonzero}
    .fil172 {fill:#1598D2;fill-rule:nonzero}
    .fil102 {fill:#177FB5;fill-rule:nonzero}
    .fil101 {fill:#1981B5;fill-rule:nonzero}
    .fil100 {fill:#1B82B6;fill-rule:nonzero}
    .fil99 {fill:#1D83B7;fill-rule:nonzero}
    .fil98 {fill:#2084B8;fill-rule:nonzero}
    .fil97 {fill:#2286B8;fill-rule:nonzero}
    .fil96 {fill:#2487B9;fill-rule:nonzero}
    .fil95 {fill:#2788BA;fill-rule:nonzero}
    .fil94 {fill:#2989BB;fill-rule:nonzero}
    .fil93 {fill:#2B8BBB;fill-rule:nonzero}
    .fil92 {fill:#2D8CBC;fill-rule:nonzero}
    .fil91 {fill:#308DBD;fill-rule:nonzero}
    .fil90 {fill:#328EBD;fill-rule:nonzero}
    .fil89 {fill:#3490BE;fill-rule:nonzero}
    .fil88 {fill:#3791BF;fill-rule:nonzero}
    .fil87 {fill:#3992C0;fill-rule:nonzero}
    .fil86 {fill:#3B93C0;fill-rule:nonzero}
    .fil85 {fill:#3D95C1;fill-rule:nonzero}
    .fil84 {fill:#4096C2;fill-rule:nonzero}
    .fil83 {fill:#4297C3;fill-rule:nonzero}
    .fil82 {fill:#4498C3;fill-rule:nonzero}
    .fil81 {fill:#469AC4;fill-rule:nonzero}
    .fil80 {fill:#499BC5;fill-rule:nonzero}
    .fil79 {fill:#4B9CC5;fill-rule:nonzero}
    .fil78 {fill:#4D9DC6;fill-rule:nonzero}
    .fil77 {fill:#509FC7;fill-rule:nonzero}
    .fil76 {fill:#52A0C8;fill-rule:nonzero}
    .fil75 {fill:#54A1C8;fill-rule:nonzero}
    .fil74 {fill:#56A2C9;fill-rule:nonzero}
    .fil73 {fill:#59A4CA;fill-rule:nonzero}
    .fil72 {fill:#5BA5CB;fill-rule:nonzero}
    .fil71 {fill:#5DA6CB;fill-rule:nonzero}
    .fil70 {fill:#60A7CC;fill-rule:nonzero}
    .fil69 {fill:#62A9CD;fill-rule:nonzero}
    .fil68 {fill:#64AACD;fill-rule:nonzero}
    .fil67 {fill:#66ABCE;fill-rule:nonzero}
    .fil66 {fill:#69ACCF;fill-rule:nonzero}
    .fil65 {fill:#6BAED0;fill-rule:nonzero}
    .fil64 {fill:#6DAFD0;fill-rule:nonzero}
    .fil63 {fill:#6FB0D1;fill-rule:nonzero}
    .fil62 {fill:#72B1D2;fill-rule:nonzero}
    .fil61 {fill:#74B3D3;fill-rule:nonzero}
    .fil60 {fill:#76B4D3;fill-rule:nonzero}
    .fil59 {fill:#79B5D4;fill-rule:nonzero}
    .fil58 {fill:#7BB6D5;fill-rule:nonzero}
    .fil57 {fill:#7DB8D5;fill-rule:nonzero}
    .fil56 {fill:#7FB9D6;fill-rule:nonzero}
    .fil55 {fill:#82BAD7;fill-rule:nonzero}
    .fil54 {fill:#84BBD8;fill-rule:nonzero}
    .fil53 {fill:#86BDD8;fill-rule:nonzero}
    .fil52 {fill:#89BED9;fill-rule:nonzero}
    .fil51 {fill:#8BBFDA;fill-rule:nonzero}
    .fil50 {fill:#8DC0DB;fill-rule:nonzero}
    .fil49 {fill:#8FC2DB;fill-rule:nonzero}
    .fil48 {fill:#92C3DC;fill-rule:nonzero}
    .fil47 {fill:#94C4DD;fill-rule:nonzero}
    .fil46 {fill:#96C5DD;fill-rule:nonzero}
    .fil45 {fill:#98C7DE;fill-rule:nonzero}
    .fil44 {fill:#9BC8DF;fill-rule:nonzero}
    .fil43 {fill:#9DC9E0;fill-rule:nonzero}
    .fil42 {fill:#9FCAE0;fill-rule:nonzero}
    .fil41 {fill:#A2CCE1;fill-rule:nonzero}
    .fil40 {fill:#A4CDE2;fill-rule:nonzero}
    .fil39 {fill:#A6CEE3;fill-rule:nonzero}
    .fil38 {fill:#A8CFE3;fill-rule:nonzero}
    .fil37 {fill:#ABD1E4;fill-rule:nonzero}
    .fil36 {fill:#ADD2E5;fill-rule:nonzero}
    .fil35 {fill:#AFD3E6;fill-rule:nonzero}
    .fil34 {fill:#B2D4E6;fill-rule:nonzero}
    .fil33 {fill:#B4D6E7;fill-rule:nonzero}
    .fil32 {fill:#B6D7E8;fill-rule:nonzero}
    .fil31 {fill:#B8D8E8;fill-rule:nonzero}
    .fil30 {fill:#BBD9E9;fill-rule:nonzero}
    .fil29 {fill:#BDDBEA;fill-rule:nonzero}
    .fil28 {fill:#BFDCEB;fill-rule:nonzero}
    .fil27 {fill:#C1DDEB;fill-rule:nonzero}
    .fil26 {fill:#C4DEEC;fill-rule:nonzero}
    .fil25 {fill:#C6E0ED;fill-rule:nonzero}
    .fil24 {fill:#C8E1EE;fill-rule:nonzero}
    .fil23 {fill:#CBE2EE;fill-rule:nonzero}
    .fil22 {fill:#CDE3EF;fill-rule:nonzero}
    .fil21 {fill:#CFE5F0;fill-rule:nonzero}
    .fil20 {fill:#D1E6F0;fill-rule:nonzero}
    .fil19 {fill:#D4E7F1;fill-rule:nonzero}
    .fil18 {fill:#D6E8F2;fill-rule:nonzero}
    .fil17 {fill:#D8EAF3;fill-rule:nonzero}
    .fil16 {fill:#DBEBF3;fill-rule:nonzero}
    .fil15 {fill:#DDECF4;fill-rule:nonzero}
    .fil14 {fill:#DFEDF5;fill-rule:nonzero}
    .fil13 {fill:#E1EFF6;fill-rule:nonzero}
    .fil12 {fill:#E4F0F6;fill-rule:nonzero}
    .fil11 {fill:#E6F1F7;fill-rule:nonzero}
    .fil10 {fill:#E8F2F8;fill-rule:nonzero}
    .fil9 {fill:#EAF4F8;fill-rule:nonzero}
    .fil8 {fill:#EDF5F9;fill-rule:nonzero}
    .fil7 {fill:#EFF6FA;fill-rule:nonzero}
    .fil6 {fill:#F1F7FB;fill-rule:nonzero}
    .fil5 {fill:#F4F9FB;fill-rule:nonzero}
    .fil4 {fill:#F6FAFC;fill-rule:nonzero}
    .fil3 {fill:#F8FBFD;fill-rule:nonzero}
    .fil2 {fill:#FAFCFE;fill-rule:nonzero}
    .fil1 {fill:#FDFEFE;fill-rule:nonzero}
    .fil0 {fill:white;fill-rule:nonzero}
   ]]>
  </style>
     <clipPath id="id0" style="clip-rule:nonzero">
      <path d="M5.45 0.11c0.11,-0.05 0.24,-0.17 0.35,-0.07 0.9,0.52 1.84,1.03 2.88,1.18 0.89,0.16 1.79,0.05 2.68,0.02 -1.73,2.67 -3.46,5.33 -5.18,8 -0.17,0.24 -0.3,0.52 -0.51,0.73 -0.92,-1.32 -1.82,-2.66 -2.74,-3.98 -0.22,-0.34 -0.47,-0.66 -0.67,-1 0.53,-0.01 1.06,-0.02 1.59,0.01 0.61,0.87 1.19,1.76 1.81,2.63 1.02,-1.54 2.02,-3.11 3.03,-4.65 0.09,-0.13 0.16,-0.27 0.24,-0.4 -0.93,-0.1 -1.83,-0.37 -2.66,-0.79 -0.2,-0.09 -0.38,-0.23 -0.6,-0.28 -0.35,0.14 -0.67,0.35 -1.02,0.49 -1.03,0.46 -2.17,0.64 -3.29,0.61 -0.05,0.3 0.02,0.6 0.02,0.9 0.02,0.67 0.09,1.34 0.17,2.01 0.13,1.01 0.35,2.02 0.82,2.94 0.71,1.36 1.91,2.37 3.13,3.25 0.08,0.05 0.18,0.16 0.27,0.07 1.15,-0.81 2.27,-1.73 3.01,-2.94 0.65,-1.03 0.91,-2.24 1.06,-3.44 0.06,-0.32 0,-0.67 0.21,-0.95 0.43,-0.62 0.81,-1.29 1.27,-1.9 0.04,0.45 -0.04,0.9 -0.04,1.35 -0.11,1.77 -0.29,3.6 -1.13,5.2 -0.78,1.52 -2.1,2.68 -3.48,3.65 -0.32,0.21 -0.62,0.46 -0.96,0.64 -0.2,-0.04 -0.36,-0.21 -0.53,-0.31 -1.56,-1.07 -3.1,-2.31 -3.97,-4.02 -0.73,-1.41 -0.95,-3 -1.07,-4.56 -0.08,-1.08 -0.1,-2.17 -0.14,-3.25 0.8,0 1.6,0.13 2.4,0.02 1.1,-0.1 2.11,-0.6 3.05,-1.16z"/>
     </clipPath>
 </defs>
 <g id="Capa_x0020_1">
  <metadata id="CorelCorpID_0Corel-Layer"/>
  <g id="_2056981938336">
   <g>
    <g style="clip-path:url(#id0)">
     <polygon class="fil0" points="6.94,3.88 7,3.95 6.91,4.02 6.86,3.94 "/>
     <path id="_1" class="fil1" d="M6.94 3.9l-0.06 0.04 0.04 0.05 0.05 -0.04 -0.03 -0.05zm0.01 -0.07l0.09 0.12 -0.14 0.11 -0.09 -0.12 0.14 -0.11z"/>
     <path id="_2" class="fil2" d="M6.95 3.86l-0.12 0.08 0.08 0.1 0.11 -0.09 -0.07 -0.09zm0.01 -0.07l0.13 0.17 -0.2 0.15 -0.13 -0.17 0.2 -0.15z"/>
     <path id="_3" class="fil3" d="M6.96 3.81l-0.17 0.13 0.11 0.15 0.17 -0.13 -0.11 -0.15zm0.01 -0.07l0.17 0.22 -0.26 0.19 -0.16 -0.21 0.25 -0.2z"/>
     <path id="_4" class="fil4" d="M6.97 3.76l-0.23 0.18 0.14 0.19 0.23 -0.17 -0.14 -0.2zm0.01 -0.06l0.2 0.26 -0.31 0.24 -0.2 -0.27 0.31 -0.23z"/>
     <path id="_5" class="fil5" d="M6.98 3.72l-0.29 0.21 0.18 0.25 0.29 -0.22 -0.18 -0.24zm0.01 -0.07l0.24 0.32 -0.37 0.28 -0.24 -0.32 0.37 -0.28z"/>
     <path id="_6" class="fil6" d="M6.99 3.67l-0.35 0.26 0.22 0.29 0.35 -0.26 -0.22 -0.29zm0.02 -0.07l0.27 0.37 -0.43 0.32 -0.28 -0.36 0.44 -0.33z"/>
     <path id="_7" class="fil7" d="M7 3.63l-0.4 0.3 0.25 0.34 0.41 -0.3 -0.26 -0.34zm0.02 -0.07l0.31 0.41 -0.49 0.37 -0.31 -0.42 0.49 -0.36z"/>
     <path id="_8" class="fil8" d="M7.01 3.58l-0.46 0.35 0.29 0.38 0.46 -0.34 -0.29 -0.39zm0.02 -0.07l0.34 0.46 -0.54 0.41 -0.35 -0.46 0.55 -0.41z"/>
     <path id="_9" class="fil9" d="M7.02 3.53l-0.52 0.39 0.33 0.44 0.52 -0.39 -0.33 -0.44zm0.02 -0.06l0.38 0.51 -0.6 0.45 -0.39 -0.51 0.61 -0.45z"/>
     <path id="_10" class="fil10" d="M7.03 3.49l-0.57 0.43 0.36 0.49 0.58 -0.43 -0.37 -0.49zm0.02 -0.07l0.42 0.56 -0.66 0.5 -0.42 -0.56 0.66 -0.5z"/>
     <path id="_11" class="fil11" d="M7.04 3.44l-0.63 0.48 0.4 0.53 0.63 -0.47 -0.4 -0.54zm0.02 -0.07l0.45 0.61 -0.71 0.54 -0.46 -0.61 0.72 -0.54z"/>
     <path id="_12" class="fil12" d="M7.05 3.4l-0.69 0.51 0.44 0.59 0.69 -0.52 -0.44 -0.58zm0.02 -0.07l0.49 0.66 -0.77 0.58 -0.5 -0.66 0.78 -0.58z"/>
     <path id="_13" class="fil13" d="M7.06 3.35l-0.74 0.56 0.47 0.63 0.75 -0.56 -0.48 -0.63zm0.02 -0.07l0.53 0.71 -0.83 0.62 -0.53 -0.7 0.83 -0.63z"/>
     <path id="_14" class="fil14" d="M7.07 3.31l-0.8 0.6 0.51 0.68 0.8 -0.6 -0.51 -0.68zm0.02 -0.07l0.56 0.75 -0.89 0.67 -0.56 -0.76 0.89 -0.66z"/>
     <path id="_15" class="fil15" d="M7.08 3.26l-0.86 0.65 0.55 0.73 0.86 -0.65 -0.55 -0.73zm0.02 -0.07l0.6 0.8 -0.95 0.71 -0.6 -0.8 0.95 -0.71z"/>
     <path id="_16" class="fil16" d="M7.09 3.21l-0.91 0.69 0.58 0.78 0.92 -0.69 -0.59 -0.78zm0.02 -0.06l0.64 0.85 -1.01 0.75 -0.64 -0.85 1.01 -0.75z"/>
     <path id="_17" class="fil17" d="M7.1 3.17l-0.97 0.73 0.62 0.83 0.98 -0.73 -0.63 -0.83zm0.02 -0.07l0.68 0.9 -1.07 0.8 -0.67 -0.9 1.06 -0.8z"/>
     <path id="_18" class="fil18" d="M7.12 3.12l-1.04 0.78 0.66 0.87 1.03 -0.77 -0.65 -0.88zm0.01 -0.07l0.71 0.95 -1.12 0.84 -0.71 -0.95 1.12 -0.84z"/>
     <path id="_19" class="fil19" d="M7.13 3.08l-1.1 0.81 0.7 0.93 1.09 -0.82 -0.69 -0.92zm0.01 -0.07l0.75 1 -1.18 0.88 -0.75 -1 1.18 -0.88z"/>
     <path id="_20" class="fil20" d="M7.14 3.03l-1.15 0.86 0.73 0.98 1.15 -0.87 -0.73 -0.97zm0.01 -0.07l0.79 1.05 -1.24 0.92 -0.78 -1.04 1.23 -0.93z"/>
     <path id="_21" class="fil21" d="M7.15 2.98l-1.21 0.91 0.77 1.02 1.2 -0.9 -0.76 -1.03zm0.01 -0.06l0.82 1.09 -1.29 0.97 -0.82 -1.1 1.29 -0.96z"/>
     <path id="_22" class="fil22" d="M7.16 2.94l-1.27 0.95 0.81 1.07 1.26 -0.95 -0.8 -1.07zm0.01 -0.07l0.86 1.14 -1.35 1.02 -0.86 -1.15 1.35 -1.01z"/>
     <path id="_23" class="fil23" d="M7.17 2.89l-1.32 0.99 0.84 1.12 1.32 -0.99 -0.84 -1.12zm0.01 -0.07l0.9 1.2 -1.41 1.05 -0.89 -1.19 1.4 -1.06z"/>
     <path id="_24" class="fil24" d="M7.18 2.85l-1.38 1.03 0.88 1.17 1.37 -1.03 -0.87 -1.17zm0.01 -0.07l0.93 1.24 -1.46 1.1 -0.93 -1.24 1.46 -1.1z"/>
     <path id="_25" class="fil25" d="M7.19 2.8l-1.44 1.08 0.92 1.21 1.43 -1.07 -0.91 -1.22zm0.01 -0.07l0.97 1.29 -1.52 1.14 -0.97 -1.29 1.52 -1.14z"/>
     <path id="_26" class="fil26" d="M7.2 2.76l-1.49 1.11 0.94 1.27 1.5 -1.12 -0.95 -1.26zm0.01 -0.07l1.01 1.34 -1.58 1.18 -1 -1.34 1.57 -1.18z"/>
     <path id="_27" class="fil27" d="M7.21 2.71l-1.55 1.16 0.98 1.32 1.55 -1.17 -0.98 -1.31zm0.01 -0.07l1.05 1.39 -1.64 1.22 -1.04 -1.38 1.63 -1.23z"/>
     <path id="_28" class="fil28" d="M7.22 2.66l-1.61 1.21 1.02 1.36 1.61 -1.2 -1.02 -1.37zm0.02 -0.07l1.07 1.44 -1.69 1.27 -1.08 -1.44 1.7 -1.27z"/>
     <path id="_29" class="fil29" d="M7.23 2.62l-1.67 1.25 1.06 1.41 1.67 -1.25 -1.06 -1.41zm0.02 -0.07l1.11 1.48 -1.75 1.32 -1.12 -1.49 1.76 -1.31z"/>
     <path id="_30" class="fil30" d="M7.24 2.57l-1.72 1.29 1.09 1.46 1.73 -1.29 -1.1 -1.46zm0.02 -0.07l1.15 1.54 -1.81 1.35 -1.15 -1.53 1.81 -1.36z"/>
     <path id="_31" class="fil31" d="M7.25 2.53l-1.78 1.33 1.13 1.51 1.78 -1.33 -1.13 -1.51zm0.02 -0.07l1.18 1.58 -1.86 1.4 -1.19 -1.58 1.87 -1.4z"/>
     <path id="_32" class="fil32" d="M7.26 2.48l-1.84 1.38 1.17 1.56 1.84 -1.38 -1.17 -1.56zm0.02 -0.07l1.22 1.63 -1.92 1.44 -1.23 -1.63 1.93 -1.44z"/>
     <path id="_33" class="fil33" d="M7.27 2.43l-1.89 1.42 1.2 1.61 1.9 -1.42 -1.21 -1.61zm0.02 -0.06l1.26 1.68 -1.98 1.48 -1.26 -1.68 1.98 -1.48z"/>
     <path id="_34" class="fil34" d="M7.28 2.39l-1.95 1.46 1.24 1.66 1.95 -1.47 -1.24 -1.65zm0.02 -0.07l1.29 1.73 -2.03 1.53 -1.3 -1.73 2.04 -1.53z"/>
     <path id="_35" class="fil35" d="M7.29 2.34l-2.01 1.51 1.28 1.7 2.01 -1.5 -1.28 -1.71zm0.02 -0.07l1.33 1.78 -2.1 1.57 -1.33 -1.78 2.1 -1.57z"/>
     <path id="_36" class="fil36" d="M7.3 2.3l-2.06 1.55 1.31 1.75 2.07 -1.55 -1.32 -1.75zm0.02 -0.07l1.37 1.82 -2.16 1.62 -1.36 -1.83 2.15 -1.61z"/>
     <path id="_37" class="fil37" d="M7.31 2.25l-2.12 1.59 1.35 1.8 2.12 -1.59 -1.35 -1.8zm0.02 -0.07l1.4 1.88 -2.21 1.65 -1.4 -1.87 2.21 -1.66z"/>
     <path id="_38" class="fil38" d="M7.32 2.2l-2.18 1.64 1.39 1.85 2.18 -1.63 -1.39 -1.86zm0.02 -0.06l1.44 1.92 -2.27 1.7 -1.44 -1.92 2.27 -1.7z"/>
     <path id="_39" class="fil39" d="M7.33 2.16l-2.23 1.68 1.42 1.9 2.24 -1.68 -1.43 -1.9zm0.02 -0.07l1.48 1.97 -2.33 1.75 -1.48 -1.98 2.33 -1.74z"/>
     <path id="_40" class="fil40" d="M7.35 2.11l-2.3 1.72 1.46 1.95 2.3 -1.72 -1.46 -1.95zm0.01 -0.07l1.52 2.03 -2.39 1.78 -1.51 -2.02 2.38 -1.79z"/>
     <path id="_41" class="fil41" d="M7.36 2.07l-2.36 1.76 1.5 2 2.35 -1.77 -1.49 -1.99zm0.01 -0.07l1.55 2.07 -2.44 1.83 -1.55 -2.07 2.44 -1.83z"/>
     <path id="_42" class="fil42" d="M7.37 2.02l-2.42 1.81 1.54 2.04 2.41 -1.8 -1.53 -2.05zm0.01 -0.07l1.59 2.12 -2.5 1.87 -1.59 -2.12 2.5 -1.87z"/>
     <path id="_43" class="fil43" d="M7.38 1.98l-2.47 1.85 1.57 2.09 2.47 -1.85 -1.57 -2.09zm0.01 -0.07l1.63 2.16 -2.56 1.92 -1.62 -2.17 2.55 -1.91z"/>
     <path id="_44" class="fil44" d="M7.39 1.93l-2.53 1.89 1.61 2.15 2.52 -1.9 -1.6 -2.14zm0.01 -0.07l1.66 2.22 -2.61 1.95 -1.66 -2.21 2.61 -1.96z"/>
     <path id="_45" class="fil45" d="M7.4 1.88l-2.59 1.94 1.65 2.19 2.58 -1.93 -1.64 -2.2zm0.01 -0.07l1.7 2.27 -2.67 2 -1.7 -2.26 2.67 -2.01z"/>
     <path id="_46" class="fil46" d="M7.41 1.84l-2.64 1.98 1.68 2.24 2.64 -1.98 -1.68 -2.24zm0.01 -0.07l1.74 2.31 -2.73 2.05 -1.73 -2.32 2.72 -2.04z"/>
     <path id="_47" class="fil47" d="M7.42 1.79l-2.7 2.02 1.72 2.29 2.69 -2.02 -1.71 -2.29zm0.01 -0.07l1.77 2.37 -2.78 2.08 -1.77 -2.36 2.78 -2.09z"/>
     <path id="_48" class="fil48" d="M7.43 1.75l-2.76 2.06 1.75 2.34 2.76 -2.07 -1.75 -2.33zm0.01 -0.07l1.81 2.41 -2.84 2.13 -1.81 -2.41 2.84 -2.13z"/>
     <path id="_49" class="fil49" d="M7.44 1.7l-2.81 2.11 1.78 2.39 2.82 -2.11 -1.79 -2.39zm0.02 -0.07l1.84 2.46 -2.9 2.17 -1.84 -2.46 2.9 -2.17z"/>
     <path id="_50" class="fil50" d="M7.45 1.65l-2.87 2.16 1.82 2.43 2.87 -2.15 -1.82 -2.44zm0.02 -0.06l1.88 2.5 -2.96 2.22 -1.88 -2.51 2.96 -2.21z"/>
     <path id="_51" class="fil51" d="M7.46 1.61l-2.93 2.19 1.86 2.49 2.93 -2.2 -1.86 -2.48zm0.02 -0.07l1.91 2.56 -3.01 2.26 -1.92 -2.56 3.02 -2.26z"/>
     <path id="_52" class="fil52" d="M7.47 1.56l-2.99 2.24 1.9 2.53 2.99 -2.23 -1.9 -2.54zm0.02 -0.07l1.95 2.61 -3.07 2.3 -1.96 -2.6 3.08 -2.31z"/>
     <path id="_53" class="fil53" d="M7.48 1.52l-3.04 2.28 1.93 2.58 3.05 -2.28 -1.94 -2.58zm0.02 -0.07l1.99 2.65 -3.13 2.35 -1.99 -2.66 3.13 -2.34z"/>
     <path id="_54" class="fil54" d="M7.49 1.47l-3.1 2.32 1.97 2.63 3.1 -2.32 -1.97 -2.63zm0.02 -0.07l2.02 2.71 -3.18 2.38 -2.03 -2.7 3.19 -2.39z"/>
     <path id="_55" class="fil55" d="M7.5 1.43l-3.16 2.36 2.01 2.68 3.16 -2.37 -2.01 -2.67zm0.02 -0.07l2.06 2.75 -3.24 2.43 -2.07 -2.75 3.25 -2.43z"/>
     <path id="_56" class="fil56" d="M7.51 1.38l-3.21 2.41 2.04 2.73 3.22 -2.41 -2.05 -2.73zm0.02 -0.07l2.1 2.8 -3.3 2.48 -2.1 -2.81 3.3 -2.47z"/>
     <path id="_57" class="fil57" d="M7.52 1.33l-3.27 2.46 2.08 2.77 3.27 -2.45 -2.08 -2.78zm0.02 -0.07l2.13 2.85 -3.36 2.52 -2.13 -2.85 3.36 -2.52z"/>
     <path id="_58" class="fil58" d="M7.53 1.29l-3.33 2.49 2.12 2.83 3.33 -2.5 -2.12 -2.82zm0.02 -0.07l2.17 2.9 -3.42 2.56 -2.17 -2.9 3.42 -2.56z"/>
     <path id="_59" class="fil59" d="M7.54 1.24l-3.38 2.54 2.15 2.87 3.39 -2.53 -2.16 -2.88zm0.02 -0.07l2.21 2.95 -3.48 2.6 -2.2 -2.94 3.47 -2.61z"/>
     <path id="_60" class="fil60" d="M7.55 1.2l-3.44 2.58 2.19 2.92 3.44 -2.58 -2.19 -2.92zm0.02 -0.07l2.24 2.99 -3.53 2.65 -2.24 -3 3.53 -2.64z"/>
     <path id="_61" class="fil61" d="M7.56 1.15l-3.5 2.62 2.23 2.98 3.5 -2.63 -2.23 -2.97zm0.02 -0.07l2.28 3.04 -3.59 2.69 -2.28 -3.04 3.59 -2.69z"/>
     <path id="_62" class="fil62" d="M7.58 1.1l-3.56 2.67 2.26 3.02 3.56 -2.67 -2.26 -3.02zm0.01 -0.06l2.32 3.09 -3.65 2.73 -2.32 -3.09 3.65 -2.73z"/>
     <path id="_63" class="fil63" d="M7.59 1.06l-3.62 2.71 2.3 3.07 3.62 -2.71 -2.3 -3.07zm0.01 -0.07l2.36 3.14 -3.71 2.78 -2.35 -3.15 3.7 -2.77z"/>
     <path id="_64" class="fil64" d="M7.6 1.01l-3.68 2.76 2.34 3.11 3.67 -2.75 -2.33 -3.12zm0.01 -0.07l2.39 3.19 -3.76 2.82 -2.39 -3.19 3.76 -2.82z"/>
     <path id="_65" class="fil65" d="M7.61 0.97l-3.74 2.79 2.38 3.17 3.73 -2.8 -2.37 -3.16zm0.01 -0.07l2.43 3.24 -3.82 2.86 -2.43 -3.24 3.82 -2.86z"/>
     <path id="_66" class="fil66" d="M7.62 0.92l-3.79 2.84 2.41 3.21 3.79 -2.84 -2.41 -3.21zm0.01 -0.07l2.47 3.29 -3.88 2.9 -2.46 -3.28 3.87 -2.91z"/>
     <path id="_67" class="fil67" d="M7.63 0.87l-3.85 2.89 2.45 3.26 3.84 -2.88 -2.44 -3.27zm0.01 -0.06l2.5 3.33 -3.93 2.95 -2.5 -3.34 3.93 -2.94z"/>
     <path id="_68" class="fil68" d="M7.64 0.83l-3.91 2.92 2.49 3.32 3.9 -2.93 -2.48 -3.31zm0.01 -0.07l2.54 3.38 -3.99 3 -2.54 -3.39 3.99 -2.99z"/>
     <path id="_69" class="fil69" d="M7.65 0.78l-3.96 2.97 2.51 3.36 3.97 -2.97 -2.52 -3.36zm0.01 -0.07l2.58 3.44 -4.05 3.03 -2.57 -3.43 4.04 -3.04z"/>
     <path id="_70" class="fil70" d="M7.66 0.74l-4.02 3.01 2.55 3.41 4.02 -3.01 -2.55 -3.41zm0.01 -0.07l2.61 3.48 -4.1 3.08 -2.61 -3.49 4.1 -3.07z"/>
     <path id="_71" class="fil71" d="M7.67 0.69l-4.08 3.06 2.59 3.45 4.08 -3.05 -2.59 -3.46zm0.02 -0.07l2.64 3.53 -4.16 3.12 -2.65 -3.53 4.17 -3.12z"/>
     <path id="_72" class="fil72" d="M7.68 0.65l-4.13 3.09 2.62 3.51 4.14 -3.1 -2.63 -3.5zm0.02 -0.07l2.68 3.58 -4.22 3.16 -2.68 -3.58 4.22 -3.16z"/>
     <path id="_73" class="fil73" d="M7.69 0.6l-4.19 3.14 2.66 3.56 4.19 -3.15 -2.66 -3.55zm0.02 -0.07l2.72 3.63 -4.28 3.2 -2.72 -3.62 4.28 -3.21z"/>
     <path id="_74" class="fil74" d="M7.7 0.55l-4.25 3.19 2.7 3.6 4.25 -3.18 -2.7 -3.61zm0.02 -0.07l2.75 3.68 -4.33 3.25 -2.76 -3.68 4.34 -3.25z"/>
     <path id="_75" class="fil75" d="M7.71 0.51l-4.31 3.23 2.74 3.65 4.31 -3.23 -2.74 -3.65zm0.02 -0.07l2.79 3.72 -4.39 3.3 -2.8 -3.73 4.4 -3.29z"/>
     <path id="_76" class="fil76" d="M7.72 0.46l-4.36 3.27 2.77 3.7 4.37 -3.27 -2.78 -3.7zm0.02 -0.07l2.83 3.78 -4.45 3.33 -2.83 -3.77 4.45 -3.34z"/>
     <path id="_77" class="fil77" d="M7.73 0.42l-4.42 3.31 2.81 3.75 4.42 -3.31 -2.81 -3.75zm0.02 -0.07l2.86 3.82 -4.5 3.38 -2.87 -3.82 4.51 -3.38z"/>
     <path id="_78" class="fil78" d="M7.74 0.37l-4.48 3.36 2.85 3.8 4.48 -3.36 -2.85 -3.8zm0.02 -0.07l2.9 3.87 -4.56 3.42 -2.91 -3.87 4.57 -3.42z"/>
     <path id="_79" class="fil79" d="M7.75 0.32l-4.53 3.4 2.88 3.85 4.54 -3.4 -2.89 -3.85zm0.02 -0.06l2.94 3.92 -4.63 3.46 -2.93 -3.92 4.62 -3.46z"/>
     <path id="_80" class="fil80" d="M7.76 0.28l-4.59 3.44 2.92 3.9 4.59 -3.45 -2.92 -3.89zm0.02 -0.07l2.97 3.97 -4.68 3.51 -2.97 -3.97 4.68 -3.51z"/>
     <path id="_81" class="fil81" d="M7.77 0.23l-4.65 3.49 2.96 3.94 4.65 -3.48 -2.96 -3.95zm0.02 -0.07l3.01 4.02 -4.74 3.55 -3.01 -4.02 4.74 -3.55z"/>
     <path id="_82" class="fil82" d="M7.78 0.19l-4.7 3.53 2.99 3.99 4.71 -3.53 -3 -3.99zm0.02 -0.07l3.05 4.06 -4.8 3.6 -3.04 -4.07 4.79 -3.59z"/>
     <path id="_83" class="fil83" d="M7.8 0.14l-4.77 3.57 3.03 4.04 4.76 -3.57 -3.02 -4.04zm0.01 -0.07l3.08 4.12 -4.85 3.63 -3.08 -4.11 4.85 -3.64z"/>
     <path id="_84" class="fil84" d="M7.81 0.09l-4.83 3.62 3.07 4.09 4.82 -3.61 -3.06 -4.1zm0.01 -0.06l3.12 4.16 -4.91 3.68 -3.12 -4.16 4.91 -3.68z"/>
     <path id="_85" class="fil85" d="M7.82 0.05l-4.88 3.66 3.1 4.14 4.88 -3.66 -3.1 -4.14zm0.01 -0.07l3.16 4.21 -4.97 3.73 -3.16 -4.22 4.97 -3.72z"/>
     <path id="_86" class="fil86" d="M7.83 0l-4.94 3.7 3.14 4.19 4.94 -3.7 -3.14 -4.19zm0.01 -0.07l3.2 4.27 -5.03 3.76 -3.19 -4.26 5.02 -3.77z"/>
     <path id="_87" class="fil87" d="M7.84 -0.04l-5 3.74 3.18 4.24 4.99 -3.75 -3.17 -4.23zm0.01 -0.07l3.23 4.31 -5.08 3.81 -3.23 -4.31 5.08 -3.81z"/>
     <path id="_88" class="fil88" d="M7.85 -0.09l-5.06 3.79 3.22 4.28 5.05 -3.78 -3.21 -4.29zm0.01 -0.07l3.27 4.36 -5.14 3.85 -3.27 -4.36 5.14 -3.85z"/>
     <path id="_89" class="fil89" d="M7.86 -0.13l-5.11 3.83 3.25 4.33 5.11 -3.83 -3.25 -4.33zm0.01 -0.07l3.31 4.4 -5.2 3.9 -3.3 -4.41 5.19 -3.89z"/>
     <path id="_90" class="fil90" d="M7.87 -0.18l-5.17 3.87 3.29 4.39 5.16 -3.88 -3.28 -4.38zm0.01 -0.07l3.34 4.46 -5.25 3.93 -3.34 -4.45 5.25 -3.94z"/>
     <path id="_91" class="fil91" d="M7.88 -0.23l-5.23 3.92 3.32 4.43 5.23 -3.91 -3.32 -4.44zm0.01 -0.06l3.38 4.5 -5.31 3.98 -3.38 -4.5 5.31 -3.98z"/>
     <path id="_92" class="fil92" d="M7.89 -0.27l-5.28 3.96 3.35 4.48 5.29 -3.96 -3.36 -4.48zm0.01 -0.07l3.42 4.55 -5.37 4.03 -3.41 -4.56 5.36 -4.02z"/>
     <path id="_93" class="fil93" d="M7.9 -0.32l-5.34 4 3.39 4.53 5.34 -4 -3.39 -4.53zm0.02 -0.07l3.44 4.61 -5.42 4.06 -3.45 -4.6 5.43 -4.07z"/>
     <path id="_94" class="fil94" d="M7.91 -0.36l-5.4 4.04 3.43 4.58 5.4 -4.05 -3.43 -4.57zm0.02 -0.07l3.48 4.65 -5.48 4.11 -3.49 -4.65 5.49 -4.11z"/>
     <path id="_95" class="fil95" d="M7.92 -0.41l-5.45 4.09 3.46 4.63 5.46 -4.09 -3.47 -4.63zm0.02 -0.07l3.52 4.7 -5.54 4.15 -3.52 -4.7 5.54 -4.15z"/>
     <path id="_96" class="fil96" d="M7.93 -0.46l-5.51 4.14 3.5 4.67 5.51 -4.13 -3.5 -4.68zm0.02 -0.06l3.56 4.74 -5.6 4.2 -3.56 -4.75 5.6 -4.19z"/>
     <path id="_97" class="fil97" d="M7.94 -0.5l-5.57 4.17 3.54 4.73 5.57 -4.18 -3.54 -4.72zm0.02 -0.07l3.59 4.8 -5.65 4.24 -3.6 -4.8 5.66 -4.24z"/>
     <path id="_98" class="fil98" d="M7.95 -0.55l-5.63 4.22 3.58 4.77 5.63 -4.21 -3.58 -4.78zm0.02 -0.07l3.63 4.85 -5.71 4.28 -3.64 -4.84 5.72 -4.29z"/>
     <path id="_99" class="fil99" d="M7.96 -0.59l-5.68 4.26 3.61 4.82 5.69 -4.26 -3.62 -4.82zm0.02 -0.07l3.67 4.89 -5.77 4.33 -3.67 -4.9 5.77 -4.32z"/>
     <path id="_100" class="fil100" d="M7.97 -0.64l-5.74 4.3 3.65 4.87 5.74 -4.3 -3.65 -4.87zm0.02 -0.07l3.7 4.95 -5.83 4.36 -3.7 -4.94 5.83 -4.37z"/>
     <path id="_101" class="fil101" d="M7.98 -0.68l-5.8 4.34 3.69 4.92 5.8 -4.35 -3.69 -4.91zm0.02 -0.07l3.74 4.99 -5.89 4.41 -3.74 -4.99 5.89 -4.41z"/>
     <path id="_102" class="fil102" d="M7.99 -0.73l-5.85 4.39 3.72 4.97 5.86 -4.39 -3.73 -4.97zm0.02 -0.07l3.78 5.04 -5.95 4.46 -3.77 -5.05 5.94 -4.45z"/>
     <path id="_103" class="fil103" d="M8 -0.78l-5.91 4.44 3.76 5.01 5.91 -4.43 -3.76 -5.02zm0.02 -0.07l3.81 5.09 -6 4.5 -3.81 -5.09 6 -4.5z"/>
     <path id="_104" class="fil104" d="M8.01 -0.82l-5.97 4.47 3.8 5.07 5.97 -4.48 -3.8 -5.06zm0.02 -0.07l3.85 5.14 -6.06 4.54 -3.85 -5.14 6.06 -4.54z"/>
     <path id="_105" class="fil105" d="M8.03 -0.87l-6.03 4.52 3.83 5.11 6.03 -4.51 -3.83 -5.12zm0.01 -0.07l3.89 5.19 -6.12 4.58 -3.88 -5.18 6.11 -4.59z"/>
     <path id="_106" class="fil106" d="M8.04 -0.91l-6.09 4.56 3.87 5.16 6.08 -4.56 -3.86 -5.16zm0.01 -0.07l3.92 5.23 -6.17 4.63 -3.92 -5.24 6.17 -4.62z"/>
     <path id="_107" class="fil107" d="M8.05 -0.96l-6.15 4.6 3.91 5.22 6.14 -4.61 -3.9 -5.21zm0.01 -0.07l3.96 5.29 -6.23 4.66 -3.96 -5.28 6.23 -4.67z"/>
     <path id="_108" class="fil107" d="M8.06 -1.01l-6.2 4.65 3.94 5.26 6.2 -4.65 -3.94 -5.26zm0.01 -0.06l4 5.33 -6.29 4.71 -4 -5.33 6.29 -4.71z"/>
     <path id="_109" class="fil108" d="M8.07 -1.05l-6.26 4.69 3.98 5.31 6.26 -4.69 -3.98 -5.31zm0.01 -0.07l4.04 5.38 -6.35 4.76 -4.03 -5.39 6.34 -4.75z"/>
     <path id="_110" class="fil109" d="M8.08 -1.1l-6.32 4.74 4.02 5.35 6.31 -4.73 -4.01 -5.36zm0.01 -0.07l4.07 5.43 -6.4 4.8 -4.07 -5.43 6.4 -4.8z"/>
     <path id="_111" class="fil109" d="M8.09 -1.14l-6.38 4.77 4.06 5.41 6.37 -4.78 -4.05 -5.4zm0.01 -0.07l4.11 5.48 -6.46 4.84 -4.11 -5.48 6.46 -4.84z"/>
     <path id="_112" class="fil109" d="M8.1 -1.19l-6.43 4.82 4.09 5.45 6.43 -4.81 -4.09 -5.46zm0.01 -0.07l4.15 5.53 -6.52 4.88 -4.14 -5.52 6.51 -4.89z"/>
     <path id="_113" class="fil110" d="M8.11 -1.24l-6.49 4.87 4.12 5.5 6.49 -4.86 -4.12 -5.51zm0.01 -0.06l4.18 5.57 -6.57 4.93 -4.18 -5.58 6.57 -4.92z"/>
     <path id="_114" class="fil111" d="M8.12 -1.28l-6.55 4.9 4.16 5.56 6.55 -4.91 -4.16 -5.55zm0.02 -0.07l4.21 5.63 -6.63 4.97 -4.22 -5.63 6.64 -4.97z"/>
     <path id="_115" class="fil111" d="M8.13 -1.33l-6.6 4.95 4.19 5.6 6.61 -4.95 -4.2 -5.6zm0.02 -0.07l4.25 5.68 -6.69 5.01 -4.25 -5.67 6.69 -5.02z"/>
     <path id="_116" class="fil111" d="M8.14 -1.37l-6.66 4.99 4.23 5.65 6.66 -4.99 -4.23 -5.65zm0.02 -0.07l4.28 5.72 -6.74 5.06 -4.29 -5.73 6.75 -5.05z"/>
     <path id="_117" class="fil112" d="M8.15 -1.42l-6.72 5.04 4.27 5.69 6.72 -5.03 -4.27 -5.7zm0.02 -0.07l4.32 5.77 -6.8 5.1 -4.33 -5.77 6.81 -5.1z"/>
     <path id="_118" class="fil112" d="M8.16 -1.46l-6.77 5.07 4.3 5.75 6.78 -5.08 -4.31 -5.74zm0.02 -0.07l4.36 5.82 -6.86 5.14 -4.37 -5.82 6.87 -5.14z"/>
     <path id="_119" class="fil112" d="M8.17 -1.51l-6.83 5.12 4.34 5.8 6.83 -5.12 -4.34 -5.8zm0.02 -0.07l4.4 5.87 -6.92 5.18 -4.4 -5.86 6.92 -5.19z"/>
     <path id="_120" class="fil112" d="M8.18 -1.56l-6.89 5.17 4.38 5.84 6.89 -5.16 -4.38 -5.85zm0.02 -0.07l4.43 5.92 -6.97 5.23 -4.44 -5.92 6.98 -5.23z"/>
     <path id="_121" class="fil113" d="M8.19 -1.6l-6.95 5.2 4.42 5.9 6.95 -5.21 -4.42 -5.89zm0.02 -0.07l4.47 5.97 -7.03 5.27 -4.48 -5.97 7.04 -5.27z"/>
     <path id="_122" class="fil113" d="M8.2 -1.65l-7 5.25 4.45 5.94 7.01 -5.25 -4.46 -5.94zm0.02 -0.07l4.51 6.02 -7.1 5.31 -4.5 -6.01 7.09 -5.32z"/>
     <path id="_123" class="fil113" d="M8.21 -1.69l-7.06 5.29 4.49 5.99 7.06 -5.29 -4.49 -5.99zm0.02 -0.07l4.54 6.06 -7.15 5.36 -4.54 -6.07 7.15 -5.35z"/>
     <path id="_124" class="fil114" d="M8.22 -1.74l-7.12 5.34 4.53 6.04 7.12 -5.34 -4.53 -6.04zm0.02 -0.07l4.58 6.11 -7.21 5.4 -4.58 -6.11 7.21 -5.4z"/>
     <path id="_125" class="fil115" d="M8.23 -1.79l-7.17 5.38 4.56 6.09 7.18 -5.38 -4.57 -6.09zm0.02 -0.06l4.62 6.16 -7.27 5.44 -4.61 -6.16 7.26 -5.44z"/>
     <path id="_126" class="fil116" d="M8.24 -1.83l-7.23 5.42 4.6 6.14 7.23 -5.42 -4.6 -6.14zm0.02 -0.07l4.65 6.21 -7.32 5.49 -4.65 -6.21 7.32 -5.49z"/>
     <path id="_127" class="fil116" d="M8.26 -1.88l-7.3 5.47 4.64 6.18 7.29 -5.46 -4.63 -6.19zm0.01 -0.07l4.69 6.26 -7.38 5.53 -4.69 -6.26 7.38 -5.53z"/>
     <path id="_128" class="fil117" d="M8.27 -1.92l-7.35 5.5 4.67 6.24 7.35 -5.51 -4.67 -6.23zm0.01 -0.07l4.73 6.3 -7.44 5.58 -4.72 -6.31 7.43 -5.57z"/>
     <path id="_129" class="fil118" d="M8.28 -1.97l-7.41 5.55 4.71 6.28 7.4 -5.55 -4.7 -6.28zm0.01 -0.07l4.77 6.36 -7.5 5.61 -4.76 -6.35 7.49 -5.62z"/>
     <path id="_130" class="fil118" d="M8.29 -2.02l-7.47 5.6 4.75 6.33 7.46 -5.59 -4.74 -6.34zm0.01 -0.06l4.8 6.4 -7.55 5.66 -4.8 -6.41 7.55 -5.65z"/>
     <path id="_131" class="fil118" d="M8.3 -2.06l-7.53 5.64 4.79 6.38 7.52 -5.64 -4.78 -6.38zm0.01 -0.07l4.84 6.45 -7.61 5.71 -4.84 -6.46 7.61 -5.7z"/>
     <path id="_132" class="fil119" d="M8.31 -2.11l-7.58 5.68 4.82 6.43 7.58 -5.68 -4.82 -6.43zm0.01 -0.07l4.88 6.51 -7.67 5.74 -4.87 -6.5 7.66 -5.75z"/>
     <path id="_133" class="fil120" d="M8.32 -2.15l-7.64 5.72 4.86 6.48 7.63 -5.73 -4.85 -6.47zm0.01 -0.07l4.91 6.55 -7.72 5.79 -4.91 -6.55 7.72 -5.79z"/>
     <path id="_134" class="fil120" d="M8.33 -2.2l-7.7 5.77 4.89 6.52 7.7 -5.76 -4.89 -6.53zm0.01 -0.07l4.95 6.6 -7.78 5.83 -4.95 -6.6 7.78 -5.83z"/>
     <path id="_135" class="fil121" d="M8.34 -2.24l-7.75 5.8 4.92 6.58 7.76 -5.81 -4.93 -6.57zm0.01 -0.07l4.99 6.64 -7.84 5.88 -4.98 -6.65 7.83 -5.87z"/>
     <path id="_136" class="fil121" d="M8.35 -2.29l-7.81 5.85 4.96 6.63 7.81 -5.86 -4.96 -6.62zm0.02 -0.07l5.01 6.7 -7.89 5.91 -5.02 -6.69 7.9 -5.92z"/>
     <path id="_137" class="fil122" d="M8.36 -2.34l-7.87 5.9 5 6.67 7.87 -5.89 -5 -6.68zm0.02 -0.06l5.05 6.74 -7.95 5.96 -5.06 -6.74 7.96 -5.96z"/>
     <path id="_138" class="fil123" d="M8.37 -2.38l-7.92 5.94 5.03 6.72 7.93 -5.94 -5.04 -6.72zm0.02 -0.07l5.09 6.79 -8.01 6.01 -5.09 -6.8 8.01 -6z"/>
     <path id="_139" class="fil124" d="M8.38 -2.43l-7.98 5.98 5.07 6.77 7.98 -5.98 -5.07 -6.77zm0.02 -0.07l5.12 6.85 -8.06 6.04 -5.13 -6.84 8.07 -6.05z"/>
     <path id="_140" class="fil124" d="M8.39 -2.47l-8.04 6.02 5.11 6.82 8.04 -6.03 -5.11 -6.81zm0.02 -0.07l5.16 6.89 -8.12 6.09 -5.17 -6.89 8.13 -6.09z"/>
     <path id="_141" class="fil125" d="M8.4 -2.52l-8.09 6.07 5.14 6.87 8.1 -6.07 -5.15 -6.87zm0.02 -0.07l5.2 6.94 -8.18 6.13 -5.21 -6.94 8.19 -6.13z"/>
     <path id="_142" class="fil125" d="M8.41 -2.57l-8.15 6.12 5.18 6.91 8.16 -6.11 -5.19 -6.92zm0.02 -0.06l5.24 6.98 -8.24 6.18 -5.24 -6.99 8.24 -6.17z"/>
     <path id="_143" class="fil126" d="M8.42 -2.61l-8.21 6.15 5.22 6.97 8.21 -6.16 -5.22 -6.96zm0.02 -0.07l5.27 7.04 -8.29 6.22 -5.28 -7.04 8.3 -6.22z"/>
     <path id="_144" class="fil126" d="M8.43 -2.66l-8.27 6.2 5.26 7.01 8.27 -6.19 -5.26 -7.02zm0.02 -0.07l5.31 7.09 -8.36 6.26 -5.31 -7.08 8.36 -6.27z"/>
     <path id="_145" class="fil127" d="M8.44 -2.7l-8.32 6.24 5.29 7.06 8.33 -6.24 -5.3 -7.06zm0.02 -0.07l5.35 7.13 -8.42 6.31 -5.34 -7.14 8.41 -6.3z"/>
     <path id="_146" class="fil128" d="M8.45 -2.75l-8.38 6.28 5.33 7.11 8.38 -6.28 -5.33 -7.11zm0.02 -0.07l5.38 7.19 -8.47 6.34 -5.38 -7.18 8.47 -6.35z"/>
     <path id="_147" class="fil128" d="M8.46 -2.79l-8.44 6.32 5.37 7.16 8.44 -6.33 -5.37 -7.15zm0.02 -0.07l5.42 7.23 -8.53 6.39 -5.42 -7.23 8.53 -6.39z"/>
     <path id="_148" class="fil129" d="M8.48 -2.84l-8.5 6.37 5.4 7.21 8.5 -6.37 -5.4 -7.21zm0.01 -0.07l5.46 7.28 -8.59 6.43 -5.45 -7.28 8.58 -6.43z"/>
     <path id="_149" class="fil129" d="M8.49 -2.89l-8.56 6.42 5.44 7.25 8.55 -6.41 -5.43 -7.26zm0.01 -0.07l5.49 7.33 -8.64 6.48 -5.49 -7.33 8.64 -6.48z"/>
     <path id="_150" class="fil130" d="M8.5 -2.93l-8.62 6.45 5.48 7.31 8.61 -6.46 -5.47 -7.3zm0.01 -0.07l5.53 7.38 -8.7 6.52 -5.53 -7.38 8.7 -6.52z"/>
     <path id="_151" class="fil131" d="M8.51 -2.98l-8.67 6.5 5.51 7.35 8.67 -6.49 -5.51 -7.36zm0.01 -0.07l5.57 7.43 -8.76 6.56 -5.56 -7.42 8.75 -6.57z"/>
     <path id="_152" class="fil132" d="M8.52 -3.02l-8.73 6.54 5.55 7.4 8.72 -6.54 -5.54 -7.4zm0.01 -0.07l5.61 7.47 -8.82 6.61 -5.6 -7.48 8.81 -6.6z"/>
     <path id="_153" class="fil132" d="M8.53 -3.07l-8.79 6.58 5.59 7.46 8.78 -6.59 -5.58 -7.45zm0.01 -0.07l5.64 7.53 -8.87 6.64 -5.64 -7.52 8.87 -6.65z"/>
     <path id="_154" class="fil133" d="M8.54 -3.12l-8.85 6.63 5.63 7.5 8.84 -6.63 -5.62 -7.5zm0.01 -0.06l5.68 7.57 -8.93 6.69 -5.68 -7.57 8.93 -6.69z"/>
     <path id="_155" class="fil133" d="M8.55 -3.16l-8.9 6.67 5.66 7.55 8.9 -6.67 -5.66 -7.55zm0.01 -0.07l5.72 7.62 -8.99 6.74 -5.71 -7.63 8.98 -6.73z"/>
     <path id="_156" class="fil134" d="M8.56 -3.21l-8.96 6.72 5.69 7.59 8.96 -6.71 -5.69 -7.6zm0.01 -0.07l5.75 7.67 -9.04 6.78 -5.75 -7.67 9.04 -6.78z"/>
     <path id="_157" class="fil134" d="M8.57 -3.25l-9.02 6.75 5.73 7.65 9.02 -6.76 -5.73 -7.64zm0.01 -0.07l5.79 7.72 -9.1 6.82 -5.79 -7.72 9.1 -6.82z"/>
     <path id="_158" class="fil135" d="M8.58 -3.3l-9.07 6.8 5.76 7.69 9.08 -6.79 -5.77 -7.7zm0.02 -0.07l5.82 7.77 -9.16 6.86 -5.82 -7.76 9.16 -6.87z"/>
     <path id="_159" class="fil135" d="M8.59 -3.35l-9.13 6.85 5.8 7.74 9.13 -6.84 -5.8 -7.75zm0.02 -0.06l5.85 7.81 -9.21 6.91 -5.86 -7.82 9.22 -6.9z"/>
     <path id="_160" class="fil136" d="M8.6 -3.39l-9.19 6.88 5.84 7.8 9.19 -6.89 -5.84 -7.79zm0.02 -0.07l5.89 7.87 -9.27 6.95 -5.9 -7.87 9.28 -6.95z"/>
     <path id="_161" class="fil137" d="M8.61 -3.44l-9.24 6.93 5.87 7.84 9.25 -6.93 -5.88 -7.84zm0.02 -0.07l5.93 7.92 -9.33 6.99 -5.93 -7.91 9.33 -7z"/>
     <path id="_162" class="fil137" d="M8.62 -3.48l-9.3 6.97 5.91 7.89 9.3 -6.97 -5.91 -7.89zm0.02 -0.07l5.96 7.96 -9.38 7.04 -5.97 -7.97 9.39 -7.03z"/>
     <path id="_163" class="fil138" d="M8.63 -3.53l-9.36 7.02 5.95 7.93 9.36 -7.01 -5.95 -7.94zm0.02 -0.07l6 8.01 -9.44 7.08 -6.01 -8.01 9.45 -7.08z"/>
     <path id="_164" class="fil139" d="M8.64 -3.57l-9.41 7.05 5.98 7.99 9.42 -7.06 -5.99 -7.98zm0.02 -0.07l6.04 8.06 -9.5 7.12 -6.05 -8.06 9.51 -7.12z"/>
     <path id="_165" class="fil140" d="M8.65 -3.62l-9.47 7.1 6.02 8.04 9.48 -7.1 -6.03 -8.04zm0.02 -0.07l6.08 8.11 -9.57 7.16 -6.07 -8.1 9.56 -7.17z"/>
     <path id="_166" class="fil140" d="M8.66 -3.67l-9.53 7.15 6.06 8.08 9.53 -7.14 -6.06 -8.09zm0.02 -0.07l6.11 8.16 -9.62 7.21 -6.11 -8.16 9.62 -7.21z"/>
     <path id="_167" class="fil140" d="M8.67 -3.71l-9.59 7.18 6.1 8.14 9.59 -7.19 -6.1 -8.13zm0.02 -0.07l6.15 8.21 -9.68 7.25 -6.15 -8.21 9.68 -7.25z"/>
     <path id="_168" class="fil141" d="M8.68 -3.76l-9.64 7.23 6.13 8.18 9.65 -7.23 -6.14 -8.18zm0.02 -0.07l6.19 8.26 -9.74 7.29 -6.18 -8.25 9.73 -7.3z"/>
     <path id="_169" class="fil142" d="M8.69 -3.8l-9.7 7.27 6.17 8.23 9.7 -7.27 -6.17 -8.23zm0.02 -0.07l6.22 8.3 -9.79 7.34 -6.22 -8.31 9.79 -7.33z"/>
     <path id="_170" class="fil142" d="M8.71 -3.85l-9.77 7.32 6.21 8.28 9.76 -7.32 -6.2 -8.28zm0.01 -0.07l6.26 8.35 -9.85 7.38 -6.26 -8.35 9.85 -7.38z"/>
     <path id="_171" class="fil142" d="M8.72 -3.9l-9.82 7.36 6.24 8.33 9.82 -7.36 -6.24 -8.33zm0.01 -0.06l6.3 8.4 -9.91 7.42 -6.29 -8.4 9.9 -7.42z"/>
     <path id="_172" class="fil143" d="M8.73 -3.94l-9.88 7.4 6.28 8.38 9.87 -7.4 -6.27 -8.38zm0.01 -0.07l6.33 8.45 -9.96 7.47 -6.33 -8.45 9.96 -7.47z"/>
     <path id="_173" class="fil143" d="M8.74 -3.99l-9.94 7.45 6.32 8.42 9.93 -7.44 -6.31 -8.43zm0.01 -0.07l6.37 8.5 -10.02 7.51 -6.37 -8.5 10.02 -7.51z"/>
     <path id="_174" class="fil143" d="M8.75 -4.03l-9.99 7.48 6.35 8.48 9.99 -7.49 -6.35 -8.47zm0.01 -0.07l6.41 8.55 -10.08 7.55 -6.4 -8.55 10.07 -7.55z"/>
     <path id="_175" class="fil144" d="M8.76 -4.08l-10.05 7.53 6.39 8.52 10.04 -7.53 -6.38 -8.52zm0.01 -0.07l6.45 8.6 -10.14 7.59 -6.44 -8.59 10.13 -7.6z"/>
     <path id="_176" class="fil145" d="M8.77 -4.12l-10.11 7.57 6.43 8.57 10.1 -7.57 -6.42 -8.57zm0.01 -0.07l6.48 8.64 -10.19 7.64 -6.48 -8.65 10.19 -7.63z"/>
     <path id="_177" class="fil145" d="M8.78 -4.17l-10.17 7.62 6.47 8.62 10.16 -7.62 -6.46 -8.62zm0.01 -0.07l6.52 8.69 -10.25 7.69 -6.52 -8.7 10.25 -7.68z"/>
     <path id="_178" class="fil145" d="M8.79 -4.22l-10.22 7.66 6.49 8.67 10.23 -7.66 -6.5 -8.67zm0.01 -0.07l6.56 8.75 -10.31 7.72 -6.55 -8.74 10.3 -7.73z"/>
     <path id="_179" class="fil145" d="M8.8 -4.26l-10.28 7.7 6.53 8.72 10.28 -7.7 -6.53 -8.72zm0.02 -0.07l6.58 8.79 -10.36 7.77 -6.59 -8.79 10.37 -7.77z"/>
     <path id="_180" class="fil146" d="M8.81 -4.31l-10.34 7.75 6.57 8.76 10.34 -7.74 -6.57 -8.77zm0.02 -0.07l6.62 8.84 -10.42 7.81 -6.63 -8.84 10.43 -7.81z"/>
     <path id="_181" class="fil146" d="M8.82 -4.35l-10.39 7.78 6.6 8.82 10.4 -7.79 -6.61 -8.81zm0.02 -0.07l6.66 8.89 -10.48 7.85 -6.66 -8.89 10.48 -7.85z"/>
     <path id="_182" class="fil146" d="M8.83 -4.4l-10.45 7.83 6.64 8.87 10.45 -7.84 -6.64 -8.86zm0.02 -0.07l6.69 8.94 -10.53 7.89 -6.7 -8.93 10.54 -7.9z"/>
     <path id="_183" class="fil147" d="M8.84 -4.45l-10.51 7.88 6.68 8.91 10.51 -7.87 -6.68 -8.92zm0.02 -0.06l6.73 8.98 -10.59 7.94 -6.74 -8.99 10.6 -7.93z"/>
     <path id="_184" class="fil147" d="M8.85 -4.49l-10.56 7.92 6.71 8.96 10.57 -7.92 -6.72 -8.96zm0.02 -0.07l6.77 9.03 -10.65 7.99 -6.77 -9.04 10.65 -7.98z"/>
     <path id="_185" class="fil147" d="M8.86 -4.54l-10.62 7.96 6.75 9.01 10.62 -7.96 -6.75 -9.01zm0.02 -0.07l6.8 9.09 -10.7 8.02 -6.81 -9.08 10.71 -8.03z"/>
     <path id="_186" class="fil147" d="M8.87 -4.58l-10.68 8 6.79 9.06 10.68 -8 -6.79 -9.06zm0.02 -0.07l6.84 9.13 -10.76 8.07 -6.85 -9.13 10.77 -8.07z"/>
     <path id="_187" class="fil148" d="M8.88 -4.63l-10.73 8.05 6.82 9.1 10.74 -8.04 -6.83 -9.11zm0.02 -0.07l6.88 9.18 -10.83 8.11 -6.88 -9.18 10.83 -8.11z"/>
     <path id="_188" class="fil149" d="M8.89 -4.68l-10.79 8.09 6.86 9.16 10.8 -8.09 -6.87 -9.16zm0.02 -0.06l6.92 9.23 -10.89 8.15 -6.91 -9.23 10.88 -8.15z"/>
     <path id="_189" class="fil149" d="M8.9 -4.72l-10.85 8.13 6.9 9.21 10.85 -8.14 -6.9 -9.2zm0.02 -0.07l6.95 9.28 -10.94 8.2 -6.95 -9.28 10.94 -8.2z"/>
     <path id="_190" class="fil149" d="M8.91 -4.77l-10.91 8.18 6.94 9.25 10.91 -8.17 -6.94 -9.26zm0.02 -0.07l6.99 9.33 -11 8.24 -6.99 -9.33 11 -8.24z"/>
     <path id="_191" class="fil150" d="M8.92 -4.81l-10.96 8.22 6.97 9.3 10.97 -8.22 -6.98 -9.3zm0.02 -0.07l7.03 9.37 -11.06 8.29 -7.02 -9.38 11.05 -8.28z"/>
     <path id="_192" class="fil150" d="M8.94 -4.86l-11.03 8.26 7.01 9.35 11.02 -8.26 -7 -9.35zm0.01 -0.07l7.06 9.43 -11.11 8.32 -7.06 -9.42 11.11 -8.33z"/>
     <path id="_193" class="fil150" d="M8.95 -4.9l-11.09 8.3 7.05 9.4 11.08 -8.3 -7.04 -9.4zm0.01 -0.07l7.1 9.47 -11.17 8.37 -7.1 -9.47 11.17 -8.37z"/>
     <path id="_194" class="fil151" d="M8.96 -4.95l-11.14 8.35 7.08 9.45 11.14 -8.35 -7.08 -9.45zm0.01 -0.07l7.14 9.52 -11.23 8.41 -7.13 -9.52 11.22 -8.41z"/>
     <path id="_195" class="fil152" d="M8.97 -5l-11.2 8.39 7.12 9.5 11.19 -8.39 -7.11 -9.5zm0.01 -0.07l7.17 9.57 -11.28 8.46 -7.17 -9.57 11.28 -8.46z"/>
     <path id="_196" class="fil152" d="M8.98 -5.04l-11.26 8.43 7.16 9.55 11.25 -8.44 -7.15 -9.54zm0.01 -0.07l7.21 9.62 -11.34 8.5 -7.21 -9.62 11.34 -8.5z"/>
     <path id="_197" class="fil152" d="M8.99 -5.09l-11.31 8.48 7.19 9.59 11.31 -8.47 -7.19 -9.6zm0.01 -0.07l7.25 9.67 -11.4 8.54 -7.24 -9.67 11.39 -8.54z"/>
     <path id="_198" class="fil153" d="M9 -5.13l-11.37 8.52 7.23 9.64 11.36 -8.52 -7.22 -9.64zm0.01 -0.07l7.29 9.71 -11.46 8.59 -7.28 -9.72 11.45 -8.58z"/>
     <path id="_199" class="fil154" d="M9.01 -5.18l-11.43 8.56 7.26 9.7 11.43 -8.57 -7.26 -9.69zm0.01 -0.07l7.32 9.77 -11.51 8.62 -7.32 -9.76 11.51 -8.63z"/>
     <path id="_200" class="fil155" d="M9.02 -5.23l-11.49 8.61 7.3 9.74 11.49 -8.61 -7.3 -9.74zm0.01 -0.06l7.36 9.81 -11.57 8.67 -7.36 -9.81 11.57 -8.67z"/>
     <path id="_201" class="fil155" d="M9.03 -5.27l-11.54 8.65 7.33 9.79 11.55 -8.65 -7.34 -9.79zm0.02 -0.07l7.39 9.86 -11.63 8.72 -7.39 -9.87 11.63 -8.71z"/>
     <path id="_202" class="fil156" d="M9.04 -5.32l-11.6 8.69 7.37 9.84 11.6 -8.69 -7.37 -9.84zm0.02 -0.07l7.42 9.91 -11.68 8.76 -7.43 -9.91 11.69 -8.76z"/>
     <path id="_203" class="fil157" d="M9.05 -5.36l-11.66 8.73 7.41 9.89 11.66 -8.74 -7.41 -9.88zm0.02 -0.07l7.46 9.96 -11.74 8.8 -7.47 -9.96 11.75 -8.8z"/>
     <path id="_204" class="fil157" d="M9.06 -5.41l-11.71 8.78 7.44 9.93 11.72 -8.77 -7.45 -9.94zm0.02 -0.07l7.5 10.01 -11.8 8.84 -7.5 -10 11.8 -8.85z"/>
     <path id="_205" class="fil157" d="M9.07 -5.46l-11.77 8.83 7.48 9.98 11.77 -8.82 -7.48 -9.99zm0.02 -0.06l7.53 10.05 -11.85 8.89 -7.54 -10.06 11.86 -8.88z"/>
     <path id="_206" class="fil158" d="M9.08 -5.5l-11.83 8.86 7.52 10.04 11.83 -8.87 -7.52 -10.03zm0.02 -0.07l7.57 10.11 -11.91 8.93 -7.58 -10.11 11.92 -8.93z"/>
     <path id="_207" class="fil159" d="M9.09 -5.55l-11.88 8.91 7.55 10.08 11.89 -8.91 -7.56 -10.08zm0.02 -0.07l7.61 10.16 -11.97 8.97 -7.61 -10.15 11.97 -8.98z"/>
     <path id="_208" class="fil159" d="M9.1 -5.59l-11.94 8.95 7.59 10.13 11.94 -8.95 -7.59 -10.13zm0.02 -0.07l7.64 10.2 -12.02 9.02 -7.65 -10.21 12.03 -9.01z"/>
     <path id="_209" class="fil160" d="M9.11 -5.64l-12 9 7.63 10.17 12 -8.99 -7.63 -10.18zm0.02 -0.07l7.68 10.25 -12.09 9.06 -7.68 -10.25 12.09 -9.06z"/>
     <path id="_210" class="fil160" d="M9.12 -5.68l-12.05 9.03 7.66 10.23 12.06 -9.04 -7.67 -10.22zm0.02 -0.07l7.72 10.3 -12.15 9.1 -7.72 -10.3 12.15 -9.1z"/>
     <path id="_211" class="fil161" d="M9.13 -5.73l-12.11 9.08 7.7 10.28 12.12 -9.08 -7.71 -10.28zm0.02 -0.07l7.76 10.35 -12.21 9.14 -7.75 -10.34 12.2 -9.15z"/>
     <path id="_212" class="fil162" d="M9.14 -5.78l-12.17 9.13 7.74 10.32 12.17 -9.12 -7.74 -10.33zm0.02 -0.06l7.79 10.39 -12.26 9.19 -7.79 -10.4 12.26 -9.18z"/>
     <path id="_213" class="fil163" d="M9.16 -5.82l-12.24 9.16 7.78 10.38 12.23 -9.17 -7.77 -10.37zm0.01 -0.07l7.83 10.45 -12.32 9.23 -7.83 -10.45 12.32 -9.23z"/>
     <path id="_214" class="fil163" d="M9.17 -5.87l-12.29 9.21 7.81 10.42 12.29 -9.21 -7.81 -10.42zm0.01 -0.07l7.87 10.5 -12.38 9.27 -7.86 -10.49 12.37 -9.28z"/>
     <path id="_215" class="fil164" d="M9.18 -5.91l-12.35 9.25 7.85 10.47 12.34 -9.25 -7.84 -10.47zm0.01 -0.07l7.9 10.54 -12.43 9.32 -7.9 -10.55 12.43 -9.31z"/>
     <path id="_216" class="fil164" d="M9.19 -5.96l-12.41 9.3 7.89 10.52 12.4 -9.3 -7.88 -10.52zm0.01 -0.07l7.94 10.59 -12.49 9.36 -7.94 -10.59 12.49 -9.36z"/>
     <path id="_217" class="fil165" d="M9.2 -6.01l-12.46 9.34 7.92 10.57 12.46 -9.34 -7.92 -10.57zm0.01 -0.06l7.98 10.64 -12.55 9.4 -7.97 -10.64 12.54 -9.4z"/>
     <path id="_218" class="fil165" d="M9.21 -6.05l-12.52 9.38 7.96 10.62 12.51 -9.38 -7.95 -10.62zm0.01 -0.07l8.01 10.69 -12.6 9.45 -8.01 -10.69 12.6 -9.45z"/>
     <path id="_219" class="fil166" d="M9.22 -6.1l-12.58 9.43 8 10.66 12.57 -9.42 -7.99 -10.67zm0.01 -0.07l8.05 10.74 -12.66 9.49 -8.05 -10.74 12.66 -9.49z"/>
     <path id="_220" class="fil167" d="M9.23 -6.14l-12.63 9.46 8.03 10.72 12.63 -9.47 -8.03 -10.71zm0.01 -0.07l8.09 10.79 -12.72 9.53 -8.08 -10.79 12.71 -9.53z"/>
     <path id="_221" class="fil167" d="M9.24 -6.19l-12.69 9.51 8.06 10.76 12.69 -9.51 -8.06 -10.76zm0.01 -0.07l8.13 10.84 -12.78 9.57 -8.12 -10.83 12.77 -9.58z"/>
     <path id="_222" class="fil168" d="M9.25 -6.23l-12.75 9.55 8.1 10.81 12.75 -9.55 -8.1 -10.81zm0.01 -0.07l8.16 10.88 -12.83 9.62 -8.16 -10.89 12.83 -9.61z"/>
     <path id="_223" class="fil168" d="M9.26 -6.28l-12.81 9.6 8.14 10.86 12.81 -9.6 -8.14 -10.86zm0.02 -0.07l8.19 10.93 -12.89 9.67 -8.2 -10.94 12.9 -9.66z"/>
     <path id="_224" class="fil169" d="M9.27 -6.33l-12.86 9.64 8.17 10.91 12.87 -9.64 -8.18 -10.91zm0.02 -0.07l8.23 10.99 -12.95 9.7 -8.23 -10.98 12.95 -9.71z"/>
     <path id="_225" class="fil170" d="M9.28 -6.37l-12.92 9.68 8.21 10.96 12.92 -9.68 -8.21 -10.96zm0.02 -0.07l8.26 11.03 -13 9.75 -8.27 -11.03 13.01 -9.75z"/>
     <path id="_226" class="fil171" d="M9.29 -6.42l-12.98 9.73 8.25 11 12.98 -9.72 -8.25 -11.01zm0.02 -0.07l8.3 11.08 -13.06 9.79 -8.31 -11.08 13.07 -9.79z"/>
     <path id="_227" class="fil171" d="M9.3 -6.46l-13.03 9.76 8.28 11.06 13.04 -9.77 -8.29 -11.05zm0.02 -0.07l8.34 11.13 -13.12 9.83 -8.34 -11.13 13.12 -9.83z"/>
     <path id="_228" class="fil172" d="M9.31 -6.51l-13.09 9.81 8.32 11.11 13.09 -9.82 -8.32 -11.1zm0.01 -0.05l8.36 11.16 -13.15 9.85 -8.36 -11.15 13.15 -9.86z"/>
    </g>
   </g>
  </g>
 </g>
</svg>
