<?xml version="1.0" encoding="UTF-8"?>
<!DOCTYPE svg PUBLIC "-//W3C//DTD SVG 1.1//EN" "http://www.w3.org/Graphics/SVG/1.1/DTD/svg11.dtd">
<!-- Creator: CorelDRAW 2021 (64-Bit) -->
<svg xmlns="http://www.w3.org/2000/svg" xml:space="preserve" width="316px" height="354px" version="1.1" style="shape-rendering:geometricPrecision; text-rendering:geometricPrecision; image-rendering:optimizeQuality; fill-rule:evenodd; clip-rule:evenodd"
viewBox="0 0 12.55 14.06"
 xmlns:xlink="http://www.w3.org/1999/xlink"
 xmlns:xodm="http://www.corel.com/coreldraw/odm/2003">
 <defs>
  <style type="text/css">
   <![CDATA[
    .fil0 {fill:url(#id0);fill-rule:nonzero}
   ]]>
  </style>
  <linearGradient id="id0" gradientUnits="userSpaceOnUse" x1="2.61" y1="10.4" x2="11.08" y2="3.49">
   <stop offset="0" style="stop-opacity:1; stop-color:#CCCCCC"/>
   <stop offset="0.196078" style="stop-opacity:1; stop-color:#E5E5E5"/>
   <stop offset="0.470588" style="stop-opacity:1; stop-color:white"/>
   <stop offset="1" style="stop-opacity:1; stop-color:#CCCCCC"/>
  </linearGradient>
 </defs>
 <g id="Capa_x0020_1">
  <metadata id="CorelCorpID_0Corel-Layer"/>
  <g id="_2021881920768">
   <path class="fil0" d="M6.03 0.11c0.12,-0.05 0.26,-0.17 0.38,-0.07 0.99,0.55 2.03,1.09 3.18,1.25 0.98,0.16 1.98,0.05 2.96,0.02 -1.9,2.79 -3.82,5.59 -5.72,8.39 -0.19,0.25 -0.33,0.54 -0.56,0.76 -1.02,-1.38 -2.02,-2.79 -3.03,-4.18 -0.25,-0.35 -0.52,-0.68 -0.74,-1.04 0.58,-0.01 1.17,-0.02 1.75,0 0.68,0.92 1.32,1.86 2,2.77 1.13,-1.62 2.23,-3.26 3.35,-4.89 0.1,-0.13 0.18,-0.27 0.26,-0.42 -1.02,-0.09 -2.02,-0.38 -2.93,-0.82 -0.22,-0.1 -0.43,-0.24 -0.66,-0.3 -0.39,0.15 -0.74,0.37 -1.13,0.52 -1.14,0.49 -2.4,0.67 -3.64,0.64 -0.05,0.31 0.02,0.63 0.03,0.94 0.02,0.71 0.09,1.41 0.18,2.11 0.14,1.06 0.39,2.13 0.91,3.09 0.78,1.42 2.11,2.48 3.46,3.41 0.09,0.05 0.19,0.17 0.29,0.07 1.27,-0.85 2.51,-1.81 3.33,-3.08 0.72,-1.08 1.01,-2.36 1.17,-3.61 0.07,-0.33 0,-0.71 0.23,-0.99 0.49,-0.66 0.9,-1.36 1.41,-2 0.04,0.47 -0.05,0.94 -0.05,1.41 -0.11,1.86 -0.32,3.78 -1.24,5.46 -0.87,1.6 -2.33,2.81 -3.85,3.83 -0.35,0.23 -0.69,0.48 -1.06,0.68 -0.22,-0.05 -0.39,-0.22 -0.59,-0.33 -1.72,-1.12 -3.42,-2.42 -4.38,-4.22 -0.81,-1.48 -1.05,-3.15 -1.19,-4.79 -0.09,-1.13 -0.1,-2.27 -0.15,-3.41 0.88,0 1.77,0.13 2.65,0.02 1.22,-0.1 2.34,-0.63 3.38,-1.22z"/>
  </g>
 </g>
</svg>
