<?xml version="1.0" encoding="UTF-8"?>
<!DOCTYPE svg PUBLIC "-//W3C//DTD SVG 1.1//EN" "http://www.w3.org/Graphics/SVG/1.1/DTD/svg11.dtd">
<!-- Creator: CorelDRAW 2021 (64-Bit) -->
<svg xmlns="http://www.w3.org/2000/svg" xml:space="preserve" width="402px" height="73px" version="1.1" style="shape-rendering:geometricPrecision; text-rendering:geometricPrecision; image-rendering:optimizeQuality; fill-rule:evenodd; clip-rule:evenodd"
viewBox="0 0 69.21 12.53"
 xmlns:xlink="http://www.w3.org/1999/xlink"
 xmlns:xodm="http://www.corel.com/coreldraw/odm/2003">
 <defs>
  <style type="text/css">
   <![CDATA[
    .fil1 {fill:red}
    .fil0 {fill:white}
   ]]>
  </style>
 </defs>
 <g id="Capa_x0020_1">
  <metadata id="CorelCorpID_0Corel-Layer"/>
  <path class="fil0" d="M7.01 3.46l-3.21 0.01 -1.28 3.71 3.21 -0.01 0.22 -0.62 2.54 -0.63 -0.52 1.52c-0.04,0.11 -0.1,0.21 -0.18,0.31 -0.45,0.55 -1.39,0.6 -1.94,0.6l-4.36 0.01 -1.49 -0.73 1.59 -4.59 1.99 -0.75 4.37 -0.01c0.55,0 1.45,0.04 1.53,0.59 0.01,0.1 -0.01,0.2 -0.04,0.31l-0.24 0.68 -2.56 0.69 0.37 -1.09zm7.87 -0.01l-2.81 0.05 -2.18 6.15 -2.6 0.89 2.6 -7.55 2.65 -0.84 -0.09 0.25c0.52,-0.03 1.04,-0.07 1.56,-0.1 0.62,-0.04 1.24,-0.07 1.85,-0.08 0.54,0 1.44,0.04 1.51,0.58 0.01,0.1 0,0.19 -0.03,0.3l-0.33 0.94 -2.56 0.64 0.43 -1.23zm25.93 2.38l-0.26 0.74 -0.62 1.81 2.67 -0.97 0.25 -0.73 0.03 -0.09 0.22 -0.65 0.67 -1.94 0.67 -1.95 -2.62 0.85 -0.08 0.23 0 0 -0.38 1.11 -0.07 0.18 0 0.01 -0.48 1.4zm-6.06 1.1l-0.08 0.21 -0.07 0.22c-0.04,0.1 -0.05,0.2 -0.04,0.29 0.06,0.58 0.96,0.62 1.54,0.6l2.03 -0.06 1.62 -1.13 -2.72 0.01 0.14 -0.39 0.86 -2.52 0.28 -0.79 1.35 -0.01 1.37 -1.18 -2.31 0.01 0.64 -1.86 -2.58 0.89 -0.39 0.97 -0.77 0.01 -1.24 1.18 1.59 -0.01 -0.33 0.97 -0.89 2.59zm-10.57 0.48l0.46 -1.37 -2.54 0.7 -0.14 0.41 -3.35 0.01 0.51 -1.49 4.83 -0.02 0.96 -0.36 0.74 -2.16c0.04,-0.11 0.05,-0.21 0.04,-0.31 -0.08,-0.55 -0.98,-0.59 -1.53,-0.59l-4.36 0.01c-0.54,0.01 -1.47,0.05 -1.93,0.58 -0.08,0.1 -0.14,0.21 -0.18,0.31l-0.43 1.21 2.44 -0.95 3.56 -0.01 -0.4 1.16 -3.36 0.01 0.35 -0.98 -2.68 1.08 -0.95 2.77c-0.04,0.1 -0.05,0.21 -0.04,0.3 0.08,0.55 0.98,0.59 1.53,0.59 1.56,0 3.15,0.06 4.7,-0.02 0.34,-0.02 0.75,-0.07 1.1,-0.23 0.26,-0.11 0.56,-0.33 0.67,-0.65zm23.55 -1.55l0.71 -0.77 1.35 -1.46 2.53 -2.73 3.23 -0.9 -1.38 1.49 -4.46 4.82 -0.85 0.92 -2.93 1.08 -0.53 -2.11 -0.53 -2.13 -0.15 -0.57 -0.14 -0.58 2.31 -0.83 0.15 0.66 0 0 0.13 0.57 0 0 0.41 1.85 0.15 0.69zm12.38 1.38l0.41 -1.2 -2.55 0.7 -0.11 0.32 0.05 0c0.18,-0.03 0.38,-0.04 0.56,0.02 0.24,0.07 0.43,0.27 0.48,0.57 0.01,0 0.02,-0.01 0.02,-0.01 0.09,-0.05 0.17,-0.08 0.26,-0.12 0.11,-0.05 0.22,-0.09 0.33,-0.13 0.12,-0.04 0.25,-0.08 0.37,-0.11 0.06,-0.01 0.12,-0.03 0.18,-0.04zm-2.7 -0.09l-2.93 0.01 0.52 -1.49 4.83 -0.02 0.95 -0.36 0.74 -2.16c0.04,-0.11 0.05,-0.21 0.04,-0.31 -0.07,-0.55 -0.98,-0.59 -1.53,-0.59l-4.36 0.01c-0.54,0.01 -1.47,0.05 -1.93,0.58 -0.08,0.1 -0.14,0.21 -0.17,0.31l-0.44 1.21 2.45 -0.95 3.55 -0.01 -0.4 1.16 -3.35 0.01 0.34 -0.98 -2.68 1.08 -0.79 2.31c0.11,-0.06 0.24,-0.11 0.36,-0.14 0.08,-0.06 0.16,-0.11 0.25,-0.15 0.09,-0.04 0.18,-0.06 0.27,-0.09 0.1,-0.02 0.21,-0.04 0.31,-0.05 0.13,-0.02 0.26,-0.03 0.39,-0.01 0.23,0.04 0.42,0.21 0.48,0.5l0.03 0.19 -0.07 0.18c-0.03,0.05 -0.04,0.11 -0.07,0.17 -0.04,0.08 -0.09,0.16 -0.14,0.23 -0.04,0.06 -0.07,0.11 -0.12,0.16 -0.08,0.1 -0.18,0.17 -0.28,0.23 -0.09,0.04 -0.19,0.08 -0.28,0.12l0.01 0.01c0.07,0 0.13,0 0.19,0 0.54,0 1.08,0.01 1.62,0.01 0.33,-0.18 0.65,-0.37 0.97,-0.55 0.09,-0.05 0.18,-0.1 0.27,-0.15 0.13,-0.07 0.27,-0.15 0.4,-0.22 0.16,-0.1 0.33,-0.17 0.5,-0.22l0.07 -0.03zm-31.39 -3.99l-0.47 1.36 2.55 -0.7 0.14 -0.41 3.35 -0.01 -0.52 1.49 -4.54 0.02c-0.61,0 -1.19,0.22 -1.43,0.92l-0.3 0.86c-0.47,1.39 0.33,1.61 1.3,1.65 1.21,0.05 2.67,-0.16 3.9,-0.25l-0.05 0.17 2.28 0 0.71 -2.04 -0.02 0.01 0.38 -1.11 0.68 -1.97c0.04,-0.11 0.05,-0.21 0.04,-0.31 -0.08,-0.55 -0.98,-0.59 -1.53,-0.59 -1.56,0.01 -3.15,-0.06 -4.7,0.02 -0.34,0.02 -0.75,0.07 -1.1,0.23 -0.26,0.12 -0.56,0.33 -0.67,0.66zm4.29 4.02l-2.86 0c-0.43,0 -0.5,-0.04 -0.33,-0.49l0.07 -0.21c0.15,-0.43 0.3,-0.46 0.7,-0.46l2.8 0 -0.25 0.71 -0.09 0.26 0.02 -0.01 -0.06 0.2z"/>
  <path class="fil1" d="M36.35 12.18c-0.11,0.06 -0.22,0.11 -0.33,0.14 -0.11,0.04 -0.22,0.06 -0.32,0.07 -0.22,0.03 -0.38,0.03 -0.5,-0.01 -0.11,-0.03 -0.18,-0.09 -0.19,-0.19 -0.02,-0.1 -0.03,-0.19 -0.02,-0.27 0.01,-0.07 0.03,-0.14 0.07,-0.19 0.01,-0.02 0.03,-0.03 0.03,-0.04 0,-0.02 0,-0.05 0.01,-0.08 0.01,-0.03 0.02,-0.07 0.04,-0.11 0.01,-0.07 0.04,-0.15 0.06,-0.22 0.05,-0.05 0.1,-0.1 0.15,-0.16 -0.01,-0.01 -0.03,-0.01 -0.07,-0.01l-0.07 0.02c-0.07,0.05 -0.16,0.11 -0.27,0.17 -0.11,0.06 -0.24,0.13 -0.4,0.2 -0.24,0.12 -3.58,0.78 -3.83,0.9 -0.01,0.01 -0.04,0.03 -0.07,0.05 -0.04,0.02 -0.08,0.05 -0.13,0.08 -0.03,-0.01 -0.06,-0.04 -0.1,-0.07 -0.05,-0.02 -0.09,-0.06 -0.14,-0.09 -0.01,-0.01 -0.03,-0.02 -0.04,-0.03 -0.02,-0.01 -0.03,-0.01 -0.06,-0.01l0.03 -0.03c0.02,-0.02 0.06,-0.04 0.11,-0.07 0.04,-0.02 0.09,-0.06 0.15,-0.09 0.33,-0.17 3.76,-0.88 4.06,-1.09 0.31,-0.2 0.61,-0.43 0.9,-0.68 0.04,-0.03 0.08,-0.06 0.12,-0.1 0.05,-0.03 0.1,-0.08 0.15,-0.14 0,-0.01 -0.01,-0.01 -0.03,-0.02 -0.01,0 -0.04,0 -0.08,0.01 -0.02,0 -0.07,0.01 -0.14,0.02 -0.06,0.02 -0.11,0.03 -0.15,0.03l-0.93 0.12c-0.04,0 -0.11,0.01 -0.2,0.02 -0.09,0.01 -0.16,0.02 -0.2,0.02 -0.05,0 -0.1,0 -0.14,0 -0.04,0 -0.08,0 -0.13,0 -0.06,0 -0.1,-0.01 -0.14,-0.02 -0.03,0 -0.05,-0.01 -0.05,-0.03 -0.02,-0.11 0,-0.2 0.05,-0.27 0.06,-0.07 0.16,-0.11 0.3,-0.13 0.14,-0.02 0.27,-0.04 0.39,-0.05 0.12,-0.01 0.23,-0.02 0.33,-0.02 0.07,-0.02 0.14,-0.03 0.2,-0.04 0.14,-0.02 0.25,-0.03 0.35,-0.04 0.09,-0.01 0.16,-0.01 0.21,-0.02 0.07,-0.01 0.13,-0.02 0.19,-0.03 0.06,-0.02 0.13,-0.03 0.21,-0.04l0.24 -0.01c0.18,-0.03 0.35,-0.14 0.52,-0.33 0.16,-0.19 0.36,-0.3 0.59,-0.33 0.11,-0.01 0.21,-0.01 0.28,0 0.07,0.02 0.1,0.06 0.11,0.11 0.01,0.04 -0.01,0.1 -0.07,0.17 -0.06,0.08 -0.08,0.13 -0.09,0.17 0.01,0 0.03,0.01 0.05,0.01 0.01,0.01 0.04,0.02 0.08,0.02 0.03,0.01 0.05,0.02 0.07,0.03 0.01,0.02 0.02,0.04 0.03,0.06 0.02,0.11 0.02,0.19 0,0.25 -0.02,0.06 -0.06,0.1 -0.12,0.11l-0.5 0.1c-0.01,0.02 -0.01,0.04 -0.02,0.07 -0.01,0.03 -0.03,0.06 -0.05,0.1 -0.07,0.09 -0.14,0.22 -0.22,0.37 -0.08,0.15 -0.17,0.32 -0.27,0.53 -0.05,0.16 -0.1,0.28 -0.12,0.38 -0.03,0.1 -0.04,0.16 -0.03,0.2 0,0.02 0.02,0.04 0.04,0.05 0.03,0.02 0.07,0.02 0.12,0.01 0.6,-0.07 1.55,-0.74 2.01,-1.04 0.11,-0.06 0.23,-0.13 0.35,-0.2 0.1,-0.07 0.2,-0.14 0.3,-0.21 0.09,-0.07 0.2,-0.14 0.31,-0.21 0.19,-0.06 0.34,-0.1 0.45,-0.13 0.1,-0.03 0.18,-0.05 0.22,-0.05 0.07,-0.01 0.13,-0.01 0.17,0 0.05,0.01 0.07,0.03 0.08,0.07 0,0.01 -0.01,0.02 -0.02,0.04 -0.01,0.03 -0.02,0.05 -0.04,0.07 -0.03,0.05 -0.06,0.09 -0.1,0.13 -0.03,0.07 -0.07,0.13 -0.11,0.2 -0.05,0.07 -0.09,0.14 -0.13,0.21 -0.03,0.08 -0.06,0.15 -0.08,0.22 -0.01,0.07 -0.01,0.13 -0.01,0.18 0.02,0.1 0.05,0.17 0.08,0.22 0.04,0.04 0.08,0.06 0.13,0.05 0.05,-0.02 0.11,-0.04 0.18,-0.07 0.07,-0.02 0.15,-0.05 0.25,-0.08 0.08,-0.05 0.18,-0.1 0.28,-0.16 0.11,-0.07 0.23,-0.14 0.38,-0.23 0.08,-0.06 0.16,-0.12 0.25,-0.18 0.03,-0.02 0.07,-0.04 0.11,-0.07 0.05,-0.02 0.09,-0.05 0.12,-0.07 0.08,-0.1 0.18,-0.18 0.29,-0.23 0.11,-0.06 0.23,-0.1 0.38,-0.12 0.13,-0.01 0.23,-0.02 0.31,-0.02 0.08,0 0.14,0.01 0.17,0.03 0.02,0.01 0.03,0.03 0.05,0.06 0.01,0.03 0.02,0.07 0.03,0.12 0.01,0.02 0.02,0.05 0.05,0.08 0.49,0.57 1.6,-0.29 2.13,-0.6 0.08,-0.04 0.17,-0.09 0.28,-0.15 0.11,-0.06 0.25,-0.14 0.4,-0.22 0.13,-0.08 0.27,-0.14 0.42,-0.19 0.16,-0.05 0.32,-0.08 0.5,-0.11 0.18,-0.02 0.32,-0.02 0.41,0.01 0.09,0.03 0.14,0.08 0.15,0.16 0.01,0.04 -0.02,0.12 -0.08,0.25 -0.07,0.13 -0.17,0.3 -0.32,0.51 -0.04,0.04 -0.07,0.08 -0.11,0.11 -0.02,0.03 -0.04,0.05 -0.05,0.07 0,0.02 -0.01,0.04 -0.01,0.05 0.01,0.01 0.03,0.02 0.06,0.03 0.03,-0.01 0.05,-0.02 0.07,-0.03 0.02,-0.01 0.05,-0.03 0.07,-0.04 0.04,-0.04 0.1,-0.07 0.17,-0.11 0.08,-0.04 0.17,-0.08 0.28,-0.14 0.04,-0.03 0.09,-0.07 0.16,-0.11 0.07,-0.03 0.14,-0.07 0.23,-0.11 0.02,-0.01 0.04,-0.02 0.07,-0.04 0.03,-0.02 0.07,-0.04 0.11,-0.07 0.06,-0.03 0.13,-0.06 0.22,-0.1 0.08,-0.03 0.18,-0.07 0.3,-0.12 0.13,-0.04 0.24,-0.07 0.35,-0.1 0.1,-0.03 0.19,-0.05 0.27,-0.06 0.16,-0.02 0.3,-0.02 0.42,-0.01 0.12,0.01 0.23,0.04 0.33,0.09 0.11,0.09 0.23,0.18 0.33,0.27 0.07,0.04 0.13,0.08 0.2,0.1 0.08,0.01 0.16,0.02 0.24,0.01 0.35,-0.05 0.74,-0.36 1.03,-0.5 0.32,-0.14 0.54,-0.26 0.65,-0.34 0.05,-0.04 0.1,-0.06 0.16,-0.08 0.07,-0.03 0.13,-0.04 0.2,-0.05 0.17,-0.02 0.32,-0.02 0.44,-0.01 0.13,0.02 0.22,0.06 0.27,0.11 0.04,0.05 0.08,0.1 0.12,0.16 0.04,0.05 0.08,0.1 0.11,0.15 0.04,0.04 0.09,0.08 0.15,0.15 0.06,0.06 0.11,0.1 0.13,0.11 0.03,0.01 0.07,0.02 0.12,0.02 0.24,0.01 0.53,-0.07 0.74,-0.16 0.07,-0.03 0.15,-0.06 0.23,-0.1 0.54,-0.25 1.07,-0.56 1.57,-0.85 0.08,-0.05 0.17,-0.1 0.28,-0.16 0.11,-0.06 0.25,-0.13 0.4,-0.22 0.13,-0.08 0.27,-0.14 0.42,-0.19 0.16,-0.05 0.32,-0.08 0.5,-0.1 0.18,-0.03 0.32,-0.02 0.41,0 0.09,0.03 0.14,0.09 0.15,0.16 0.01,0.04 -0.02,0.13 -0.08,0.25 -0.07,0.13 -0.17,0.3 -0.32,0.51 -0.04,0.04 -0.07,0.08 -0.11,0.12 -0.02,0.02 -0.04,0.05 -0.05,0.07 -0.01,0.02 -0.01,0.03 -0.01,0.04 0.01,0.01 0.03,0.02 0.06,0.03 0.03,-0.01 0.05,-0.02 0.07,-0.03 0.02,-0.01 0.05,-0.03 0.07,-0.04 0.04,-0.03 0.09,-0.07 0.17,-0.11 0.08,-0.04 0.17,-0.08 0.28,-0.13 0.04,-0.04 0.09,-0.08 0.16,-0.11 0.07,-0.04 0.14,-0.08 0.23,-0.12 0.02,-0.01 0.04,-0.02 0.07,-0.04 0.03,-0.02 0.07,-0.04 0.11,-0.07 0.06,-0.03 0.13,-0.06 0.22,-0.1 0.08,-0.03 0.18,-0.07 0.29,-0.11 0.14,-0.05 0.25,-0.08 0.36,-0.11 0.1,-0.03 0.19,-0.04 0.27,-0.05 0.16,-0.02 0.29,-0.03 0.42,-0.02 0.12,0.01 0.23,0.04 0.33,0.09 0.11,0.1 0.23,0.19 0.33,0.27 0.36,0.27 0.73,0.02 1.03,-0.17 0.06,-0.03 0.13,-0.07 0.21,-0.11 0.08,-0.04 0.17,-0.1 0.26,-0.16 0.04,-0.03 0.08,-0.07 0.13,-0.12 0.05,-0.04 0.11,-0.09 0.18,-0.15 0.02,-0.05 0.08,-0.12 0.18,-0.19 0.1,-0.08 0.24,-0.16 0.42,-0.26 0.25,-0.15 0.52,-0.3 0.79,-0.46 0.15,-0.1 0.3,-0.18 0.48,-0.24 0.17,-0.07 0.36,-0.11 0.57,-0.14 0.14,-0.01 0.25,-0.01 0.33,0.03 0.08,0.03 0.13,0.1 0.14,0.18 0.01,0.03 -0.05,0.09 -0.16,0.17 -0.11,0.09 -0.28,0.2 -0.51,0.33 -0.14,0.09 -0.29,0.17 -0.45,0.26 -0.16,0.09 -0.31,0.17 -0.46,0.26 -0.07,0.04 -0.15,0.07 -0.22,0.11 -0.08,0.04 -0.16,0.09 -0.25,0.13 -0.03,0.04 -0.05,0.09 -0.08,0.14 0.01,0.07 0.04,0.13 0.07,0.17 0.03,0.05 0.08,0.09 0.13,0.12 0.03,0.01 0.09,0.03 0.18,0.06 0.09,0.04 0.21,0.08 0.36,0.13 0.04,0.01 0.08,0.03 0.14,0.04 0.05,0.01 0.11,0.02 0.18,0.03 0.07,-0.02 0.22,-0.08 0.4,-0.2 1.05,-0.68 3.03,-0.71 3.46,-1.02l0.32 0.21c-0.03,0.02 -0.13,0.03 -0.18,0.11 -0.06,0.08 -2.44,0.4 -2.98,0.77 -0.14,0.1 -0.29,0.19 -0.44,0.3 0,0.02 0.03,0.04 0.08,0.05 0.05,0.02 0.12,0.04 0.19,0.06 0.14,0.03 0.26,0.09 0.37,0.16 0.1,0.08 0.19,0.17 0.26,0.29 0,0.01 0,0.02 -0.01,0.04 0,0.02 0,0.04 0,0.07 -0.03,0.21 -0.35,0.46 -0.96,0.75 -0.6,0.28 -1.19,0.46 -1.76,0.53 -0.27,0.04 -0.48,0.05 -0.64,0.05 -0.16,-0.01 -0.28,-0.03 -0.35,-0.07 -0.03,-0.02 -0.06,-0.06 -0.08,-0.13 -0.03,-0.06 -0.05,-0.15 -0.07,-0.26 0,-0.01 0.01,-0.04 0.03,-0.07 0.02,-0.03 0.06,-0.08 0.11,-0.14 0.03,-0.04 0.08,-0.09 0.13,-0.13 0.06,-0.05 0.12,-0.1 0.18,-0.15 0.06,-0.05 0.13,-0.09 0.19,-0.14 0.07,-0.04 0.13,-0.09 0.19,-0.13 0.15,-0.08 0.28,-0.15 0.39,-0.22 0.09,-0.04 0.16,-0.09 0.21,-0.12 0.05,-0.04 0.07,-0.07 0.06,-0.09 -0.18,-0.06 -0.36,-0.12 -0.54,-0.18 -0.2,-0.05 -0.36,-0.12 -0.48,-0.18 -0.13,-0.07 -0.21,-0.14 -0.26,-0.22 -0.01,-0.01 -0.03,-0.02 -0.07,-0.04 -0.41,0.21 -0.91,0.5 -1.4,0.56 -0.12,0.02 -0.23,0.02 -0.34,0.02 -0.1,-0.01 -0.2,-0.02 -0.28,-0.05 -0.04,-0.01 -0.1,-0.03 -0.16,-0.06 -0.07,-0.03 -0.15,-0.07 -0.23,-0.11 -0.07,-0.02 -0.15,-0.04 -0.24,-0.07 -0.09,-0.03 -0.19,-0.06 -0.31,-0.1l-0.07 0c-0.09,0.03 -0.18,0.06 -0.27,0.09 -0.09,0.03 -0.18,0.07 -0.28,0.12 -0.21,0.1 -0.37,0.16 -0.46,0.19 -0.1,0.03 -0.16,0.06 -0.19,0.09 -0.06,0.05 -0.18,0.12 -0.33,0.21 -0.16,0.09 -0.36,0.19 -0.6,0.32 -0.06,0.03 -0.12,0.06 -0.18,0.09 -0.06,0.03 -0.12,0.06 -0.18,0.09 -0.06,0.03 -0.13,0.05 -0.21,0.07 -0.08,0.02 -0.17,0.03 -0.27,0.05 -0.2,0.02 -0.31,0.01 -0.34,-0.04 -0.03,-0.04 -0.05,-0.09 -0.07,-0.14 0.06,-0.08 0.13,-0.18 0.2,-0.31 0.08,-0.12 0.16,-0.26 0.26,-0.43 0,-0.01 0.01,-0.02 0.02,-0.04 0.02,-0.02 0.04,-0.04 0.06,-0.07 0.02,-0.02 0.03,-0.04 0.04,-0.06 0,-0.02 0.01,-0.04 0,-0.05 0,-0.01 -0.01,-0.02 -0.04,-0.02 -0.02,-0.01 -0.06,-0.01 -0.12,0 -0.05,0.01 -0.11,0.03 -0.19,0.06 -0.08,0.03 -0.17,0.08 -0.28,0.14 -0.55,0.3 -1.13,0.6 -1.73,0.84 -0.24,0.1 -0.54,0.23 -0.82,0.27 -0.45,0.05 -0.75,0.07 -0.89,0.05 -0.14,-0.02 -0.31,-0.1 -0.5,-0.25 -0.02,-0.01 -0.05,-0.03 -0.1,-0.04 -0.04,-0.02 -0.09,-0.03 -0.14,-0.05 -0.07,-0.04 -0.13,-0.06 -0.18,-0.08 -0.04,-0.01 -0.08,-0.02 -0.11,-0.01 -0.08,0.01 -0.19,0.04 -0.31,0.1 -0.51,0.22 -0.97,0.55 -1.55,0.63 -0.12,0.01 -0.23,0.02 -0.34,0.01 -0.1,0 -0.2,-0.02 -0.28,-0.04 -0.04,-0.01 -0.1,-0.03 -0.16,-0.06 -0.07,-0.03 -0.15,-0.07 -0.23,-0.12 -0.07,-0.01 -0.15,-0.03 -0.24,-0.06 -0.09,-0.03 -0.19,-0.06 -0.31,-0.1l-0.07 0c-0.09,0.03 -0.18,0.05 -0.27,0.09 -0.09,0.03 -0.18,0.07 -0.28,0.12 -0.21,0.1 -0.37,0.16 -0.46,0.19 -0.1,0.03 -0.16,0.06 -0.19,0.09 -0.06,0.05 -0.17,0.12 -0.33,0.21 -0.16,0.09 -0.36,0.19 -0.6,0.32 -0.06,0.03 -0.12,0.06 -0.18,0.09 -0.06,0.03 -0.12,0.06 -0.18,0.09 -0.06,0.03 -0.13,0.05 -0.21,0.07 -0.08,0.02 -0.17,0.03 -0.27,0.04 -0.2,0.03 -0.31,0.02 -0.34,-0.03 -0.03,-0.04 -0.05,-0.09 -0.07,-0.14 0.06,-0.08 0.13,-0.19 0.2,-0.31 0.08,-0.12 0.17,-0.27 0.26,-0.43 0,-0.01 0.01,-0.02 0.02,-0.04 0.02,-0.02 0.04,-0.04 0.06,-0.07 0.02,-0.02 0.03,-0.05 0.04,-0.07 0.01,-0.01 0.01,-0.03 0.01,-0.04 -0.01,-0.01 -0.02,-0.02 -0.05,-0.03 -0.02,0 -0.06,0 -0.12,0.01 -0.05,0.01 -0.11,0.02 -0.19,0.06 -0.08,0.03 -0.17,0.07 -0.28,0.13 -0.13,0.08 -0.23,0.13 -0.31,0.17 -0.64,0.33 -1.64,0.83 -2.42,0.71 -0.17,-0.03 -0.3,-0.08 -0.39,-0.16 -0.01,-0.02 -0.04,-0.04 -0.07,-0.06 -0.04,-0.02 -0.08,-0.03 -0.14,-0.05 -0.04,0.03 -0.09,0.05 -0.14,0.09 -0.05,0.03 -0.11,0.06 -0.17,0.09 -0.12,0.08 -0.25,0.15 -0.37,0.23 -0.13,0.07 -0.25,0.14 -0.39,0.22 -0.16,0.09 -0.32,0.16 -0.49,0.22 -0.17,0.05 -0.34,0.09 -0.49,0.11 -0.23,0.03 -0.42,0.03 -0.56,0 -0.15,-0.03 -0.25,-0.09 -0.31,-0.18 -0.06,-0.09 -0.1,-0.16 -0.13,-0.21 -0.02,-0.05 -0.03,-0.08 -0.02,-0.09 -0.02,-0.05 -0.04,-0.09 -0.06,-0.11 -0.02,-0.03 -0.05,-0.04 -0.08,-0.03l-0.05 0.01c-0.66,0.35 -1.33,0.7 -1.99,1.06zm17.14 -5.1c0.12,-0.02 0.22,-0.02 0.28,-0.01 0.06,0.01 0.09,0.03 0.1,0.07 -0.03,0.05 -0.04,0.1 -0.06,0.13 -0.04,0.07 -0.07,0.13 -0.1,0.18 -0.03,0.04 -0.05,0.07 -0.07,0.09 -0.04,0.05 -0.1,0.09 -0.17,0.13 -0.07,0.04 -0.16,0.08 -0.26,0.12 -0.11,0.04 -0.2,0.07 -0.28,0.09 -0.07,0.02 -0.13,0.03 -0.16,0.04 -0.08,0 -0.16,0.01 -0.24,0.02 -0.08,0 -0.15,0.01 -0.23,0.02 -0.07,0 -0.12,-0.02 -0.16,-0.05 -0.05,-0.03 -0.07,-0.08 -0.08,-0.14 -0.01,-0.05 0.06,-0.13 0.23,-0.23 0.17,-0.11 0.32,-0.17 0.46,-0.19 0.08,-0.05 0.17,-0.1 0.28,-0.17 0.04,-0.02 0.11,-0.03 0.19,-0.05 0.07,-0.02 0.16,-0.04 0.27,-0.05zm11.27 1.85c-0.03,0.01 -0.09,0.04 -0.19,0.1 -0.1,0.07 -0.23,0.16 -0.4,0.28 -0.09,0.07 -0.19,0.14 -0.29,0.22 -0.09,0.07 -0.19,0.14 -0.29,0.22 -0.04,0.02 -0.09,0.07 -0.15,0.16 -0.06,0.08 -0.09,0.13 -0.09,0.15 0.01,0.03 0.04,0.05 0.09,0.06 0.06,0.01 0.14,0.01 0.25,0 0.38,-0.05 0.76,-0.18 1.14,-0.38 0.38,-0.19 0.55,-0.36 0.53,-0.5 -0.01,-0.03 -0.02,-0.06 -0.06,-0.09 -0.04,-0.04 -0.09,-0.07 -0.14,-0.11 -0.08,-0.05 -0.15,-0.08 -0.21,-0.09 -0.06,-0.02 -0.13,-0.03 -0.19,-0.02z"/>
 </g>
</svg>
