<?xml version="1.0" encoding="UTF-8"?>
<!DOCTYPE svg PUBLIC "-//W3C//DTD SVG 1.1//EN" "http://www.w3.org/Graphics/SVG/1.1/DTD/svg11.dtd">
<!-- Creator: CorelDRAW 2021 (64-Bit) -->
<svg xmlns="http://www.w3.org/2000/svg" xml:space="preserve" width="199px" height="40px" version="1.1" style="shape-rendering:geometricPrecision; text-rendering:geometricPrecision; image-rendering:optimizeQuality; fill-rule:evenodd; clip-rule:evenodd"
viewBox="0 0 536.73 107.96"
 xmlns:xlink="http://www.w3.org/1999/xlink"
 xmlns:xodm="http://www.corel.com/coreldraw/odm/2003">
 <defs>
  <style type="text/css">
   <![CDATA[
    .fil0 {fill:#FEFEFE}
    .fil1 {fill:red}
   ]]>
  </style>
 </defs>
 <g id="Capa_x0020_1">
  <metadata id="CorelCorpID_0Corel-Layer"/>
  <path class="fil0" d="M59.29 35.99l-24.67 0.08 -9.82 28.44 24.67 -0.08 1.64 -4.75 19.54 -4.81 -4.02 11.65c-0.28,0.82 -0.73,1.63 -1.36,2.38 -3.49,4.19 -10.65,4.57 -14.85,4.58l-33.52 0.11 -11.42 -5.61 12.17 -35.27 15.32 -5.69 33.52 -0.1c4.21,-0.02 11.14,0.33 11.72,4.53 0.1,0.74 -0.01,1.53 -0.29,2.34l-1.8 5.24 -19.71 5.29 2.88 -8.33zm-48.7 40l-10.59 -5.2 14.59 -42.28 17.76 -6.6 34.13 -0.1c4.54,-0.02 11.79,0.3 14.69,5.33l27.67 -8.72 -1.34 3.89c1.77,-0.12 3.53,-0.24 5.3,-0.36 4.8,-0.31 9.61,-0.57 14.42,-0.58 4.26,-0.02 10.95,0.25 14.08,4.51 4.46,-3.8 10.98,-4.34 16.14,-4.35l33.5 -0.1c4.3,-0.02 11.02,0.27 14.18,4.56 4.47,-4.02 11.14,-4.64 16.42,-4.66l33.49 -0.1c4.93,-0.01 13.01,0.36 15.32,6.7l7.09 -6.77 4.79 -0.01 2.66 -6.71 29.87 -10.27 -5.07 14.7 14.06 -4.83 -2.41 6.99 12.28 -0.04 -5.65 4.89 25.78 -8.28 -2.64 7.65 17.21 -6.17 2.67 12c0.04,0.03 0.08,0.06 0.12,0.08l6.2 -2.22 0.48 2.16c0.52,-0.11 1.06,-0.21 1.59,-0.28 1.44,-0.18 2.88,-0.24 4.33,-0.11 1.05,0.1 2.11,0.3 3.13,0.65l18.27 -19.75 41.79 -11.61 -15.41 16.65 24.39 -6.78 -11.03 11.91 21.59 -0.06c5.42,-0.02 14.68,0.44 15.83,8.79 0.07,0.54 0.1,1.08 0.09,1.62 4.19,0.84 8.16,2.97 8.89,8.24 0.25,1.77 0.01,3.56 -0.56,5.2l-7.13 20.66c-0.13,0.07 -0.27,0.14 -0.41,0.21 -0.97,0.52 -3.61,2.44 -4.67,1.62 -0.84,-0.66 -1.68,-1.32 -2.51,-2l-0.3 -0.25 -0.33 -0.16c-1.13,-0.56 -2.33,-0.85 -3.54,-0.96 -1.27,-0.11 -2.54,-0.06 -3.8,0.1 -0.39,0.05 -0.77,0.12 -1.15,0.19l3.13 -9.19 -19.52 5.36 -0.85 2.46c-1.16,0.16 -2.31,0.4 -3.44,0.72l-22.51 0.07 3.96 -11.48 37.07 -0.12 7.31 -2.8 5.73 -16.59c0.28,-0.81 0.38,-1.6 0.28,-2.34 -0.58,-4.2 -7.5,-4.55 -11.72,-4.53l-33.49 0.1c-4.15,0.01 -11.3,0.33 -14.79,4.44 -0.63,0.75 -1.09,1.55 -1.37,2.38l-3.33 9.26 18.76 -7.32 27.29 -0.05 -3.07 8.9 -25.75 0.05 2.66 -7.47 -20.58 8.26 -6.11 17.72c-0.4,0.21 -0.79,0.43 -1.17,0.67 -0.71,0.43 -1.44,0.92 -2.05,1.54 -1.22,1.2 -1.95,2.96 -1.61,4.94 0.26,1.5 0.96,2.77 1.98,3.62 -0.27,0.19 -0.56,0.37 -0.87,0.55 -0.48,-0.63 -0.88,-1.34 -1.18,-2.16 -0.57,-0.54 -1.06,-1.17 -1.47,-1.88l-8.55 9.24 -0.11 0.04 -0.03 -0.01c-0.14,-0.03 -0.27,-0.1 -0.39,-0.19 -0.84,-0.66 -1.68,-1.32 -2.51,-2l-0.3 -0.24 -0.33 -0.17c-1.13,-0.56 -2.33,-0.85 -3.54,-0.96 -1.27,-0.11 -2.55,-0.05 -3.81,0.11 -0.83,0.1 -1.67,0.29 -2.49,0.5 -0.97,0.26 -1.93,0.54 -2.89,0.87 -0.84,0.28 -1.67,0.62 -2.5,0.97 -0.66,0.28 -1.32,0.56 -1.96,0.91 -0.06,0.03 -0.11,0.06 -0.17,0.1 -0.42,-2.31 -1.88,-3.82 -3.7,-4.4 -1.38,-0.43 -2.93,-0.36 -4.33,-0.18 -1.46,0.18 -2.91,0.48 -4.33,0.93 -1.2,0.38 -2.38,0.87 -3.51,1.5l-2.34 -9.3 -0.1 0.04c-1.31,0.53 -2.62,1.03 -3.96,1.46l-3.81 11.06 -8.84 3.21c-0.27,-0.28 -0.56,-0.53 -0.89,-0.73 -0.86,-0.52 -1.81,-0.65 -2.76,-0.68 -0.93,-0.02 -1.88,0.07 -2.81,0.19 -1.33,0.17 -2.66,0.53 -3.9,1.17 -1.06,0.55 -2.02,1.28 -2.87,2.2 -0.13,0.08 -0.26,0.15 -0.38,0.22 -0.32,0.19 -0.64,0.36 -0.95,0.55 -0.71,0.44 -1.34,0.99 -2.02,1.45 -0.81,0.54 -1.64,1 -2.46,1.49 0.04,-0.06 0.08,-0.12 0.12,-0.18 0.17,-0.26 0.34,-0.53 0.49,-0.81 0.6,-1.07 0.87,-2.36 0.64,-3.65 -0.16,-0.94 -0.52,-1.73 -1.03,-2.35l0.54 -1.56 -1.25 0.87c-0.43,-0.33 -0.92,-0.57 -1.43,-0.72 -0.8,-0.22 -1.65,-0.21 -2.46,-0.11 -0.68,0.09 -1.39,0.28 -2.06,0.45 -1.19,0.32 -2.39,0.68 -3.58,1.05l-0.38 0.11 -0.35 0.23c-0.87,0.55 -1.73,1.13 -2.57,1.75 -0.67,0.5 -1.35,1.01 -2.06,1.44 -0.86,0.54 -1.76,1.01 -2.62,1.55l-2.46 0.09c0.3,-0.46 0.54,-0.99 0.72,-1.58 0.41,-1.38 0.36,-2.84 0.12,-4.25 -0.09,-0.56 -0.26,-1.08 -0.48,-1.55 0.11,-0.63 0.12,-1.29 0,-1.99 -0.38,-2.21 -1.81,-3.61 -3.54,-4.08 -1.05,-0.28 -2.19,-0.25 -3.25,-0.11 -2.48,0.31 -4.69,1.56 -6.51,3.64 -0.29,0.33 -1.23,1.34 -1.65,1.41l-1.9 0.04c-0.79,0.01 -1.33,0.22 -2.07,0.37 -0.39,0.08 -0.81,0.21 -1.2,0.25 -0.2,0.03 -0.4,0.04 -0.61,0.05 -0.07,-0.35 -0.13,-0.71 -0.17,-1.09 -0.04,-0.43 -0.06,-0.85 -0.06,-1.27l-0.01 0 -0.47 0.26 -0.5 -0.48c-0.11,-0.03 -0.21,-0.05 -0.31,-0.08 -0.36,0.12 -0.72,0.23 -1.08,0.34 -1.33,0.41 -2.66,0.79 -4.02,0.96 -0.47,0.06 -0.94,0.11 -1.42,0.15l-0.75 2.17c-0.68,0.07 -1.37,0.16 -2.05,0.24 -1.59,0.2 -3.15,0.78 -4.31,2.18 -1.04,1.27 -1.55,2.9 -1.53,4.61l-20.63 0.01 0.22 -0.74c-5.16,0.37 -10.32,0.57 -15.48,0.72 -1.1,0.04 -2.21,0.07 -3.31,0.09 -1.42,0.18 -2.88,0.26 -4.3,0.1l-1.03 0.02c-4.05,0.07 -10.12,-0.14 -13.52,-3.66 -0.6,0.13 -1.2,0.26 -1.8,0.39l-0.96 0.21c-3.48,2.16 -7.78,2.88 -11.68,3.08l-3.12 2.2 -3.48 -2.12 -29.62 0.09c-5.41,0.02 -14.64,-0.43 -15.82,-8.75 -0.08,-0.55 -0.11,-1.11 -0.1,-1.66 -4.18,-0.84 -8.14,-2.95 -8.89,-8.2 -0.25,-1.78 -0.01,-3.59 0.56,-5.24l1.53 -4.45 -9.16 2.31 3.86 -11.18 -8.14 0.13 -4.7 1.19 0.38 -1.12 -0.04 0 -16.44 46.42 -30.21 10.33 5.06 -14.67 -14.04 4.8 3.32 -9.63 -32.46 0.11 -16.11 -7.92 1.61 -4.66zm467.88 4.4c-0.4,0.7 -0.85,1.35 -1.35,1.94 -4.38,5.27 -11.91,6.03 -17.74,6.04l-33.5 0.1c-1.24,0.01 -2.68,-0.01 -4.18,-0.15 1.31,-0.43 2.61,-0.97 3.9,-1.49 2.95,-1.2 5.84,-2.55 8.7,-4.02l0.9 1.79c0.22,0.42 0.43,0.85 0.67,1.27 1.33,2.37 3.72,2.3 5.78,2.04 0.78,-0.1 1.56,-0.22 2.33,-0.4 0.76,-0.17 1.51,-0.4 2.24,-0.74 0.49,-0.24 0.99,-0.48 1.49,-0.73 0.47,-0.24 0.95,-0.48 1.42,-0.72 1.56,-0.81 3.11,-1.64 4.64,-2.51 0.95,-0.53 2.03,-1.13 2.9,-1.84 0.17,-0.08 0.36,-0.14 0.52,-0.19 1.31,-0.41 2.66,-1.04 3.92,-1.64 0.63,-0.29 1.26,-0.58 1.91,-0.81 0.43,-0.16 0.86,-0.31 1.3,-0.43 0.61,0.19 1.22,0.38 1.83,0.58 0.56,0.17 1.13,0.34 1.7,0.47 0.51,0.27 1.04,0.53 1.56,0.77 0.55,0.25 1.12,0.46 1.69,0.62 0.93,0.26 1.86,0.41 2.81,0.45 1.01,0.04 2.02,-0.01 3.03,-0.14 0.51,-0.06 1.02,-0.15 1.53,-0.26zm-63.18 -7.2c0.25,0.2 0.49,0.42 0.71,0.68 0.39,0.45 0.78,0.92 1.15,1.41 0.24,0.33 0.48,0.66 0.7,1.01 0.34,0.31 0.66,0.64 0.98,0.97 0,0 0,0 0,0 1.35,0 2.98,-0.44 4.21,-0.98 0.57,-0.26 1.15,-0.52 1.73,-0.78 1.51,-0.66 2.98,-1.41 4.45,-2.21 -4.17,-0.05 -8.34,-0.1 -12.49,-0.09 -0.45,0.01 -0.94,0 -1.44,-0.01zm-295.6 -37.27l-21.55 0.36 -16.72 47.21 -20.01 6.84 19.99 -57.98 20.34 -6.41 -0.67 1.92c3.98,-0.27 7.96,-0.54 11.95,-0.81 4.75,-0.3 9.55,-0.56 14.21,-0.57 4.14,-0.01 11.05,0.3 11.6,4.45 0.09,0.71 -0.01,1.47 -0.28,2.24l-2.49 7.24 -19.63 4.95 3.26 -9.44zm199.01 18.27l-1.95 5.65 -4.79 13.89 20.48 -7.44 1.94 -5.63 0 0 0.22 -0.65 1.72 -4.99 0 0 5.14 -14.89 5.17 -14.96 -20.15 6.47 -0.63 1.82 0 0 -2.92 8.47 0 0 -0.5 1.45 0 0 -3.73 10.81zm-46.52 8.41l-0.57 1.65 -0.57 1.65c-0.27,0.78 -0.38,1.55 -0.3,2.27 0.47,4.41 7.41,4.75 11.8,4.6l15.63 -0.52 12.39 -8.62 -20.85 0.07 1.04 -3.03 6.67 -19.31 2.11 -6.11 10.39 -0.03 10.52 -9.08 -17.79 0.05 4.92 -14.24 -19.77 6.8 -2.98 7.5 -5.95 0.02 -9.52 9.08 12.24 -0.04 -2.54 7.38 -6.87 19.91zm-81.11 3.66l3.57 -10.47 -19.53 5.36 -1.09 3.17 -25.71 0.08 3.97 -11.48 37.07 -0.12 7.31 -2.8 5.72 -16.59c0.28,-0.81 0.39,-1.6 0.29,-2.34 -0.58,-4.2 -7.51,-4.55 -11.72,-4.53l-33.5 0.1c-4.15,0.01 -11.3,0.33 -14.78,4.44 -0.64,0.75 -1.09,1.55 -1.38,2.38l-3.32 9.26 18.75 -7.32 27.29 -0.05 -3.07 8.9 -25.75 0.05 2.66 -7.47 -20.57 8.26 -7.33 21.24c-0.28,0.82 -0.39,1.61 -0.28,2.35 0.59,4.19 7.51,4.54 11.72,4.52 12,-0.03 24.19,0.46 36.08,-0.17 2.65,-0.14 5.78,-0.55 8.43,-1.73 2.01,-0.9 4.31,-2.53 5.17,-5.04zm180.79 -11.9l5.42 -5.86 10.35 -11.19 19.43 -21 24.83 -6.9 -10.58 11.43 -34.26 37.02 -6.51 7.03 -22.49 8.31 -4.07 -16.18 -4.11 -16.37 -1.1 -4.37 -1.13 -4.46 17.79 -6.38 1.12 5.05 0.01 0.01 0.98 4.43 0 0 3.16 14.18 1.16 5.25zm-166.66 -20.72l-3.56 10.45 19.52 -5.35 1.1 -3.17 25.7 -0.08 -3.96 11.48 -34.91 0.11c-4.65,0.01 -9.09,1.7 -10.94,7.05l-2.29 6.65c-3.67,10.62 2.52,12.38 9.98,12.66 9.28,0.35 20.49,-1.24 29.94,-1.91l-0.38 1.29 17.43 -0.01 5.48 -15.64 -0.12 0.05 2.91 -8.51 5.22 -15.15c0.29,-0.82 0.39,-1.61 0.29,-2.35 -0.6,-4.19 -7.51,-4.54 -11.72,-4.52 -12.01,0.03 -24.19,-0.46 -36.09,0.16 -2.65,0.14 -5.78,0.56 -8.43,1.74 -2,0.89 -4.31,2.53 -5.17,5.05zm32.92 30.85l-21.95 0.04c-3.28,0.01 -3.79,-0.31 -2.56,-3.73l0.6 -1.64c1.12,-3.28 2.3,-3.52 5.34,-3.53l21.53 -0.04 -1.96 5.51 0 0 -0.7 1.96 0.14 -0.05 -0.44 1.48z"/>
  <path class="fil1" d="M284.5 102.87c-0.86,0.47 -1.71,0.84 -2.56,1.11 -0.85,0.27 -1.66,0.45 -2.42,0.54 -1.68,0.22 -2.96,0.2 -3.84,-0.05 -0.88,-0.25 -1.38,-0.73 -1.51,-1.46 -0.13,-0.78 -0.17,-1.48 -0.11,-2.07 0.05,-0.6 0.21,-1.1 0.5,-1.5 0.14,-0.12 0.24,-0.23 0.28,-0.33 -0.02,-0.13 0.01,-0.32 0.08,-0.57 0.08,-0.24 0.17,-0.53 0.27,-0.86 0.13,-0.56 0.29,-1.12 0.47,-1.69 0.36,-0.38 0.75,-0.78 1.13,-1.2 -0.01,-0.08 -0.17,-0.12 -0.48,-0.13l-0.54 0.19c-0.53,0.4 -1.22,0.84 -2.07,1.32 -0.86,0.47 -1.88,0.97 -3.07,1.54 -1.83,0.89 -27.52,5.94 -29.42,6.87 -0.1,0.09 -0.29,0.22 -0.57,0.39 -0.28,0.18 -0.59,0.39 -0.95,0.64 -0.22,-0.14 -0.49,-0.31 -0.83,-0.53 -0.31,-0.22 -0.66,-0.47 -1.02,-0.76 -0.09,-0.07 -0.21,-0.13 -0.33,-0.19 -0.12,-0.05 -0.26,-0.09 -0.42,-0.11l0.2 -0.19c0.17,-0.16 0.47,-0.31 0.81,-0.52 0.33,-0.2 0.69,-0.49 1.19,-0.74 2.52,-1.27 28.83,-6.74 31.19,-8.31 2.36,-1.57 4.66,-3.32 6.9,-5.26 0.28,-0.19 0.6,-0.43 0.93,-0.72 0.35,-0.29 0.71,-0.65 1.11,-1.08 -0.01,-0.08 -0.08,-0.14 -0.2,-0.16 -0.13,-0.03 -0.33,-0.02 -0.6,0.01 -0.21,0.03 -0.58,0.1 -1.1,0.21 -0.5,0.12 -0.89,0.19 -1.16,0.22l-7.15 0.91c-0.31,0.04 -0.8,0.1 -1.52,0.17 -0.71,0.08 -1.22,0.14 -1.51,0.17 -0.4,-0.01 -0.76,-0.03 -1.09,-0.04 -0.33,0 -0.66,-0.01 -0.98,-0.02 -0.46,0 -0.82,-0.03 -1.09,-0.08 -0.27,-0.06 -0.4,-0.15 -0.43,-0.28 -0.14,-0.87 0,-1.56 0.44,-2.09 0.43,-0.53 1.17,-0.86 2.25,-0.99 1.07,-0.14 2.07,-0.25 3.01,-0.34 0.95,-0.08 1.77,-0.14 2.53,-0.18 0.55,-0.12 1.08,-0.22 1.58,-0.33 1.01,-0.13 1.89,-0.23 2.62,-0.29 0.73,-0.07 1.3,-0.1 1.68,-0.11 0.5,-0.1 0.98,-0.2 1.44,-0.3 0.47,-0.09 0.99,-0.19 1.57,-0.31l1.9 -0.04c1.34,-0.22 2.66,-1.06 3.94,-2.54 1.29,-1.46 2.8,-2.31 4.51,-2.53 0.9,-0.11 1.64,-0.1 2.17,0.04 0.52,0.14 0.82,0.41 0.89,0.8 0.06,0.32 -0.13,0.76 -0.57,1.34 -0.42,0.57 -0.65,0.99 -0.68,1.26 0.09,0.04 0.19,0.08 0.34,0.13 0.15,0.05 0.36,0.09 0.64,0.14 0.25,0.02 0.42,0.1 0.54,0.21 0.12,0.12 0.18,0.27 0.22,0.46 0.14,0.82 0.15,1.46 0.01,1.93 -0.14,0.47 -0.43,0.74 -0.88,0.81l-3.86 0.78c-0.05,0.15 -0.12,0.33 -0.19,0.54 -0.08,0.21 -0.2,0.46 -0.35,0.74 -0.52,0.76 -1.1,1.72 -1.72,2.86 -0.62,1.15 -1.31,2.51 -2.06,4.06 -0.41,1.22 -0.72,2.2 -0.93,2.95 -0.21,0.75 -0.29,1.24 -0.24,1.49 0.03,0.21 0.16,0.37 0.37,0.45 0.22,0.08 0.5,0.11 0.89,0.06 4.6,-0.59 11.93,-5.7 15.44,-7.96 0.83,-0.52 1.73,-1.06 2.68,-1.59 0.77,-0.52 1.54,-1.05 2.28,-1.59 0.74,-0.55 1.53,-1.09 2.37,-1.63 1.48,-0.45 2.64,-0.79 3.46,-1.01 0.82,-0.21 1.38,-0.33 1.69,-0.38 0.57,-0.07 1.03,-0.06 1.35,0.03 0.33,0.09 0.52,0.26 0.56,0.5 0.01,0.08 -0.02,0.21 -0.12,0.37 -0.09,0.17 -0.2,0.35 -0.32,0.54 -0.21,0.31 -0.47,0.63 -0.78,0.96 -0.21,0.51 -0.5,1.03 -0.83,1.56 -0.34,0.53 -0.66,1.05 -0.96,1.57 -0.28,0.63 -0.48,1.2 -0.61,1.71 -0.13,0.52 -0.15,0.99 -0.08,1.39 0.13,0.77 0.32,1.32 0.6,1.66 0.28,0.33 0.6,0.46 0.96,0.37 0.38,-0.13 0.83,-0.29 1.38,-0.48 0.57,-0.18 1.21,-0.4 1.94,-0.65 0.64,-0.34 1.37,-0.77 2.16,-1.25 0.8,-0.49 1.76,-1.07 2.87,-1.74 0.64,-0.47 1.28,-0.93 1.94,-1.4 0.26,-0.14 0.55,-0.31 0.87,-0.5 0.35,-0.2 0.66,-0.39 0.92,-0.58 0.63,-0.75 1.35,-1.33 2.19,-1.76 0.85,-0.44 1.81,-0.72 2.93,-0.87 0.99,-0.12 1.78,-0.18 2.38,-0.16 0.62,0.01 1.06,0.09 1.3,0.24 0.14,0.08 0.26,0.23 0.38,0.45 0.12,0.23 0.21,0.52 0.27,0.9 0.03,0.15 0.14,0.36 0.37,0.62 3.75,4.4 12.29,-2.24 16.37,-4.58 0.59,-0.32 1.3,-0.71 2.13,-1.18 0.86,-0.48 1.88,-1.05 3.04,-1.71 1,-0.59 2.1,-1.07 3.27,-1.44 1.19,-0.37 2.46,-0.64 3.83,-0.82 1.39,-0.18 2.41,-0.15 3.12,0.07 0.7,0.23 1.09,0.63 1.19,1.22 0.05,0.31 -0.16,0.95 -0.65,1.92 -0.51,0.97 -1.31,2.26 -2.44,3.9 -0.29,0.31 -0.58,0.61 -0.83,0.89 -0.2,0.2 -0.33,0.38 -0.39,0.52 -0.05,0.15 -0.07,0.26 -0.06,0.33 0.01,0.08 0.17,0.17 0.46,0.25 0.19,-0.07 0.35,-0.14 0.52,-0.23 0.14,-0.09 0.34,-0.2 0.55,-0.32 0.27,-0.25 0.7,-0.51 1.29,-0.82 0.59,-0.31 1.31,-0.65 2.14,-1.04 0.29,-0.27 0.7,-0.56 1.23,-0.85 0.51,-0.29 1.1,-0.58 1.75,-0.86 0.14,-0.07 0.32,-0.19 0.56,-0.34 0.21,-0.15 0.5,-0.32 0.81,-0.5 0.48,-0.24 1.03,-0.5 1.68,-0.77 0.65,-0.28 1.42,-0.58 2.3,-0.9 1,-0.32 1.9,-0.59 2.7,-0.81 0.8,-0.21 1.51,-0.35 2.12,-0.43 1.19,-0.15 2.24,-0.18 3.19,-0.1 0.96,0.09 1.79,0.31 2.51,0.67 0.91,0.74 1.78,1.43 2.59,2.06 0.48,0.37 1,0.63 1.55,0.77 0.56,0.13 1.16,0.16 1.81,0.08 2.66,-0.34 5.7,-2.78 7.89,-3.79 2.44,-1.13 4.12,-2.02 5.03,-2.64 0.35,-0.27 0.76,-0.48 1.23,-0.64 0.49,-0.16 0.97,-0.27 1.48,-0.33 1.33,-0.17 2.48,-0.2 3.42,-0.08 0.95,0.12 1.64,0.41 2.02,0.84 0.34,0.39 0.67,0.79 0.96,1.18 0.3,0.41 0.57,0.8 0.81,1.22 0.3,0.24 0.7,0.61 1.16,1.11 0.49,0.5 0.83,0.78 1.03,0.84 0.21,0.11 0.52,0.17 0.9,0.18 1.87,0.07 4.08,-0.52 5.7,-1.23 0.55,-0.25 1.11,-0.51 1.72,-0.77 4.19,-1.89 8.21,-4.33 12.1,-6.57 0.59,-0.31 1.3,-0.7 2.14,-1.18 0.85,-0.48 1.87,-1.04 3.03,-1.71 1.01,-0.58 2.1,-1.06 3.27,-1.43 1.19,-0.37 2.47,-0.65 3.83,-0.82 1.39,-0.18 2.41,-0.15 3.13,0.07 0.69,0.23 1.08,0.63 1.18,1.21 0.06,0.32 -0.15,0.96 -0.65,1.92 -0.51,0.97 -1.3,2.27 -2.44,3.9 -0.29,0.32 -0.58,0.61 -0.82,0.9 -0.21,0.2 -0.34,0.38 -0.39,0.52 -0.06,0.15 -0.08,0.26 -0.07,0.32 0.02,0.09 0.17,0.17 0.46,0.26 0.19,-0.07 0.36,-0.14 0.52,-0.23 0.15,-0.09 0.35,-0.2 0.55,-0.32 0.27,-0.25 0.7,-0.52 1.29,-0.83 0.59,-0.3 1.31,-0.64 2.14,-1.03 0.29,-0.27 0.7,-0.56 1.23,-0.85 0.51,-0.3 1.1,-0.59 1.75,-0.86 0.14,-0.08 0.33,-0.19 0.56,-0.34 0.21,-0.16 0.5,-0.32 0.81,-0.5 0.48,-0.24 1.03,-0.51 1.68,-0.78 0.66,-0.27 1.42,-0.58 2.3,-0.9 1.01,-0.31 1.9,-0.59 2.7,-0.8 0.8,-0.21 1.51,-0.36 2.12,-0.44 1.19,-0.15 2.24,-0.17 3.19,-0.09 0.96,0.09 1.79,0.31 2.51,0.66 0.91,0.75 1.79,1.44 2.59,2.07 2.73,2.1 5.58,0.14 7.89,-1.32 0.47,-0.21 1.02,-0.48 1.62,-0.82 0.6,-0.33 1.27,-0.73 2.01,-1.21 0.27,-0.28 0.6,-0.58 0.98,-0.91 0.4,-0.34 0.83,-0.73 1.35,-1.18 0.16,-0.4 0.63,-0.89 1.39,-1.46 0.76,-0.58 1.82,-1.25 3.2,-2.03 1.97,-1.1 4.01,-2.26 6.13,-3.48 1.08,-0.78 2.3,-1.41 3.63,-1.89 1.33,-0.47 2.81,-0.81 4.41,-1.01 1.08,-0.14 1.91,-0.07 2.51,0.2 0.63,0.27 0.99,0.73 1.1,1.4 0.04,0.25 -0.36,0.69 -1.21,1.32 -0.85,0.64 -2.14,1.48 -3.92,2.52 -1.1,0.65 -2.25,1.31 -3.45,1.98 -1.22,0.66 -2.41,1.33 -3.59,2.01 -0.53,0.25 -1.1,0.54 -1.69,0.84 -0.59,0.3 -1.22,0.64 -1.9,1 -0.19,0.32 -0.37,0.67 -0.58,1.06 0.09,0.53 0.27,0.98 0.53,1.34 0.24,0.36 0.59,0.66 1.01,0.89 0.21,0.06 0.66,0.22 1.34,0.48 0.7,0.25 1.62,0.58 2.78,0.97 0.3,0.1 0.63,0.2 1.05,0.28 0.39,0.09 0.87,0.17 1.38,0.24 0.55,-0.15 1.69,-0.57 3.13,-1.51 8.01,-5.23 23.22,-5.43 26.5,-7.84l2.49 1.61c-0.26,0.14 -1,0.26 -1.41,0.85 -0.44,0.63 -18.73,3.11 -22.82,5.9 -1.09,0.75 -2.26,1.5 -3.4,2.31 0.03,0.14 0.23,0.28 0.63,0.4 0.38,0.14 0.86,0.27 1.45,0.42 1.04,0.29 1.99,0.71 2.81,1.27 0.81,0.57 1.5,1.29 2.03,2.19 -0.03,0.07 -0.05,0.18 -0.08,0.34 -0.04,0.15 -0.05,0.33 -0.05,0.53 -0.2,1.62 -2.63,3.53 -7.3,5.72 -4.67,2.2 -9.19,3.57 -13.58,4.12 -2.01,0.26 -3.65,0.37 -4.87,0.34 -1.24,-0.03 -2.13,-0.2 -2.7,-0.5 -0.23,-0.15 -0.42,-0.48 -0.63,-0.99 -0.2,-0.5 -0.38,-1.18 -0.53,-2.03 -0.01,-0.08 0.06,-0.25 0.23,-0.52 0.18,-0.27 0.47,-0.63 0.89,-1.11 0.23,-0.3 0.55,-0.63 0.97,-0.98 0.44,-0.36 0.89,-0.74 1.36,-1.15 0.48,-0.35 0.98,-0.7 1.5,-1.04 0.5,-0.34 0.98,-0.68 1.42,-1.02 1.15,-0.63 2.15,-1.19 3.04,-1.68 0.68,-0.35 1.2,-0.66 1.56,-0.94 0.37,-0.28 0.53,-0.52 0.5,-0.69 -1.4,-0.48 -2.81,-0.93 -4.2,-1.35 -1.48,-0.44 -2.69,-0.91 -3.66,-1.41 -0.96,-0.5 -1.63,-1.05 -2.02,-1.66 -0.05,-0.08 -0.23,-0.18 -0.51,-0.33 -3.18,1.58 -6.96,3.82 -10.78,4.31 -0.88,0.11 -1.73,0.15 -2.55,0.12 -0.82,-0.04 -1.54,-0.16 -2.18,-0.35 -0.31,-0.08 -0.73,-0.22 -1.23,-0.46 -0.52,-0.23 -1.11,-0.53 -1.79,-0.89 -0.54,-0.11 -1.14,-0.27 -1.82,-0.48 -0.67,-0.22 -1.47,-0.47 -2.38,-0.76l-0.52 0.01c-0.71,0.17 -1.41,0.39 -2.08,0.64 -0.68,0.25 -1.4,0.56 -2.16,0.92 -1.61,0.76 -2.8,1.26 -3.54,1.49 -0.73,0.23 -1.22,0.45 -1.46,0.67 -0.47,0.39 -1.31,0.93 -2.54,1.61 -1.19,0.69 -2.71,1.5 -4.54,2.46 -0.46,0.23 -0.94,0.47 -1.4,0.71 -0.46,0.23 -0.94,0.46 -1.4,0.68 -0.48,0.22 -1.01,0.39 -1.64,0.53 -0.61,0.15 -1.29,0.26 -2.06,0.36 -1.54,0.2 -2.39,0.11 -2.59,-0.25 -0.2,-0.35 -0.39,-0.72 -0.57,-1.08 0.47,-0.64 1.01,-1.44 1.59,-2.39 0.57,-0.95 1.24,-2.05 2,-3.32 -0.01,-0.06 0.03,-0.17 0.15,-0.3 0.12,-0.13 0.25,-0.31 0.41,-0.52 0.15,-0.2 0.26,-0.37 0.32,-0.51 0.05,-0.13 0.07,-0.26 0.05,-0.35 -0.01,-0.1 -0.12,-0.16 -0.33,-0.19 -0.18,-0.03 -0.5,-0.01 -0.91,0.04 -0.39,0.05 -0.88,0.19 -1.48,0.43 -0.6,0.24 -1.32,0.6 -2.14,1.06 -4.25,2.33 -8.66,4.63 -13.27,6.49 -1.89,0.77 -4.18,1.76 -6.32,2.03 -3.45,0.44 -5.74,0.58 -6.8,0.43 -1.09,-0.16 -2.38,-0.8 -3.85,-1.95 -0.17,-0.09 -0.43,-0.19 -0.75,-0.3 -0.34,-0.12 -0.72,-0.24 -1.13,-0.4 -0.52,-0.25 -0.95,-0.44 -1.33,-0.55 -0.36,-0.12 -0.66,-0.15 -0.9,-0.13 -0.6,0.08 -1.4,0.33 -2.38,0.76 -3.86,1.68 -7.4,4.28 -11.9,4.85 -0.88,0.11 -1.73,0.15 -2.55,0.12 -0.83,-0.04 -1.55,-0.15 -2.18,-0.35 -0.31,-0.07 -0.73,-0.22 -1.23,-0.45 -0.52,-0.24 -1.11,-0.54 -1.79,-0.89 -0.54,-0.11 -1.15,-0.28 -1.82,-0.49 -0.68,-0.21 -1.48,-0.46 -2.38,-0.75l-0.52 0c-0.71,0.18 -1.41,0.39 -2.09,0.64 -0.67,0.25 -1.4,0.57 -2.15,0.93 -1.61,0.75 -2.8,1.26 -3.54,1.48 -0.74,0.24 -1.22,0.46 -1.46,0.67 -0.47,0.4 -1.32,0.93 -2.54,1.61 -1.2,0.69 -2.72,1.5 -4.55,2.46 -0.46,0.23 -0.93,0.47 -1.39,0.71 -0.46,0.23 -0.94,0.46 -1.4,0.68 -0.48,0.22 -1.01,0.39 -1.64,0.54 -0.62,0.14 -1.3,0.26 -2.06,0.35 -1.54,0.2 -2.39,0.12 -2.59,-0.24 -0.21,-0.36 -0.39,-0.72 -0.57,-1.09 0.47,-0.64 1.01,-1.44 1.59,-2.39 0.57,-0.95 1.24,-2.05 2,-3.32 -0.01,-0.06 0.03,-0.17 0.15,-0.29 0.12,-0.14 0.25,-0.31 0.41,-0.53 0.15,-0.19 0.26,-0.36 0.31,-0.5 0.06,-0.14 0.08,-0.27 0.06,-0.35 -0.01,-0.1 -0.13,-0.17 -0.33,-0.2 -0.18,-0.02 -0.5,-0.01 -0.91,0.04 -0.39,0.05 -0.89,0.19 -1.48,0.44 -0.6,0.24 -1.32,0.59 -2.14,1.06 -1,0.55 -1.8,0.98 -2.41,1.29 -4.89,2.52 -12.55,6.36 -18.59,5.41 -1.29,-0.2 -2.27,-0.61 -2.96,-1.23 -0.11,-0.16 -0.29,-0.3 -0.57,-0.43 -0.28,-0.13 -0.62,-0.25 -1.02,-0.37 -0.33,0.19 -0.69,0.39 -1.09,0.64 -0.42,0.25 -0.85,0.5 -1.31,0.75 -0.96,0.58 -1.92,1.15 -2.86,1.71 -0.96,0.56 -1.94,1.12 -2.94,1.68 -1.23,0.72 -2.51,1.3 -3.82,1.72 -1.32,0.43 -2.57,0.71 -3.74,0.86 -1.76,0.22 -3.2,0.22 -4.33,-0.02 -1.14,-0.24 -1.92,-0.71 -2.34,-1.4 -0.47,-0.67 -0.8,-1.19 -0.99,-1.57 -0.16,-0.37 -0.22,-0.61 -0.18,-0.7 -0.12,-0.39 -0.29,-0.68 -0.46,-0.86 -0.16,-0.19 -0.39,-0.27 -0.64,-0.23l-0.34 0.11c-5.1,2.69 -10.21,5.35 -15.28,8.08zm131.55 -39.11c0.96,-0.12 1.67,-0.14 2.13,-0.06 0.47,0.08 0.72,0.25 0.76,0.5 -0.17,0.42 -0.29,0.76 -0.4,1.04 -0.31,0.54 -0.57,0.98 -0.81,1.33 -0.22,0.35 -0.4,0.6 -0.53,0.75 -0.3,0.35 -0.72,0.67 -1.27,0.97 -0.55,0.3 -1.24,0.59 -2.04,0.88 -0.85,0.32 -1.54,0.57 -2.13,0.74 -0.57,0.15 -0.98,0.25 -1.21,0.26 -0.65,0.06 -1.28,0.11 -1.87,0.16 -0.59,0.06 -1.18,0.13 -1.74,0.2 -0.53,-0.04 -0.95,-0.17 -1.27,-0.4 -0.34,-0.24 -0.54,-0.59 -0.62,-1.05 -0.07,-0.41 0.53,-1.01 1.83,-1.8 1.28,-0.8 2.45,-1.29 3.52,-1.47 0.59,-0.37 1.3,-0.78 2.11,-1.27 0.36,-0.14 0.86,-0.28 1.45,-0.42 0.59,-0.14 1.29,-0.26 2.09,-0.36zm86.5 14.21c-0.22,0.03 -0.71,0.29 -1.47,0.77 -0.76,0.48 -1.77,1.19 -3.05,2.12 -0.72,0.55 -1.46,1.11 -2.18,1.67 -0.73,0.56 -1.49,1.13 -2.27,1.68 -0.29,0.2 -0.68,0.61 -1.15,1.24 -0.47,0.63 -0.7,1.02 -0.67,1.16 0.04,0.26 0.27,0.43 0.7,0.5 0.43,0.07 1.05,0.05 1.88,-0.06 2.95,-0.37 5.86,-1.32 8.75,-2.84 2.9,-1.53 4.25,-2.82 4.07,-3.87 -0.04,-0.22 -0.18,-0.46 -0.46,-0.72 -0.29,-0.26 -0.65,-0.55 -1.08,-0.85 -0.56,-0.34 -1.1,-0.57 -1.58,-0.7 -0.5,-0.13 -0.99,-0.16 -1.49,-0.1z"/>
 </g>
</svg>
