<?xml version="1.0" encoding="UTF-8"?>
<!DOCTYPE svg PUBLIC "-//W3C//DTD SVG 1.1//EN" "http://www.w3.org/Graphics/SVG/1.1/DTD/svg11.dtd">
<!-- Creator: CorelDRAW 2021 (64-Bit) -->
<svg xmlns="http://www.w3.org/2000/svg" xml:space="preserve" width="412px" height="83px" version="1.1" style="shape-rendering:geometricPrecision; text-rendering:geometricPrecision; image-rendering:optimizeQuality; fill-rule:evenodd; clip-rule:evenodd"
viewBox="0 0 179.35 36.08"
 xmlns:xlink="http://www.w3.org/1999/xlink"
 xmlns:xodm="http://www.corel.com/coreldraw/odm/2003">
 <defs>
  <style type="text/css">
   <![CDATA[
    .fil1 {fill:red}
    .fil0 {fill:white;fill-opacity:0.749020}
   ]]>
  </style>
 </defs>
 <g id="Capa_x0020_1">
  <metadata id="CorelCorpID_0Corel-Layer"/>
  <path class="fil0" d="M19.81 12.03l-8.24 0.02 -3.28 9.51 8.24 -0.03 0.55 -1.59 6.53 -1.61 -1.35 3.9c-0.09,0.27 -0.24,0.54 -0.45,0.79 -1.16,1.4 -3.56,1.53 -4.96,1.53l-11.2 0.04 -3.82 -1.88 4.07 -11.78 5.12 -1.9 11.2 -0.04c1.41,0 3.72,0.12 3.91,1.52 0.04,0.25 0,0.51 -0.09,0.78l-0.61 1.75 -6.58 1.77 0.96 -2.78zm-16.27 13.36l-3.54 -1.74 4.88 -14.12 5.93 -2.21 11.4 -0.03c1.52,-0.01 3.94,0.1 4.91,1.78l9.25 -2.91 -0.45 1.29c0.59,-0.04 1.18,-0.08 1.77,-0.12 1.61,-0.1 3.21,-0.19 4.82,-0.19 1.42,0 3.66,0.08 4.71,1.51 1.49,-1.27 3.66,-1.45 5.39,-1.46l11.19 -0.03c1.44,-0.01 3.68,0.09 4.74,1.52 1.49,-1.34 3.72,-1.55 5.49,-1.55l11.19 -0.04c1.64,0 4.35,0.12 5.12,2.24l2.37 -2.26 1.6 0 0.88 -2.24 9.99 -3.44 -1.7 4.92 4.7 -1.62 -0.81 2.34 4.11 -0.02 -1.89 1.64 8.61 -2.77 -0.88 2.56 5.75 -2.07 0.9 4.02c0.01,0.01 0.02,0.02 0.04,0.02l2.07 -0.74 0.16 0.72c0.17,-0.04 0.35,-0.07 0.53,-0.09 0.48,-0.06 0.96,-0.08 1.44,-0.04 0.36,0.03 0.71,0.1 1.05,0.22l6.11 -6.6 13.96 -3.88 -5.15 5.56 8.15 -2.26 -3.69 3.98 7.22 -0.02c1.81,-0.01 4.9,0.14 5.29,2.93 0.02,0.18 0.03,0.37 0.03,0.55 1.4,0.28 2.73,0.99 2.97,2.75 0.08,0.59 0,1.19 -0.19,1.74l-2.38 6.9c-0.04,0.02 -0.09,0.05 -0.14,0.07 -0.32,0.18 -1.2,0.82 -1.56,0.54 -0.28,-0.22 -0.56,-0.44 -0.84,-0.67l-0.09 -0.08 -0.12 -0.05c-0.37,-0.19 -0.78,-0.29 -1.18,-0.32 -0.42,-0.04 -0.85,-0.02 -1.27,0.03 -0.13,0.02 -0.26,0.04 -0.38,0.06l1.04 -3.07 -6.52 1.79 -0.29 0.83c-0.38,0.05 -0.76,0.13 -1.14,0.24l-7.53 0.02 1.33 -3.84 12.38 -0.04 2.45 -0.93 1.91 -5.55c0.09,-0.27 0.13,-0.53 0.1,-0.78 -0.2,-1.4 -2.51,-1.52 -3.92,-1.51l-11.19 0.03c-1.39,0.01 -3.78,0.11 -4.94,1.48 -0.22,0.26 -0.37,0.52 -0.46,0.8l-1.11 3.09 6.26 -2.44 9.12 -0.02 -1.02 2.98 -8.61 0.01 0.89 -2.49 -6.87 2.76 -2.05 5.92c-0.13,0.07 -0.26,0.14 -0.39,0.22 -0.23,0.15 -0.48,0.31 -0.68,0.52 -0.41,0.4 -0.65,0.99 -0.54,1.65 0.09,0.5 0.32,0.92 0.66,1.21 -0.09,0.06 -0.19,0.12 -0.29,0.18 -0.16,-0.21 -0.29,-0.45 -0.39,-0.72 -0.19,-0.18 -0.36,-0.39 -0.5,-0.63l-2.85 3.09 -0.04 0.01 -0.01 0c-0.05,-0.01 -0.09,-0.03 -0.13,-0.06 -0.28,-0.22 -0.56,-0.45 -0.84,-0.67l-0.1 -0.08 -0.11 -0.06c-0.38,-0.19 -0.78,-0.28 -1.18,-0.32 -0.43,-0.04 -0.85,-0.02 -1.27,0.03 -0.28,0.04 -0.56,0.1 -0.84,0.17 -0.32,0.09 -0.64,0.18 -0.96,0.29 -0.28,0.1 -0.56,0.21 -0.84,0.33 -0.22,0.09 -0.44,0.18 -0.65,0.3 -0.02,0.01 -0.04,0.02 -0.06,0.03 -0.14,-0.77 -0.63,-1.27 -1.23,-1.46 -0.47,-0.15 -0.98,-0.13 -1.45,-0.07 -0.49,0.07 -0.97,0.17 -1.45,0.31 -0.4,0.13 -0.79,0.3 -1.17,0.51l-0.78 -3.11 -0.04 0.01c-0.43,0.18 -0.87,0.35 -1.32,0.49l-1.27 3.7 -2.96 1.07c-0.09,-0.1 -0.18,-0.18 -0.29,-0.25 -0.29,-0.17 -0.61,-0.21 -0.93,-0.22 -0.31,-0.01 -0.63,0.02 -0.93,0.06 -0.45,0.06 -0.89,0.18 -1.31,0.39 -0.35,0.18 -0.67,0.43 -0.96,0.74 -0.04,0.02 -0.08,0.05 -0.13,0.07 -0.1,0.06 -0.21,0.12 -0.31,0.18 -0.24,0.15 -0.45,0.34 -0.68,0.49 -0.27,0.18 -0.55,0.33 -0.82,0.5 0.01,-0.02 0.03,-0.04 0.04,-0.06 0.06,-0.09 0.11,-0.18 0.16,-0.28 0.2,-0.35 0.29,-0.78 0.22,-1.21 -0.05,-0.32 -0.18,-0.58 -0.34,-0.79l0.18 -0.52 -0.42 0.29c-0.15,-0.11 -0.31,-0.19 -0.48,-0.24 -0.27,-0.07 -0.55,-0.07 -0.82,-0.04 -0.23,0.03 -0.47,0.1 -0.69,0.15 -0.4,0.11 -0.8,0.23 -1.2,0.35l-0.12 0.04 -0.12 0.08c-0.29,0.18 -0.58,0.38 -0.86,0.58 -0.23,0.17 -0.45,0.34 -0.69,0.49 -0.29,0.17 -0.59,0.33 -0.87,0.51l-0.83 0.03c0.1,-0.15 0.19,-0.33 0.24,-0.53 0.14,-0.46 0.13,-0.94 0.05,-1.42 -0.04,-0.18 -0.09,-0.36 -0.17,-0.51 0.04,-0.22 0.04,-0.44 0,-0.67 -0.12,-0.74 -0.6,-1.21 -1.18,-1.36 -0.35,-0.1 -0.73,-0.08 -1.08,-0.04 -0.83,0.11 -1.57,0.52 -2.18,1.22 -0.1,0.11 -0.41,0.45 -0.55,0.47l-0.63 0.01c-0.27,0.01 -0.45,0.07 -0.7,0.12 -0.13,0.03 -0.27,0.08 -0.4,0.09 -0.06,0.01 -0.13,0.01 -0.2,0.01 -0.02,-0.11 -0.04,-0.23 -0.06,-0.36 -0.01,-0.14 -0.02,-0.28 -0.02,-0.42l0 0 -0.16 0.08 -0.17 -0.16c-0.03,-0.01 -0.07,-0.01 -0.1,-0.02 -0.12,0.04 -0.24,0.07 -0.36,0.11 -0.44,0.14 -0.89,0.26 -1.34,0.32 -0.16,0.02 -0.32,0.04 -0.48,0.05l-0.25 0.73c-0.23,0.02 -0.46,0.05 -0.69,0.08 -0.52,0.06 -1.05,0.26 -1.43,0.73 -0.35,0.42 -0.52,0.96 -0.52,1.54l-6.89 0 0.07 -0.25c-1.72,0.13 -3.44,0.19 -5.17,0.24 -0.37,0.01 -0.74,0.02 -1.11,0.03 -0.47,0.06 -0.96,0.09 -1.43,0.03l-0.35 0.01c-1.35,0.02 -3.38,-0.04 -4.51,-1.22 -0.2,0.04 -0.4,0.08 -0.61,0.13l-0.32 0.07c-1.16,0.72 -2.59,0.96 -3.9,1.03l-1.04 0.73 -1.16 -0.7 -9.9 0.03c-1.81,0 -4.89,-0.15 -5.29,-2.93 -0.02,-0.18 -0.03,-0.37 -0.03,-0.55 -1.4,-0.28 -2.72,-0.99 -2.97,-2.74 -0.08,-0.6 -0.01,-1.2 0.19,-1.75l0.51 -1.49 -3.06 0.77 1.29 -3.74 -2.72 0.05 -1.57 0.39 0.12 -0.37 -0.01 0 -5.49 15.51 -10.1 3.46 1.69 -4.91 -4.69 1.61 1.11 -3.22 -10.85 0.03 -5.38 -2.64 0.54 -1.56zm156.34 1.47c-0.13,0.23 -0.28,0.45 -0.45,0.65 -1.47,1.76 -3.98,2.01 -5.93,2.02l-11.19 0.03c-0.42,0 -0.9,0 -1.4,-0.05 0.44,-0.14 0.87,-0.32 1.3,-0.5 0.99,-0.4 1.96,-0.85 2.91,-1.34l0.3 0.6c0.07,0.14 0.14,0.28 0.22,0.42 0.45,0.8 1.25,0.77 1.94,0.69 0.26,-0.04 0.52,-0.08 0.77,-0.14 0.26,-0.06 0.51,-0.13 0.75,-0.25 0.17,-0.07 0.33,-0.16 0.5,-0.24 0.16,-0.08 0.32,-0.16 0.47,-0.24 0.53,-0.27 1.04,-0.55 1.56,-0.84 0.31,-0.18 0.67,-0.38 0.97,-0.62 0.05,-0.02 0.12,-0.04 0.17,-0.06 0.44,-0.13 0.89,-0.35 1.31,-0.54 0.21,-0.1 0.42,-0.2 0.64,-0.28 0.14,-0.05 0.28,-0.1 0.43,-0.14 0.21,0.07 0.41,0.13 0.61,0.19 0.19,0.06 0.38,0.12 0.57,0.16 0.17,0.09 0.35,0.18 0.52,0.26 0.19,0.08 0.38,0.15 0.57,0.21 0.31,0.08 0.62,0.13 0.94,0.15 0.33,0.01 0.67,-0.01 1.01,-0.05 0.17,-0.02 0.34,-0.05 0.51,-0.09zm-21.11 -2.4c0.08,0.06 0.16,0.14 0.23,0.22 0.14,0.16 0.27,0.31 0.39,0.48 0.08,0.11 0.16,0.22 0.23,0.33 0.12,0.11 0.23,0.22 0.33,0.33 0,0 0,0 0,0 0.45,0 1,-0.15 1.41,-0.33 0.19,-0.09 0.38,-0.17 0.58,-0.26 0.5,-0.22 0.99,-0.47 1.48,-0.74 -1.39,-0.02 -2.79,-0.03 -4.17,-0.03 -0.15,0 -0.31,0 -0.48,0zm-98.78 -12.46l-7.2 0.12 -5.58 15.78 -6.69 2.28 6.68 -19.37 6.8 -2.14 -0.23 0.64c1.33,-0.09 2.66,-0.18 3.99,-0.27 1.59,-0.1 3.2,-0.19 4.75,-0.19 1.39,-0.01 3.7,0.1 3.88,1.49 0.03,0.23 0,0.49 -0.09,0.74l-0.84 2.42 -6.55 1.66 1.08 -3.16zm66.5 6.11l-0.65 1.88 -1.6 4.65 6.84 -2.49 0.65 -1.88 0 0 0.08 -0.22 0.57 -1.66 0 0 1.72 -4.98 1.72 -5 -6.73 2.16 -0.21 0.61 0 0 -0.97 2.83 0 0 -0.17 0.48 0 0 -1.25 3.62zm-15.54 2.81l-0.19 0.55 -0.19 0.55c-0.09,0.26 -0.13,0.52 -0.1,0.76 0.16,1.47 2.47,1.59 3.94,1.54l5.22 -0.18 4.14 -2.88 -6.96 0.02 0.34 -1.01 2.23 -6.45 0.71 -2.04 3.47 -0.01 3.51 -3.04 -5.94 0.02 1.64 -4.76 -6.6 2.27 -1 2.51 -1.99 0.01 -3.18 3.03 4.09 -0.01 -0.85 2.46 -2.29 6.66zm-27.1 1.22l1.19 -3.5 -6.53 1.79 -0.36 1.06 -8.59 0.03 1.32 -3.84 12.39 -0.04 2.44 -0.93 1.92 -5.55c0.09,-0.27 0.13,-0.53 0.09,-0.78 -0.19,-1.4 -2.51,-1.52 -3.92,-1.51l-11.19 0.03c-1.38,0.01 -3.77,0.11 -4.94,1.48 -0.21,0.26 -0.36,0.52 -0.46,0.8l-1.11 3.09 6.27 -2.44 9.12 -0.02 -1.03 2.98 -8.6 0.01 0.89 -2.49 -6.88 2.76 -2.45 7.09c-0.09,0.28 -0.13,0.54 -0.09,0.79 0.2,1.4 2.51,1.52 3.91,1.51 4.02,-0.01 8.09,0.15 12.06,-0.06 0.89,-0.04 1.93,-0.18 2.82,-0.58 0.67,-0.29 1.44,-0.84 1.73,-1.68zm60.41 -3.98l1.81 -1.95 3.46 -3.74 6.49 -7.02 8.29 -2.31 -3.53 3.82 -11.45 12.37 -2.17 2.35 -7.52 2.78 -1.36 -5.41 -1.37 -5.46 -0.37 -1.47 -0.38 -1.49 5.95 -2.13 0.37 1.69 0 0 0.33 1.48 0 0 1.06 4.74 0.39 1.75zm-55.69 -6.92l-1.19 3.49 6.52 -1.79 0.37 -1.05 8.59 -0.03 -1.33 3.84 -11.66 0.03c-1.56,0.01 -3.04,0.57 -3.66,2.36l-0.76 2.22c-1.23,3.55 0.84,4.14 3.33,4.23 3.1,0.12 6.85,-0.42 10,-0.64l-0.12 0.43 5.82 0 1.83 -5.23 -0.04 0.02 0.98 -2.84 1.74 -5.07c0.1,-0.27 0.13,-0.53 0.1,-0.78 -0.2,-1.4 -2.51,-1.52 -3.92,-1.51 -4.01,0.01 -8.08,-0.16 -12.06,0.05 -0.88,0.05 -1.93,0.19 -2.81,0.58 -0.68,0.3 -1.45,0.85 -1.73,1.69zm11 10.31l-7.34 0.01c-1.09,0.01 -1.27,-0.1 -0.85,-1.24l0.2 -0.55c0.37,-1.1 0.77,-1.18 1.78,-1.18l7.2 -0.02 -0.66 1.85 0 0 -0.23 0.65 0.04 -0.02 -0.14 0.5z"/>
  <path class="fil1" d="M95.07 34.37c-0.29,0.16 -0.58,0.29 -0.86,0.37 -0.29,0.09 -0.56,0.15 -0.81,0.19 -0.56,0.07 -0.99,0.06 -1.28,-0.02 -0.3,-0.08 -0.46,-0.25 -0.51,-0.49 -0.04,-0.26 -0.05,-0.49 -0.03,-0.69 0.01,-0.2 0.07,-0.37 0.16,-0.5 0.05,-0.04 0.08,-0.08 0.1,-0.11 -0.01,-0.04 0,-0.11 0.02,-0.19 0.03,-0.08 0.06,-0.18 0.1,-0.29 0.04,-0.19 0.09,-0.38 0.15,-0.57 0.12,-0.12 0.25,-0.26 0.38,-0.4 0,-0.02 -0.06,-0.04 -0.16,-0.04l-0.18 0.06c-0.18,0.14 -0.41,0.28 -0.69,0.44 -0.29,0.16 -0.63,0.33 -1.03,0.52 -0.61,0.3 -9.2,1.98 -9.83,2.3 -0.03,0.02 -0.1,0.07 -0.19,0.13 -0.09,0.05 -0.2,0.13 -0.32,0.21 -0.07,-0.05 -0.16,-0.1 -0.27,-0.18 -0.11,-0.07 -0.22,-0.15 -0.35,-0.25 -0.03,-0.02 -0.07,-0.05 -0.11,-0.06 -0.03,-0.02 -0.08,-0.03 -0.14,-0.04l0.07 -0.06c0.06,-0.06 0.16,-0.11 0.27,-0.18 0.11,-0.07 0.23,-0.16 0.4,-0.25 0.84,-0.42 9.63,-2.25 10.42,-2.77 0.79,-0.53 1.56,-1.11 2.31,-1.76 0.09,-0.06 0.2,-0.14 0.31,-0.24 0.11,-0.1 0.23,-0.22 0.37,-0.36 -0.01,-0.03 -0.03,-0.05 -0.07,-0.06 -0.04,0 -0.11,0 -0.2,0.01 -0.07,0.01 -0.19,0.03 -0.37,0.07 -0.16,0.04 -0.29,0.06 -0.39,0.07l-2.38 0.31c-0.11,0.01 -0.27,0.03 -0.51,0.05 -0.24,0.03 -0.41,0.05 -0.51,0.06 -0.13,0 -0.25,-0.01 -0.36,-0.01 -0.11,0 -0.22,-0.01 -0.33,-0.01 -0.15,0 -0.27,-0.01 -0.36,-0.03 -0.09,-0.02 -0.14,-0.05 -0.14,-0.09 -0.05,-0.29 -0.01,-0.52 0.14,-0.7 0.15,-0.18 0.39,-0.29 0.75,-0.33 0.36,-0.05 0.69,-0.08 1.01,-0.11 0.31,-0.03 0.59,-0.05 0.84,-0.06 0.19,-0.04 0.36,-0.08 0.53,-0.12 0.34,-0.04 0.63,-0.07 0.88,-0.09 0.24,-0.02 0.43,-0.04 0.56,-0.04 0.17,-0.03 0.33,-0.07 0.48,-0.1 0.16,-0.03 0.33,-0.06 0.52,-0.1l0.64 -0.01c0.45,-0.08 0.89,-0.36 1.32,-0.85 0.43,-0.49 0.93,-0.78 1.5,-0.85 0.3,-0.04 0.55,-0.03 0.73,0.01 0.17,0.05 0.27,0.14 0.3,0.27 0.01,0.11 -0.05,0.26 -0.19,0.45 -0.15,0.19 -0.22,0.33 -0.23,0.42 0.03,0.01 0.06,0.03 0.11,0.04 0.05,0.02 0.12,0.03 0.22,0.05 0.08,0.01 0.14,0.03 0.17,0.07 0.05,0.04 0.07,0.09 0.08,0.16 0.04,0.27 0.05,0.48 0,0.64 -0.04,0.16 -0.14,0.25 -0.29,0.27l-1.29 0.26c-0.02,0.05 -0.04,0.11 -0.06,0.18 -0.03,0.07 -0.07,0.15 -0.12,0.25 -0.18,0.25 -0.37,0.57 -0.58,0.95 -0.2,0.39 -0.43,0.84 -0.68,1.36 -0.14,0.41 -0.25,0.74 -0.32,0.99 -0.07,0.25 -0.09,0.41 -0.08,0.49 0.01,0.08 0.06,0.13 0.13,0.15 0.07,0.03 0.16,0.04 0.3,0.02 1.53,-0.19 3.98,-1.9 5.15,-2.66 0.28,-0.17 0.58,-0.35 0.9,-0.53 0.26,-0.17 0.51,-0.35 0.76,-0.53 0.25,-0.18 0.51,-0.36 0.79,-0.54 0.5,-0.15 0.89,-0.27 1.16,-0.34 0.28,-0.07 0.46,-0.11 0.57,-0.13 0.18,-0.02 0.34,-0.02 0.44,0.01 0.12,0.03 0.18,0.09 0.19,0.17 0.01,0.03 -0.01,0.07 -0.04,0.12 -0.03,0.06 -0.06,0.12 -0.11,0.18 -0.06,0.11 -0.15,0.21 -0.25,0.33 -0.07,0.17 -0.17,0.34 -0.28,0.52 -0.12,0.17 -0.22,0.35 -0.32,0.52 -0.1,0.21 -0.16,0.4 -0.21,0.57 -0.04,0.18 -0.05,0.33 -0.02,0.47 0.04,0.25 0.1,0.44 0.2,0.55 0.09,0.11 0.2,0.16 0.32,0.13 0.12,-0.05 0.28,-0.1 0.46,-0.16 0.19,-0.07 0.4,-0.14 0.65,-0.22 0.21,-0.12 0.45,-0.26 0.72,-0.42 0.26,-0.16 0.59,-0.36 0.96,-0.58 0.21,-0.16 0.43,-0.31 0.65,-0.47 0.08,-0.04 0.18,-0.1 0.29,-0.17 0.11,-0.06 0.22,-0.13 0.3,-0.19 0.21,-0.25 0.46,-0.44 0.74,-0.59 0.28,-0.14 0.6,-0.24 0.97,-0.29 0.34,-0.04 0.6,-0.06 0.8,-0.05 0.21,0 0.35,0.03 0.44,0.08 0.04,0.02 0.08,0.07 0.12,0.15 0.04,0.07 0.07,0.17 0.09,0.3 0.01,0.05 0.05,0.12 0.12,0.21 1.26,1.46 4.11,-0.75 5.48,-1.54 0.19,-0.1 0.43,-0.23 0.71,-0.39 0.28,-0.16 0.63,-0.35 1.01,-0.57 0.34,-0.2 0.7,-0.36 1.1,-0.48 0.39,-0.12 0.82,-0.22 1.28,-0.27 0.46,-0.06 0.8,-0.05 1.04,0.02 0.23,0.07 0.36,0.21 0.4,0.41 0.01,0.1 -0.06,0.31 -0.22,0.64 -0.17,0.32 -0.44,0.75 -0.82,1.3 -0.09,0.1 -0.19,0.2 -0.27,0.3 -0.07,0.07 -0.12,0.13 -0.13,0.17 -0.02,0.05 -0.03,0.09 -0.03,0.11 0.01,0.03 0.06,0.06 0.16,0.09 0.06,-0.03 0.12,-0.05 0.17,-0.08 0.05,-0.03 0.12,-0.07 0.18,-0.11 0.1,-0.08 0.24,-0.17 0.44,-0.27 0.19,-0.1 0.43,-0.22 0.71,-0.35 0.1,-0.09 0.24,-0.19 0.41,-0.28 0.17,-0.1 0.37,-0.2 0.59,-0.29 0.05,-0.03 0.11,-0.06 0.18,-0.11 0.08,-0.06 0.17,-0.11 0.28,-0.17 0.15,-0.08 0.34,-0.17 0.56,-0.26 0.22,-0.09 0.47,-0.19 0.77,-0.3 0.33,-0.11 0.63,-0.2 0.9,-0.27 0.27,-0.07 0.5,-0.12 0.71,-0.14 0.39,-0.06 0.75,-0.06 1.06,-0.04 0.32,0.03 0.6,0.11 0.84,0.23 0.3,0.25 0.6,0.47 0.87,0.68 0.16,0.13 0.33,0.21 0.51,0.26 0.19,0.04 0.39,0.05 0.61,0.03 0.89,-0.12 1.9,-0.93 2.64,-1.27 0.81,-0.38 1.37,-0.67 1.68,-0.88 0.12,-0.09 0.25,-0.16 0.41,-0.22 0.16,-0.05 0.32,-0.08 0.49,-0.11 0.44,-0.05 0.83,-0.06 1.14,-0.02 0.32,0.04 0.55,0.13 0.68,0.28 0.11,0.13 0.22,0.26 0.32,0.39 0.1,0.14 0.19,0.27 0.27,0.41 0.1,0.08 0.23,0.21 0.39,0.37 0.16,0.17 0.28,0.26 0.34,0.28 0.07,0.04 0.18,0.06 0.3,0.07 0.63,0.02 1.37,-0.18 1.91,-0.42 0.18,-0.08 0.37,-0.17 0.57,-0.25 1.4,-0.64 2.75,-1.45 4.05,-2.2 0.19,-0.11 0.43,-0.24 0.71,-0.39 0.29,-0.16 0.63,-0.35 1.02,-0.58 0.33,-0.19 0.7,-0.35 1.09,-0.47 0.4,-0.13 0.82,-0.22 1.28,-0.28 0.46,-0.06 0.8,-0.05 1.04,0.03 0.23,0.07 0.36,0.21 0.4,0.4 0.02,0.11 -0.05,0.32 -0.22,0.64 -0.17,0.33 -0.44,0.76 -0.82,1.3 -0.09,0.11 -0.19,0.21 -0.27,0.3 -0.07,0.07 -0.11,0.13 -0.13,0.18 -0.02,0.05 -0.03,0.09 -0.02,0.11 0,0.02 0.05,0.05 0.15,0.08 0.06,-0.02 0.12,-0.04 0.17,-0.07 0.05,-0.03 0.12,-0.07 0.19,-0.11 0.09,-0.08 0.23,-0.17 0.43,-0.28 0.2,-0.1 0.44,-0.21 0.71,-0.34 0.1,-0.09 0.24,-0.19 0.41,-0.29 0.17,-0.1 0.37,-0.19 0.59,-0.28 0.05,-0.03 0.11,-0.07 0.19,-0.12 0.07,-0.05 0.16,-0.1 0.27,-0.17 0.16,-0.08 0.34,-0.16 0.56,-0.25 0.22,-0.1 0.47,-0.2 0.77,-0.3 0.33,-0.11 0.63,-0.2 0.9,-0.27 0.27,-0.07 0.51,-0.12 0.71,-0.15 0.4,-0.05 0.75,-0.06 1.07,-0.03 0.31,0.03 0.59,0.1 0.83,0.22 0.31,0.25 0.6,0.48 0.87,0.69 0.91,0.71 1.86,0.05 2.64,-0.44 0.15,-0.07 0.34,-0.16 0.54,-0.27 0.2,-0.11 0.42,-0.25 0.67,-0.41 0.09,-0.09 0.2,-0.19 0.32,-0.3 0.14,-0.11 0.28,-0.25 0.46,-0.4 0.05,-0.13 0.21,-0.29 0.46,-0.48 0.25,-0.2 0.61,-0.42 1.07,-0.68 0.66,-0.37 1.34,-0.76 2.05,-1.17 0.36,-0.26 0.76,-0.47 1.21,-0.62 0.45,-0.16 0.94,-0.28 1.48,-0.34 0.35,-0.05 0.63,-0.03 0.83,0.06 0.21,0.09 0.33,0.25 0.37,0.47 0.01,0.08 -0.12,0.23 -0.4,0.44 -0.29,0.22 -0.72,0.5 -1.31,0.84 -0.37,0.22 -0.75,0.44 -1.16,0.66 -0.41,0.23 -0.8,0.45 -1.19,0.68 -0.18,0.08 -0.37,0.18 -0.57,0.28 -0.2,0.1 -0.41,0.21 -0.64,0.33 -0.06,0.11 -0.12,0.23 -0.19,0.36 0.03,0.17 0.09,0.32 0.18,0.44 0.08,0.13 0.2,0.22 0.34,0.3 0.07,0.02 0.22,0.08 0.44,0.16 0.24,0.09 0.54,0.19 0.93,0.33 0.1,0.03 0.21,0.06 0.35,0.09 0.13,0.03 0.29,0.06 0.46,0.08 0.19,-0.05 0.57,-0.19 1.05,-0.51 2.68,-1.74 7.76,-1.81 8.86,-2.61l0.83 0.53c-0.09,0.05 -0.34,0.09 -0.47,0.29 -0.15,0.21 -6.26,1.04 -7.63,1.97 -0.36,0.25 -0.76,0.5 -1.14,0.77 0.01,0.05 0.08,0.09 0.21,0.13 0.13,0.05 0.29,0.1 0.49,0.14 0.35,0.1 0.67,0.24 0.94,0.43 0.27,0.19 0.5,0.43 0.68,0.73 -0.01,0.02 -0.02,0.06 -0.03,0.11 -0.01,0.06 -0.02,0.12 -0.02,0.18 -0.06,0.54 -0.88,1.18 -2.44,1.91 -1.56,0.74 -3.07,1.19 -4.53,1.38 -0.68,0.09 -1.22,0.12 -1.63,0.11 -0.42,-0.01 -0.71,-0.06 -0.9,-0.16 -0.08,-0.06 -0.14,-0.16 -0.21,-0.33 -0.07,-0.17 -0.13,-0.4 -0.18,-0.68 0,-0.03 0.02,-0.09 0.08,-0.18 0.05,-0.09 0.15,-0.21 0.29,-0.37 0.08,-0.1 0.19,-0.21 0.33,-0.33 0.14,-0.11 0.3,-0.24 0.45,-0.38 0.16,-0.12 0.33,-0.23 0.5,-0.35 0.17,-0.11 0.33,-0.22 0.48,-0.34 0.38,-0.21 0.72,-0.39 1.01,-0.56 0.23,-0.12 0.41,-0.22 0.52,-0.31 0.13,-0.1 0.18,-0.18 0.17,-0.23 -0.47,-0.16 -0.94,-0.31 -1.4,-0.45 -0.49,-0.15 -0.9,-0.31 -1.22,-0.48 -0.33,-0.16 -0.55,-0.35 -0.68,-0.55 -0.02,-0.03 -0.08,-0.06 -0.17,-0.11 -1.06,0.53 -2.33,1.28 -3.6,1.44 -0.29,0.04 -0.58,0.05 -0.85,0.04 -0.28,-0.01 -0.52,-0.05 -0.73,-0.12 -0.11,-0.02 -0.25,-0.07 -0.41,-0.15 -0.18,-0.08 -0.37,-0.18 -0.6,-0.3 -0.18,-0.03 -0.38,-0.09 -0.61,-0.16 -0.23,-0.07 -0.49,-0.15 -0.8,-0.25l-0.17 0c-0.24,0.06 -0.47,0.13 -0.7,0.21 -0.22,0.09 -0.46,0.19 -0.72,0.31 -0.53,0.26 -0.93,0.42 -1.18,0.5 -0.24,0.08 -0.41,0.15 -0.49,0.22 -0.15,0.13 -0.44,0.31 -0.84,0.54 -0.4,0.23 -0.91,0.5 -1.52,0.82 -0.16,0.08 -0.32,0.16 -0.47,0.24 -0.15,0.08 -0.31,0.15 -0.47,0.23 -0.16,0.07 -0.34,0.13 -0.55,0.18 -0.2,0.04 -0.43,0.08 -0.68,0.11 -0.52,0.07 -0.8,0.04 -0.87,-0.08 -0.07,-0.11 -0.13,-0.24 -0.19,-0.36 0.16,-0.21 0.34,-0.48 0.53,-0.8 0.19,-0.32 0.42,-0.68 0.67,-1.11 0,-0.02 0.01,-0.05 0.05,-0.1 0.04,-0.04 0.08,-0.1 0.14,-0.17 0.05,-0.07 0.08,-0.12 0.1,-0.17 0.02,-0.05 0.03,-0.09 0.02,-0.12 0,-0.03 -0.04,-0.05 -0.11,-0.06 -0.06,-0.01 -0.17,-0.01 -0.3,0.01 -0.13,0.02 -0.3,0.06 -0.5,0.15 -0.2,0.08 -0.44,0.19 -0.71,0.35 -1.42,0.78 -2.9,1.55 -4.44,2.17 -0.63,0.26 -1.39,0.59 -2.11,0.68 -1.15,0.14 -1.92,0.19 -2.27,0.14 -0.37,-0.05 -0.8,-0.27 -1.29,-0.65 -0.06,-0.03 -0.14,-0.07 -0.25,-0.1 -0.11,-0.04 -0.24,-0.08 -0.38,-0.14 -0.17,-0.08 -0.31,-0.14 -0.44,-0.18 -0.12,-0.04 -0.22,-0.05 -0.3,-0.04 -0.2,0.02 -0.47,0.11 -0.8,0.25 -1.29,0.56 -2.47,1.43 -3.97,1.62 -0.3,0.04 -0.58,0.05 -0.86,0.04 -0.27,-0.01 -0.51,-0.05 -0.72,-0.12 -0.11,-0.02 -0.25,-0.07 -0.42,-0.15 -0.17,-0.07 -0.37,-0.18 -0.59,-0.29 -0.18,-0.04 -0.39,-0.1 -0.61,-0.17 -0.23,-0.07 -0.49,-0.15 -0.8,-0.25l-0.17 0c-0.24,0.06 -0.47,0.13 -0.7,0.22 -0.22,0.08 -0.47,0.19 -0.72,0.31 -0.53,0.25 -0.93,0.42 -1.18,0.49 -0.25,0.08 -0.41,0.15 -0.49,0.23 -0.16,0.13 -0.44,0.31 -0.85,0.53 -0.4,0.23 -0.9,0.51 -1.52,0.83 -0.15,0.07 -0.31,0.15 -0.46,0.23 -0.16,0.08 -0.31,0.16 -0.47,0.23 -0.16,0.07 -0.34,0.13 -0.55,0.18 -0.2,0.05 -0.43,0.09 -0.68,0.12 -0.52,0.06 -0.81,0.04 -0.87,-0.08 -0.07,-0.12 -0.13,-0.24 -0.19,-0.36 0.16,-0.22 0.34,-0.49 0.53,-0.8 0.19,-0.32 0.41,-0.69 0.67,-1.11 0,-0.03 0.01,-0.06 0.05,-0.1 0.04,-0.05 0.08,-0.11 0.14,-0.18 0.04,-0.06 0.08,-0.12 0.1,-0.17 0.02,-0.04 0.02,-0.08 0.02,-0.11 -0.01,-0.04 -0.04,-0.06 -0.11,-0.07 -0.06,-0.01 -0.17,0 -0.31,0.01 -0.13,0.02 -0.29,0.07 -0.49,0.15 -0.2,0.08 -0.44,0.2 -0.71,0.35 -0.34,0.19 -0.61,0.33 -0.81,0.43 -1.63,0.85 -4.19,2.13 -6.21,1.81 -0.43,-0.06 -0.76,-0.2 -0.99,-0.41 -0.04,-0.05 -0.1,-0.1 -0.19,-0.14 -0.1,-0.04 -0.21,-0.08 -0.34,-0.12 -0.11,0.06 -0.23,0.13 -0.37,0.21 -0.14,0.08 -0.28,0.16 -0.43,0.25 -0.32,0.19 -0.64,0.38 -0.96,0.57 -0.32,0.19 -0.65,0.37 -0.98,0.56 -0.41,0.24 -0.84,0.44 -1.28,0.58 -0.44,0.14 -0.86,0.24 -1.25,0.29 -0.59,0.07 -1.07,0.07 -1.45,-0.01 -0.38,-0.08 -0.64,-0.24 -0.78,-0.47 -0.16,-0.22 -0.27,-0.4 -0.33,-0.52 -0.05,-0.13 -0.07,-0.21 -0.06,-0.24 -0.04,-0.13 -0.1,-0.22 -0.15,-0.29 -0.05,-0.06 -0.13,-0.08 -0.22,-0.07l-0.11 0.03c-1.7,0.9 -3.41,1.79 -5.1,2.7zm43.95 -13.06c0.32,-0.04 0.56,-0.05 0.71,-0.03 0.16,0.03 0.24,0.09 0.26,0.17 -0.06,0.14 -0.1,0.26 -0.14,0.35 -0.1,0.18 -0.19,0.33 -0.27,0.44 -0.07,0.12 -0.13,0.2 -0.17,0.26 -0.1,0.11 -0.25,0.22 -0.43,0.32 -0.18,0.1 -0.41,0.2 -0.68,0.29 -0.28,0.11 -0.52,0.19 -0.71,0.25 -0.19,0.05 -0.33,0.08 -0.41,0.09 -0.21,0.02 -0.42,0.03 -0.62,0.05 -0.2,0.02 -0.39,0.04 -0.58,0.07 -0.18,-0.01 -0.32,-0.06 -0.43,-0.14 -0.11,-0.08 -0.18,-0.19 -0.2,-0.35 -0.03,-0.13 0.17,-0.34 0.61,-0.6 0.42,-0.27 0.82,-0.43 1.17,-0.49 0.2,-0.12 0.44,-0.26 0.71,-0.42 0.12,-0.05 0.28,-0.1 0.48,-0.14 0.2,-0.05 0.43,-0.09 0.7,-0.12zm28.9 4.74c-0.07,0.01 -0.23,0.1 -0.49,0.26 -0.25,0.16 -0.59,0.4 -1.01,0.71 -0.25,0.18 -0.49,0.37 -0.74,0.56 -0.24,0.19 -0.49,0.37 -0.75,0.56 -0.1,0.06 -0.23,0.2 -0.38,0.41 -0.16,0.21 -0.24,0.34 -0.23,0.39 0.01,0.09 0.09,0.15 0.23,0.17 0.15,0.02 0.35,0.02 0.63,-0.02 0.99,-0.13 1.96,-0.44 2.93,-0.95 0.96,-0.51 1.42,-0.94 1.36,-1.29 -0.02,-0.08 -0.06,-0.16 -0.16,-0.24 -0.09,-0.09 -0.22,-0.19 -0.36,-0.29 -0.19,-0.11 -0.37,-0.19 -0.53,-0.23 -0.16,-0.05 -0.33,-0.06 -0.5,-0.04z"/>
 </g>
</svg>
